<svg width="20" height="25" viewBox="0 0 20 25" fill="none" xmlns="http://www.w3.org/2000/svg">
<path d="M14.7729 0.762011C14.7219 0.705011 12.8844 0.784511 11.2854 2.52001C9.68639 4.25401 9.93239 6.24301 9.96839 6.29401C10.0044 6.34501 12.2484 6.42451 13.6809 4.40701C15.1134 2.38951 14.8239 0.820511 14.7729 0.762011ZM19.7439 18.3615C19.6719 18.2175 16.2564 16.5105 16.5744 13.2285C16.8924 9.94501 19.0869 9.04501 19.1214 8.94751C19.1559 8.85001 18.2259 7.76251 17.2404 7.21201C16.5168 6.82389 15.716 6.60152 14.8959 6.56101C14.7339 6.55651 14.1714 6.41851 13.0149 6.73501C12.2529 6.94351 10.5354 7.61851 10.0629 7.64551C9.58889 7.67251 8.17889 6.86251 6.66239 6.64801C5.69189 6.46051 4.66289 6.84451 3.92639 7.14001C3.19139 7.43401 1.79339 8.27101 0.815389 10.4955C-0.162611 12.7185 0.348889 16.2405 0.714889 17.3355C1.08089 18.429 1.65239 20.2215 2.62439 21.5295C3.48839 23.0055 4.63439 24.03 5.11289 24.378C5.59139 24.726 6.94139 24.957 7.87739 24.4785C8.63039 24.0165 9.98939 23.751 10.5264 23.7705C11.0619 23.79 12.1179 24.0015 13.1994 24.579C14.0559 24.8745 14.8659 24.7515 15.6774 24.4215C16.4889 24.09 17.6634 22.833 19.0344 20.2845C19.5549 19.0995 19.7919 18.459 19.7439 18.3615Z" fill="black"/>
<path d="M14.7729 0.762011C14.7219 0.705011 12.8844 0.784511 11.2854 2.52001C9.68639 4.25401 9.93239 6.24301 9.96839 6.29401C10.0044 6.34501 12.2484 6.42451 13.6809 4.40701C15.1134 2.38951 14.8239 0.820511 14.7729 0.762011ZM19.7439 18.3615C19.6719 18.2175 16.2564 16.5105 16.5744 13.2285C16.8924 9.94501 19.0869 9.04501 19.1214 8.94751C19.1559 8.85001 18.2259 7.76251 17.2404 7.21201C16.5168 6.82389 15.716 6.60152 14.8959 6.56101C14.7339 6.55651 14.1714 6.41851 13.0149 6.73501C12.2529 6.94351 10.5354 7.61851 10.0629 7.64551C9.58889 7.67251 8.17889 6.86251 6.66239 6.64801C5.69189 6.46051 4.66289 6.84451 3.92639 7.14001C3.19139 7.43401 1.79339 8.27101 0.815389 10.4955C-0.162611 12.7185 0.348889 16.2405 0.714889 17.3355C1.08089 18.429 1.65239 20.2215 2.62439 21.5295C3.48839 23.0055 4.63439 24.03 5.11289 24.378C5.59139 24.726 6.94139 24.957 7.87739 24.4785C8.63039 24.0165 9.98939 23.751 10.5264 23.7705C11.0619 23.79 12.1179 24.0015 13.1994 24.579C14.0559 24.8745 14.8659 24.7515 15.6774 24.4215C16.4889 24.09 17.6634 22.833 19.0344 20.2845C19.5549 19.0995 19.7919 18.459 19.7439 18.3615Z" fill="black"/>
</svg>
