<svg width="10" height="10" viewBox="0 0 10 10" fill="none" xmlns="http://www.w3.org/2000/svg">
<path d="M4.0575 8.85899C4.00917 8.8119 3.8025 8.63412 3.6325 8.4685C2.56333 7.49757 0.813333 4.96469 0.279167 3.63899C0.193333 3.43765 0.0116667 2.92864 0 2.65668C0 2.39609 0.06 2.14767 0.181667 1.91062C0.351667 1.61512 0.619167 1.37807 0.935 1.24818C1.15417 1.16456 1.81 1.03467 1.82167 1.03467C2.53917 0.904776 3.705 0.833336 4.99333 0.833336C6.22083 0.833336 7.33917 0.904776 8.0675 1.01112C8.07917 1.0233 8.89417 1.15319 9.17333 1.29526C9.68333 1.55586 10 2.06487 10 2.6096V2.65668C9.9875 3.01145 9.67083 3.75751 9.65917 3.75751C9.12417 5.01177 7.46 7.4862 6.35417 8.48068C6.35417 8.48068 6.07 8.76076 5.8925 8.88253C5.6375 9.0725 5.32167 9.16667 5.00583 9.16667C4.65333 9.16667 4.325 9.06032 4.0575 8.85899Z" fill="#9E9E9E"/>
</svg>
