<svg width="25" height="22" viewBox="0 0 25 22" fill="none" xmlns="http://www.w3.org/2000/svg">
<path fill-rule="evenodd" clip-rule="evenodd" d="M15.0808 6.05615C15.0808 9.14053 12.5568 11.6123 9.40723 11.6123C6.25882 11.6123 3.7337 9.14053 3.7337 6.05615C3.7337 2.97176 6.25882 0.5 9.40723 0.5C12.5568 0.5 15.0808 2.97176 15.0808 6.05615ZM0.833008 17.9036C0.833008 15.0484 4.78279 14.334 9.40723 14.334C14.0568 14.334 17.9815 15.073 17.9815 17.9304C17.9815 20.7856 14.0317 21.5 9.40723 21.5C4.75767 21.5 0.833008 20.761 0.833008 17.9036ZM17.3687 6.15687C17.3687 7.72757 16.8869 9.19319 16.0422 10.4106C15.9543 10.5358 16.0319 10.7046 16.1849 10.7315C16.3972 10.7661 16.6152 10.7874 16.8378 10.7918C19.0525 10.8489 21.0399 9.45255 21.589 7.34971C22.4029 4.22955 20.0148 1.428 16.9725 1.428C16.6426 1.428 16.3264 1.46154 16.0182 1.52302C15.976 1.53197 15.9303 1.55209 15.9075 1.58786C15.8778 1.6337 15.8995 1.69295 15.9292 1.73208C16.8435 2.98752 17.3687 4.51574 17.3687 6.15687ZM21.0365 12.986C22.5251 13.2711 23.5034 13.8513 23.9086 14.6976C24.2522 15.3907 24.2522 16.1956 23.9086 16.8887C23.2888 18.199 21.2888 18.6204 20.5114 18.7289C20.3504 18.7512 20.2214 18.6171 20.2385 18.4583C20.6358 14.8273 17.4771 13.1056 16.6598 12.7099C16.6255 12.6909 16.6175 12.664 16.6209 12.6462C16.6232 12.635 16.6381 12.6171 16.6643 12.6137C18.4326 12.5802 20.3344 12.8183 21.0365 12.986Z" fill="url(#paint0_linear_3060_8743)"/>
<defs>
<linearGradient id="paint0_linear_3060_8743" x1="24.1663" y1="21.5" x2="-3.10222" y2="12.7153" gradientUnits="userSpaceOnUse">
<stop stop-color="#246BFD"/>
<stop offset="1" stop-color="#5089FF"/>
</linearGradient>
</defs>
</svg>
