<svg width="140" height="141" viewBox="0 0 140 141" fill="none" xmlns="http://www.w3.org/2000/svg">
<path d="M61.2779 135.733C61.2779 135.733 71.4255 114.997 64.6348 101.885C61.3143 95.4732 55.3386 91.6901 49.6485 88.0879C43.7021 84.3234 38.0676 80.7563 36.1013 74.5929C36.1013 74.5929 29.3868 77.3373 32.5918 85.1133C35.7968 92.8893 42.0521 96.701 42.0521 96.701C14.6614 85.1345 7.63003 73.8132 10.9246 44.4039C3.14901 62.3972 2.68431 74.8978 9.17044 88.0102C15.6566 101.123 23.6647 106.764 40.984 117.437C58.3033 128.11 61.2779 135.733 61.2779 135.733Z" fill="url(#paint0_linear_1231_22795)"/>
<path d="M78.7227 135.733C78.7227 135.733 68.5752 114.997 75.3658 101.885C78.6864 95.4732 84.6621 91.6901 90.3522 88.0879C96.2986 84.3234 101.933 80.7563 103.899 74.5929C103.899 74.5929 110.614 77.3373 107.409 85.1133C104.204 92.8893 97.9485 96.701 97.9485 96.701C125.339 85.1345 132.371 73.8132 129.076 44.4039C136.852 62.3972 137.316 74.8978 130.83 88.0102C124.344 101.123 116.336 106.764 99.0166 117.437C81.6973 128.11 78.7227 135.733 78.7227 135.733Z" fill="url(#paint1_linear_1231_22795)"/>
<path fill-rule="evenodd" clip-rule="evenodd" d="M85.8345 5.06731C88.434 5.06731 91.0295 5.43369 93.4972 6.26113C108.703 11.2011 114.183 27.8735 109.606 42.4464C107.01 49.8934 102.767 56.69 97.2092 62.2433C89.2539 69.9415 80.5241 76.7751 71.1269 82.6619L70.0969 83.2835L69.0258 82.6207C59.5956 76.7751 50.8164 69.9415 42.787 62.2022C37.2665 56.6488 33.019 49.8934 30.3823 42.4464C25.727 27.8735 31.2063 11.2011 46.5772 6.17468C47.7719 5.76302 49.0037 5.47486 50.2396 5.31431L51.4343 5.06665C52.6125 5.06665 52.9686 5.06687 53.2734 5.06705C53.5015 5.06719 53.7009 5.06731 54.1946 5.06731H54.6478C57.2432 5.14552 59.7563 5.59835 62.1911 6.4258H62.4342C62.5989 6.50402 62.7225 6.59046 62.8049 6.66868C63.7154 6.96096 64.5764 7.29029 65.4004 7.74312L66.9659 8.44295C67.3442 8.64455 67.7688 8.95259 68.1358 9.21881C68.3683 9.38749 68.5776 9.53938 68.7374 9.63678C68.8046 9.67641 68.873 9.71627 68.9418 9.75644C69.2951 9.96249 69.6631 10.1771 69.9733 10.4148C74.5504 6.9198 80.108 5.02614 85.8345 5.06731ZM72.3038 26.6145C71.6857 25.9968 70.8474 25.6499 69.9733 25.6499C69.0992 25.6499 68.2609 25.9968 67.6428 26.6145C67.0247 27.2321 66.6775 28.0697 66.6775 28.9432V38.8231H56.79C55.9159 38.8231 55.0776 39.1701 54.4595 39.7877C53.8414 40.4053 53.4942 41.243 53.4942 42.1164C53.4942 42.9899 53.8414 43.8275 54.4595 44.4452C55.0776 45.0628 55.9159 45.4097 56.79 45.4097H66.6775V55.2897C66.6775 56.1631 67.0247 57.0008 67.6428 57.6184C68.2609 58.236 69.0992 58.583 69.9733 58.583C70.8474 58.583 71.6857 58.236 72.3038 57.6184C72.9219 57.0008 73.2691 56.1631 73.2691 55.2897V45.4097H83.1565C84.0307 45.4097 84.869 45.0628 85.487 44.4452C86.1051 43.8275 86.4524 42.9899 86.4524 42.1164C86.4524 41.243 86.1051 40.4053 85.487 39.7877C84.869 39.1701 84.0307 38.8231 83.1565 38.8231H73.2691V28.9432C73.2691 28.0697 72.9219 27.2321 72.3038 26.6145Z" fill="url(#paint2_linear_1231_22795)"/>
<defs>
<linearGradient id="paint0_linear_1231_22795" x1="135.334" y1="135.733" x2="-20.1479" y2="90.6528" gradientUnits="userSpaceOnUse">
<stop stop-color="#246BFD"/>
<stop offset="1" stop-color="#5089FF"/>
</linearGradient>
<linearGradient id="paint1_linear_1231_22795" x1="135.334" y1="135.733" x2="-20.1479" y2="90.6528" gradientUnits="userSpaceOnUse">
<stop stop-color="#246BFD"/>
<stop offset="1" stop-color="#5089FF"/>
</linearGradient>
<linearGradient id="paint2_linear_1231_22795" x1="135.334" y1="135.733" x2="-20.1479" y2="90.6528" gradientUnits="userSpaceOnUse">
<stop stop-color="#246BFD"/>
<stop offset="1" stop-color="#5089FF"/>
</linearGradient>
</defs>
</svg>
