<svg width="60" height="60" viewBox="0 0 60 60" fill="none" xmlns="http://www.w3.org/2000/svg">
<rect width="60" height="60" rx="30" fill="url(#paint0_linear_2353_9377)"/>
<path d="M27.5969 49C27.5969 49 30.3926 43.287 28.5217 39.6744C27.6069 37.9079 25.9605 36.8657 24.3929 35.8732C22.7546 34.836 21.2022 33.8533 20.6605 32.1552C20.6605 32.1552 18.8106 32.9113 19.6936 35.0537C20.5766 37.196 22.3 38.2462 22.3 38.2462C14.7536 35.0595 12.8163 31.9404 13.724 23.8378C11.5818 28.7951 11.4538 32.2392 13.2407 35.8518C15.0277 39.4644 17.2341 41.0187 22.0057 43.9592C26.7774 46.8996 27.5969 49 27.5969 49Z" fill="white"/>
<path d="M32.4031 49C32.4031 49 29.6074 43.287 31.4782 39.6744C32.3931 37.9079 34.0395 36.8657 35.6071 35.8732C37.2454 34.836 38.7978 33.8533 39.3395 32.1552C39.3395 32.1552 41.1894 32.9113 40.3064 35.0537C39.4234 37.196 37.7 38.2462 37.7 38.2462C45.2464 35.0595 47.1837 31.9404 46.276 23.8378C48.4182 28.7951 48.5463 32.2392 46.7593 35.8518C44.9723 39.4644 42.7659 41.0187 37.9943 43.9592C33.2226 46.8996 32.4031 49 32.4031 49Z" fill="white"/>
<path fill-rule="evenodd" clip-rule="evenodd" d="M34.3625 13.0002C35.0787 13.0002 35.7938 13.1011 36.4736 13.3291C40.6631 14.6901 42.1727 19.2835 40.9116 23.2985C40.1966 25.3502 39.0275 27.2228 37.4963 28.7528C35.3046 30.8737 32.8994 32.7564 30.3104 34.3783L30.0266 34.5495L29.7315 34.3669C27.1334 32.7564 24.7146 30.8737 22.5024 28.7414C20.9815 27.2114 19.8113 25.3502 19.0848 23.2985C17.8022 19.2835 19.3118 14.6901 23.5467 13.3053C23.8758 13.1919 24.2152 13.1125 24.5557 13.0682L24.8849 13C25.2095 13 25.3076 13.0001 25.3916 13.0001C25.4544 13.0001 25.5093 13.0002 25.6454 13.0002H25.7702C26.4853 13.0217 27.1777 13.1465 27.8485 13.3745H27.9154C27.9608 13.396 27.9949 13.4198 28.0176 13.4414C28.2684 13.5219 28.5057 13.6126 28.7327 13.7374L29.164 13.9302C29.2682 13.9857 29.3852 14.0706 29.4863 14.144C29.5504 14.1904 29.608 14.2323 29.6521 14.2591C29.6706 14.27 29.6894 14.281 29.7084 14.2921C29.8057 14.3489 29.9071 14.408 29.9926 14.4735C31.2536 13.5106 32.7848 12.9888 34.3625 13.0002ZM30.6346 18.9366C30.4643 18.7665 30.2334 18.6709 29.9925 18.6709C29.7517 18.6709 29.5208 18.7665 29.3505 18.9366C29.1802 19.1068 29.0845 19.3376 29.0845 19.5782V22.3003H26.3604C26.1196 22.3003 25.8886 22.3958 25.7183 22.566C25.5481 22.7362 25.4524 22.967 25.4524 23.2076C25.4524 23.4482 25.5481 23.679 25.7183 23.8492C25.8886 24.0193 26.1196 24.1149 26.3604 24.1149H29.0845V26.837C29.0845 27.0776 29.1802 27.3084 29.3505 27.4785C29.5208 27.6487 29.7517 27.7443 29.9925 27.7443C30.2334 27.7443 30.4643 27.6487 30.6346 27.4785C30.8049 27.3084 30.9006 27.0776 30.9006 26.837V24.1149H33.6247C33.8655 24.1149 34.0965 24.0193 34.2668 23.8492C34.437 23.679 34.5327 23.4482 34.5327 23.2076C34.5327 22.967 34.437 22.7362 34.2668 22.566C34.0965 22.3958 33.8655 22.3003 33.6247 22.3003H30.9006V19.5782C30.9006 19.3376 30.8049 19.1068 30.6346 18.9366Z" fill="white"/>
<defs>
<linearGradient id="paint0_linear_2353_9377" x1="60" y1="60" x2="-11.3946" y2="39.2998" gradientUnits="userSpaceOnUse">
<stop stop-color="#246BFD"/>
<stop offset="1" stop-color="#5089FF"/>
</linearGradient>
</defs>
</svg>
