<svg width="20" height="21" viewBox="0 0 20 21" fill="none" xmlns="http://www.w3.org/2000/svg">
<path fill-rule="evenodd" clip-rule="evenodd" d="M14.1162 2.69995C15.2337 2.69995 16.3087 3.14162 17.0995 3.93412C17.8912 4.72495 18.3337 5.79162 18.3337 6.90828V13.4916C18.3337 15.8166 16.442 17.7 14.1162 17.7H5.88366C3.55783 17.7 1.66699 15.8166 1.66699 13.4916V6.90828C1.66699 4.58328 3.54949 2.69995 5.88366 2.69995H14.1162ZM15.442 8.14995L15.5087 8.08329C15.7078 7.84162 15.7078 7.49162 15.4995 7.24995C15.3837 7.12579 15.2245 7.04995 15.0587 7.03329C14.8837 7.02412 14.717 7.08329 14.5912 7.19995L10.8337 10.2C10.3503 10.6008 9.65783 10.6008 9.16699 10.2L5.41699 7.19995C5.15783 7.00829 4.79949 7.03329 4.58366 7.25829C4.35866 7.48328 4.33366 7.84162 4.52449 8.09162L4.63366 8.19995L8.42533 11.1583C8.89199 11.525 9.45783 11.725 10.0503 11.725C10.6412 11.725 11.217 11.525 11.6828 11.1583L15.442 8.14995Z" fill="#9E9E9E"/>
</svg>
