<svg width="25" height="24" viewBox="0 0 25 24" fill="none" xmlns="http://www.w3.org/2000/svg">
<path fill-rule="evenodd" clip-rule="evenodd" d="M16.1195 11.2866C16.8623 11.2892 17.5914 11.0862 18.226 10.7C18.8698 11.0854 19.6082 11.284 20.3585 11.2737L22.7696 10.4823C23.4483 9.97668 23.915 9.27536 24.09 8.49692C24.2648 7.71476 24.137 6.89542 23.7322 6.2037C23.3258 5.49914 22.6627 4.94172 21.8557 4.62541C21.671 3.8716 21.2069 3.19685 20.5393 2.71397L18.1865 1.97117H17.9207C17.3976 1.28152 16.6121 0.789562 15.7131 0.589278L10.6684 0.333252C9.82964 0.396124 9.03888 0.711781 8.42377 1.22967C8.13181 1.16754 7.83427 1.13539 7.53578 1.13374C6.81994 1.133 6.11674 1.32222 5.49794 1.68209C4.8919 2.03858 4.41226 2.54609 4.11864 3.14306L2.20136 4.36809C1.73053 4.93433 1.47156 5.64684 1.46893 6.38324C1.4644 6.68659 1.50912 6.98863 1.60116 7.28031C1.09883 7.86949 0.827896 8.59284 0.833081 9.33694C0.831785 10.199 1.1967 11.0293 1.8533 11.6567C1.9058 12.2738 2.14497 12.8669 2.54424 13.3705C2.95793 13.8848 3.50113 14.2797 4.11799 14.5145C4.83076 14.9133 5.44567 15.466 5.91795 16.1323C6.37131 16.7735 6.66264 17.515 6.76705 18.2933H8.53006V13.2739L6.81696 11.752L5.65868 12.9109C5.53706 13.0325 5.37214 13.1007 5.2002 13.1007C5.02826 13.1006 4.86339 13.0322 4.74185 12.9106C4.62032 12.789 4.55207 12.6241 4.55213 12.4521C4.55219 12.2802 4.62055 12.1153 4.74218 11.9938L6.09296 10.6436L5.68137 8.3796L3.84965 7.46374C3.69588 7.38681 3.57897 7.25195 3.52464 7.08882C3.4703 6.9257 3.48299 6.74767 3.55992 6.5939C3.63685 6.44013 3.77171 6.32322 3.93483 6.26888C4.09796 6.21455 4.27599 6.22724 4.42976 6.30417L6.22324 7.20123L8.46654 5.77332L7.7756 3.92993C7.7189 3.76988 7.72726 3.59397 7.7989 3.44002C7.87054 3.28607 7.99973 3.16638 8.15869 3.10669C8.31765 3.04699 8.49368 3.05206 8.64895 3.1208C8.80421 3.18954 8.9263 3.31646 8.98897 3.47427L9.72658 5.44081H10.6334L11.0547 4.59949L10.4383 3.16185C10.3734 3.00439 10.3731 2.82772 10.4375 2.67004C10.5018 2.51236 10.6256 2.38634 10.7822 2.31924C10.9387 2.25213 11.1153 2.24932 11.2739 2.31142C11.4325 2.37352 11.5603 2.49554 11.6296 2.6511L12.165 3.90012L14.3039 4.28902C14.3158 4.27773 14.3281 4.26692 14.3409 4.25661L15.667 3.19621C15.8015 3.0916 15.9717 3.04412 16.1408 3.06403C16.31 3.08394 16.4645 3.16965 16.571 3.30261C16.6775 3.43557 16.7273 3.6051 16.7098 3.77453C16.6922 3.94396 16.6087 4.09968 16.4772 4.20799L15.5231 4.97154L16.6438 6.41241L17.0833 5.5335C17.1371 5.42585 17.2198 5.3353 17.3221 5.27199C17.4245 5.20869 17.5424 5.17512 17.6627 5.17506H19.254C19.4259 5.17506 19.5908 5.24335 19.7123 5.3649C19.8339 5.48646 19.9022 5.65132 19.9022 5.82323C19.9022 5.99513 19.8339 6.16 19.7123 6.28155C19.5908 6.40311 19.4259 6.47139 19.254 6.47139H18.0633L17.7917 7.01521L19.1295 7.31207C19.1814 7.32373 19.2313 7.34188 19.2786 7.36522L20.339 7.89542C20.4152 7.93347 20.4831 7.98615 20.539 8.05045C20.5948 8.11476 20.6374 8.18943 20.6644 8.2702C20.6913 8.35097 20.7021 8.43626 20.6961 8.5212C20.6901 8.60615 20.6674 8.68908 20.6294 8.76526C20.5914 8.84144 20.5387 8.90938 20.4744 8.9652C20.4101 9.02102 20.3354 9.06363 20.2546 9.0906C20.0915 9.14505 19.9134 9.13248 19.7596 9.05564L18.7705 8.56044L16.4617 8.04774C16.3145 8.01483 16.1834 7.93163 16.0909 7.81245L14.3863 5.62165L12.2713 5.23728C12.2307 5.27515 12.1854 5.30761 12.1365 5.33386L11.6821 6.24194V6.76631H12.6245C12.7253 6.76612 12.8247 6.78942 12.9149 6.83437L15.0364 7.89542C15.1125 7.93351 15.1804 7.98622 15.2362 8.05055C15.2919 8.11488 15.3345 8.18956 15.3614 8.27033C15.3883 8.3511 15.399 8.43638 15.393 8.5213C15.3869 8.60622 15.3642 8.68912 15.3261 8.76526C15.288 8.8414 15.2353 8.90929 15.171 8.96505C15.1066 9.02082 15.032 9.06337 14.9512 9.09027C14.8704 9.11718 14.7851 9.12791 14.7002 9.12185C14.6153 9.1158 14.5324 9.09308 14.4563 9.05499L12.4716 8.06264H11.6821V9.27083C11.6821 9.44273 11.6138 9.6076 11.4923 9.72915C11.3707 9.85071 11.2058 9.91899 11.0339 9.91899C10.862 9.91899 10.6972 9.85071 10.5756 9.72915C10.4541 9.6076 10.3858 9.44273 10.3858 9.27083V6.73714H9.36685L6.97641 8.25774L7.38929 10.5263L9.60861 12.4987C9.67692 12.5595 9.73158 12.6341 9.769 12.7176C9.80642 12.801 9.82577 12.8914 9.82575 12.9829V18.2933H11.7171V14.7057C11.7186 14.0613 11.9167 13.4327 12.2849 12.9038C12.6718 12.3504 13.2041 11.9146 13.823 11.6444C14.1795 11.5213 14.2663 11.356 14.3739 11.1531C14.4452 11.0183 14.5256 10.8666 14.7 10.6994C14.851 10.7934 14.9683 10.8757 15.0701 10.9476C15.3857 11.17 15.5517 11.2873 16.1201 11.2873L16.1195 11.2866ZM11.8519 21.0934H6.66658V19.7971H11.8519V21.0934ZM11.8519 23.6861H6.66658V22.3897H11.8519V23.6861Z" fill="url(#paint0_linear_3060_7897)"/>
<defs>
<linearGradient id="paint0_linear_3060_7897" x1="24.1663" y1="23.6861" x2="-3.60182" y2="15.6417" gradientUnits="userSpaceOnUse">
<stop stop-color="#246BFD"/>
<stop offset="1" stop-color="#5089FF"/>
</linearGradient>
</defs>
</svg>
