<svg width="23" height="20" viewBox="0 0 23 20" fill="none" xmlns="http://www.w3.org/2000/svg">
<path fill-rule="evenodd" clip-rule="evenodd" d="M1.18938 6.02365C0.534881 5.42456 0.0880474 4.45273 0.00054735 2.88298C-0.0028373 2.80672 0.00950291 2.73058 0.0368007 2.65929C0.0640985 2.58801 0.10577 2.5231 0.159224 2.46861C0.212678 2.41411 0.276772 2.3712 0.347519 2.34253C0.418266 2.31387 0.494154 2.30006 0.570464 2.30198C1.54755 2.31948 2.29596 2.38598 2.86763 2.55456C3.11263 1.91931 3.60088 1.32023 4.33296 0.772479C4.42496 0.703834 4.53668 0.666748 4.65146 0.666748C4.76625 0.666748 4.87797 0.703834 4.96996 0.772479C5.70846 1.32431 6.19846 1.92923 6.44171 2.57031C7.0303 2.37198 7.78455 2.31481 8.73421 2.30081C8.81048 2.29913 8.88628 2.31315 8.9569 2.34199C9.02752 2.37084 9.09146 2.4139 9.14474 2.46849C9.19803 2.52309 9.23951 2.58805 9.26663 2.65935C9.29375 2.73066 9.30592 2.80678 9.30238 2.88298C9.21488 4.45273 8.76805 5.42456 8.11355 6.02306C8.43321 6.26165 8.61871 6.66065 8.55105 7.0929C8.30777 8.61478 8.01419 10.1282 7.6708 11.6306H4.06813V12.7973H7.39605C6.90726 14.8064 6.33155 16.7934 5.67055 18.7526C5.60343 18.9704 5.46825 19.1611 5.28484 19.2965C5.10143 19.4319 4.87945 19.505 4.65146 19.505C4.42348 19.505 4.20149 19.4319 4.01808 19.2965C3.83467 19.1611 3.6995 18.9704 3.63238 18.7526C3.35706 17.9392 3.09724 17.1206 2.85305 16.2973H4.06813V15.1306H2.51705C1.96521 13.1526 1.55455 11.3565 1.25646 9.88065H3.4848V8.71398H1.03071C0.914048 8.08106 0.822464 7.53565 0.752464 7.09231C0.720203 6.89124 0.743904 6.68517 0.82097 6.49667C0.898036 6.30817 1.02549 6.14452 1.18938 6.02365ZM5.35088 2.9839L5.74871 4.0339L6.8133 3.67573C7.10671 3.57715 7.50396 3.51823 8.0698 3.48906C7.89655 4.61606 7.47946 5.09206 7.09855 5.33823C6.55546 5.6894 5.76388 5.79615 4.66896 5.79731H4.63396C3.53905 5.79615 2.74746 5.6894 2.20438 5.33765C1.82405 5.09206 1.40755 4.61665 1.23371 3.49198C1.81763 3.52406 2.23296 3.58356 2.53746 3.6734L3.5688 3.9779L3.95613 2.97456C4.06696 2.68581 4.28221 2.36206 4.65146 2.0214C5.0248 2.36556 5.24063 2.69281 5.35088 2.9839ZM16.7305 3.8764C15.5796 5.02731 15.4676 6.63381 16.1145 8.1464C18.946 6.29315 22.1515 8.58565 22.1515 12.214C22.1515 15.4357 19.2785 18.0473 15.7348 18.0473C12.191 18.0473 9.31813 15.4357 9.31813 12.214C9.31813 8.83531 12.0977 6.61398 14.7665 7.82148C14.3109 6.18815 14.5465 4.41015 15.9057 3.05156L16.7305 3.8764ZM20.384 13.5218C20.404 13.447 20.409 13.369 20.3986 13.2922C20.3882 13.2155 20.3626 13.1416 20.3233 13.0748C20.284 13.0081 20.2319 12.9498 20.1698 12.9035C20.1078 12.8571 20.0372 12.8235 19.962 12.8047C19.8869 12.786 19.8088 12.7823 19.7322 12.794C19.6557 12.8058 19.5822 12.8326 19.5162 12.873C19.4501 12.9135 19.3927 12.9666 19.3474 13.0294C19.3021 13.0922 19.2698 13.1635 19.2523 13.2389C19.1413 13.7023 18.9041 14.126 18.5671 14.463C18.2302 14.8 17.8065 15.0371 17.343 15.1481C17.1939 15.1866 17.0661 15.2825 16.9874 15.4149C16.9087 15.5472 16.8856 15.7053 16.923 15.8547C16.9604 16.0041 17.0554 16.1326 17.1872 16.2122C17.319 16.2919 17.4769 16.3162 17.6265 16.2798C18.2949 16.1174 18.9057 15.7742 19.392 15.2879C19.8784 14.8015 20.2216 14.1908 20.384 13.5224V13.5218Z" fill="url(#paint0_linear_3060_8258)"/>
<path d="M16.9014 6.38053C18.6514 6.38053 19.818 5.21387 19.818 3.46387C18.068 3.46387 16.9014 4.63053 16.9014 6.38053Z" fill="#212121"/>
<defs>
<linearGradient id="paint0_linear_3060_8258" x1="22.1515" y1="19.505" x2="-3.44712" y2="10.7775" gradientUnits="userSpaceOnUse">
<stop stop-color="#246BFD"/>
<stop offset="1" stop-color="#5089FF"/>
</linearGradient>
</defs>
</svg>
