<svg width="340" height="252" viewBox="0 0 340 252" fill="none" xmlns="http://www.w3.org/2000/svg">
<g clip-path="url(#clip0_1231_19471)">
<path opacity="0.1" d="M22.2531 98.4814H51.8034V138.762H24.4138C24.3439 139.179 24.274 139.592 24.1954 140.008H51.8034V172.488C51.7568 172.488 51.7102 172.453 51.6665 172.436C50.89 172.127 50.1135 171.8 49.337 171.454C49.171 171.379 49.0079 171.3 48.839 171.227C48.0625 170.86 47.286 170.472 46.5095 170.063C46.2387 169.92 45.9679 169.771 45.7029 169.62C41.392 167.214 37.4739 164.164 34.0843 160.575C33.9824 160.479 33.8892 160.375 33.7931 160.284C33.3214 159.772 32.8584 159.253 32.4099 158.723C32.241 158.528 32.078 158.33 31.912 158.141C31.382 157.495 30.8695 156.825 30.3745 156.152C30.2988 156.05 30.2289 155.951 30.1561 155.861C28.1282 153.055 26.4465 150.014 25.1476 146.805C25.1068 146.709 25.0689 146.604 25.0311 146.514C24.6292 145.495 24.2653 144.461 23.9508 143.407C23.8168 142.967 23.6858 142.533 23.5751 142.076C23.5344 141.945 23.5023 141.811 23.4674 141.68C21.8309 135.23 21.6416 128.527 21.6416 121.856C21.6416 121.079 21.6416 120.302 21.6416 119.526C21.6649 116.802 21.6969 114.082 21.7377 111.364C21.7532 110.665 21.7678 109.963 21.7814 109.258C21.8221 107.474 21.8804 105.687 21.9561 103.895C21.9736 103.4 21.9969 102.902 22.0231 102.41C22.0347 102.124 22.0493 101.839 22.0667 101.554C22.1192 100.523 22.1813 99.4987 22.2531 98.4814Z" fill="#246BFD"/>
<path opacity="0.1" d="M22.2531 98.4814H51.8034V138.762H24.4138C24.3439 139.179 24.274 139.592 24.1954 140.008H51.8034V172.488C51.7568 172.488 51.7102 172.453 51.6665 172.436C50.89 172.127 50.1135 171.8 49.337 171.454C49.171 171.379 49.0079 171.3 48.839 171.227C48.0625 170.86 47.286 170.472 46.5095 170.063C46.2387 169.92 45.9679 169.771 45.7029 169.62C41.392 167.214 37.4739 164.164 34.0843 160.575C33.9824 160.479 33.8892 160.375 33.7931 160.284C33.3214 159.772 32.8584 159.253 32.4099 158.723C32.241 158.528 32.078 158.33 31.912 158.141C31.382 157.495 30.8695 156.825 30.3745 156.152C30.2988 156.05 30.2289 155.951 30.1561 155.861C28.1282 153.055 26.4465 150.014 25.1476 146.805C25.1068 146.709 25.0689 146.604 25.0311 146.514C24.6292 145.495 24.2653 144.461 23.9508 143.407C23.8168 142.967 23.6858 142.533 23.5751 142.076C23.5344 141.945 23.5023 141.811 23.4674 141.68C21.8309 135.23 21.6416 128.527 21.6416 121.856C21.6416 121.079 21.6416 120.302 21.6416 119.526C21.6649 116.802 21.6969 114.082 21.7377 111.364C21.7532 110.665 21.7678 109.963 21.7814 109.258C21.8221 107.474 21.8804 105.687 21.9561 103.895C21.9736 103.4 21.9969 102.902 22.0231 102.41C22.0347 102.124 22.0493 101.839 22.0667 101.554C22.1192 100.523 22.1813 99.4987 22.2531 98.4814Z" fill="#246BFD"/>
<path opacity="0.1" d="M51.8028 54.8726V97.2353H22.3457C22.3457 97.113 22.3632 96.9878 22.3748 96.8655C22.401 96.5306 22.4272 96.1987 22.4564 95.8638C22.4855 95.4736 22.5233 95.0834 22.5612 94.699C22.599 94.3147 22.6369 93.8488 22.6835 93.4265C22.7301 93.0043 22.7679 92.5762 22.8145 92.154C22.8611 91.7318 22.9077 91.3096 22.9601 90.8902C23.0125 90.4709 23.0591 90.0458 23.1174 89.6265C23.161 89.2799 23.2047 88.9305 23.2542 88.5811C23.3212 88.089 23.3911 87.5968 23.4639 87.1076C23.4639 87.0319 23.4872 86.9591 23.4988 86.8863C24.031 83.3055 24.7542 79.7556 25.6653 76.252C26.6221 72.5772 27.8434 68.9764 29.3198 65.4778C30.8885 61.8121 32.7261 58.2674 34.8175 54.8726H51.8028Z" fill="#246BFD"/>
<path opacity="0.1" d="M51.8028 76.2432V97.2353H22.3457C22.3457 97.113 22.3632 96.9878 22.3748 96.8655C22.401 96.5306 22.4272 96.1986 22.4564 95.8638C22.4855 95.4736 22.5233 95.0834 22.5612 94.699C22.599 94.3146 22.6369 93.8487 22.6835 93.4265C22.7301 93.0042 22.7679 92.5762 22.8145 92.154C22.8611 91.7317 22.9077 91.3095 22.9601 90.8902C23.0125 90.4709 23.0591 90.0457 23.1174 89.6264C23.161 89.2799 23.2047 88.9304 23.2542 88.581C23.3212 88.0889 23.3911 87.5968 23.4639 87.1076C23.4639 87.0319 23.4872 86.9591 23.4988 86.8863C24.031 83.3054 24.7542 79.7556 25.6653 76.2519L51.8028 76.2432Z" fill="#246BFD"/>
<path opacity="0.1" d="M51.8035 53.6319H35.5928C38.2291 49.5101 41.1083 45.5487 44.215 41.7687C46.6261 38.8102 49.1653 35.9274 51.8035 33.1494V53.6319Z" fill="#246BFD"/>
<path opacity="0.1" d="M58.8613 98.4816V138.762H121.98V98.4816H58.8613ZM58.8613 140.009V174.602C59.2224 174.675 59.5777 174.748 59.9358 174.809C60.4163 174.902 60.8997 174.987 61.3918 175.06L61.683 175.1C61.8752 175.132 62.0703 175.159 62.2654 175.182C62.7517 175.252 63.238 175.304 63.7213 175.351C63.9485 175.374 64.1843 175.391 64.4144 175.412L64.9764 175.453C65.2821 175.476 65.585 175.493 65.8878 175.505C66.0742 175.505 66.2605 175.52 66.4498 175.525C66.6391 175.531 66.741 175.525 66.8924 175.525H67.4428C67.6932 175.525 67.9436 175.525 68.1912 175.525H68.5115C68.7619 175.525 69.0123 175.525 69.2598 175.502H69.2744C69.4491 175.502 69.6209 175.502 69.7956 175.482C69.8451 175.485 69.8947 175.485 69.9441 175.482C70.0897 175.482 70.2353 175.482 70.3751 175.464C70.4081 175.462 70.4412 175.462 70.4741 175.464C70.7973 175.444 71.1235 175.418 71.4525 175.389C71.7816 175.359 72.0931 175.325 72.4222 175.29L73.0832 175.208C75.7843 174.83 78.4553 174.262 81.0765 173.507C86.9673 171.865 92.7242 169.568 98.6121 167.887C106.218 165.718 114.628 164.649 121.977 167.29V140.009H58.8613ZM121.98 53.632V0.0058851C115.071 -0.0701372 108.18 0.737183 101.475 2.40823C85.4909 6.42378 71.138 15.1334 58.8613 26.2569V53.6291H62.0382V54.8725H58.8613V97.2353H121.98V54.8725H75.0342V53.6262L121.98 53.632ZM203.072 35.5169C199.117 35.3771 195.186 34.1279 191.628 32.1915C184.831 28.4962 179.398 22.783 173.329 17.9667C160.721 7.92925 145.084 1.86952 129.042 0.366965V53.632H219.14L219.364 53.3961L203.072 35.5169ZM211.281 34.0609L219.984 43.615V31.5479C217.055 31.9177 214.504 32.7768 211.281 34.0493V34.0609ZM219.984 183.193V140.009H201.424C201.377 139.825 201.325 139.639 201.266 139.452C201.322 139.639 201.371 139.825 201.421 140.009H129.042V171.236C129.729 171.746 130.407 172.284 131.08 172.826C131.806 173.42 132.527 174.021 133.244 174.629L133.966 175.226C134.312 175.517 134.665 175.808 135.014 176.085C135.715 176.649 136.421 177.209 137.131 177.762C137.486 178.041 137.844 178.316 138.203 178.586C143.89 182.933 149.89 186.856 156.152 190.324C157.555 191.107 158.974 191.861 160.4 192.598C161.35 193.087 162.306 193.567 163.269 194.037C164.713 194.741 166.169 195.421 167.637 196.075C181.167 202.149 195.475 206.316 210.151 208.456C213.408 208.936 216.68 209.315 219.967 209.592V183.187H220.258L219.984 183.193ZM129.042 54.8725V97.2353H219.984V54.8725H129.042ZM129.042 98.4758V138.762H219.984V98.4816L129.042 98.4758ZM227.043 31.4897V44.9719L238.149 32.7797C234.468 32.1721 230.766 31.7421 227.043 31.4897ZM227.043 98.4816V138.762H315.493V98.4816H227.043ZM315.181 186.387L315.493 140.009H227.043V210.061C232.74 210.298 238.446 210.229 244.136 209.854H244.235C246.953 209.679 249.658 209.431 252.35 209.109H252.412C266.781 207.436 280.83 203.683 294.119 197.968M332.557 105.097C332.221 104.321 331.876 103.544 331.523 102.768C330.865 101.312 330.172 99.8968 329.455 98.4845H322.554V138.762H340C339.985 127.353 337.096 115.706 332.557 105.097ZM305.179 221.298V261.192C310.091 256.483 314.246 251.093 317.234 244.931C320.83 237.509 322.476 229.478 322.612 221.295L305.179 221.298ZM305.179 168.033V178.516H311.434C319.599 164.846 324.807 149.616 326.723 133.809C328.638 118.001 327.218 101.968 322.554 86.7436L305.179 168.033ZM245.193 120.685C244.733 120.507 244.27 120.33 243.807 120.161C238.925 118.357 233.936 116.857 228.869 115.671L211.869 134.325L211.537 134.683L211.755 134.919H272.259C281.413 103.014 277.943 68.8114 262.568 39.3956L245.193 120.685ZM291.411 54.8725H228.283L227.043 56.0052V97.2353H237.919H315.493V77.2594C308.478 68.7768 300.382 61.2504 291.411 54.8725Z" fill="#246BFD"/>
<path opacity="0.1" d="M256.084 251.262C271.754 251.262 284.458 249.221 284.458 246.705C284.458 244.188 271.754 242.147 256.084 242.147C240.413 242.147 227.71 244.188 227.71 246.705C227.71 249.221 240.413 251.262 256.084 251.262Z" fill="#246BFD"/>
<path opacity="0.1" d="M128.116 246.705C143.786 246.705 156.49 244.664 156.49 242.148C156.49 239.631 143.786 237.59 128.116 237.59C112.446 237.59 99.7422 239.631 99.7422 242.148C99.7422 244.664 112.446 246.705 128.116 246.705Z" fill="#246BFD"/>
<path opacity="0.1" d="M323.778 140.009H339.988C339.849 148.188 338.206 156.222 334.61 163.642C331.622 169.806 327.467 175.196 322.555 179.905V154.28H323.778V140.009Z" fill="#246BFD"/>
<path opacity="0.1" d="M58.8613 140.009H81.0794V173.496C78.4585 174.25 75.7874 174.818 73.0861 175.193C72.8648 175.225 72.6464 175.252 72.4251 175.275C72.099 175.313 71.7757 175.348 71.4525 175.377L70.477 175.455H70.378L69.9471 175.479H69.7985C69.6238 175.479 69.452 175.499 69.2773 175.502H69.2627C69.0123 175.502 68.7648 175.52 68.5144 175.525H68.1941C67.9466 175.525 67.699 175.525 67.4457 175.525H66.8983H66.4527C66.2635 175.525 66.0771 175.525 65.8878 175.502C65.5889 175.49 65.286 175.473 64.9793 175.45L64.4173 175.409C64.1843 175.391 63.9514 175.368 63.7213 175.345C63.2321 175.302 62.7468 175.247 62.2654 175.179L61.683 175.097L61.3918 175.057C60.9055 174.984 60.4221 174.902 59.9358 174.809C59.5748 174.745 59.2195 174.672 58.8613 174.596V140.009Z" fill="#246BFD"/>
<path opacity="0.1" d="M220.273 183.201C220.177 183.201 220.081 183.201 219.982 183.184V209.61C216.699 209.34 213.428 208.962 210.168 208.477C195.487 206.337 181.174 202.172 167.637 196.101C163.729 194.338 159.901 192.418 156.152 190.338C149.892 186.869 143.894 182.946 138.206 178.6C136.773 177.506 135.362 176.386 133.972 175.243C133.008 174.445 132.053 173.63 131.08 172.841C130.411 172.296 129.732 171.757 129.042 171.245V140.009H201.421C201.369 139.822 201.322 139.639 201.27 139.452C201.325 139.639 201.377 139.822 201.424 140.009H219.985V183.181C220.081 183.184 220.177 183.193 220.273 183.201Z" fill="#246BFD"/>
<path opacity="0.1" d="M219.985 199.785V209.61C216.7 209.34 213.428 208.962 210.169 208.477V199.785H219.985Z" fill="#246BFD"/>
<path opacity="0.1" d="M171.111 190.327V196.101H167.637C163.729 194.338 159.901 192.417 156.152 190.338L171.111 190.327Z" fill="#246BFD"/>
<path opacity="0.1" d="M219.985 183.181C220.081 183.181 220.177 183.181 220.276 183.201C220.18 183.201 220.084 183.201 219.985 183.184V186.139H210.169V173.417H219.985V183.181Z" fill="#246BFD"/>
<path opacity="0.1" d="M171.111 172.829V178.589H138.207C136.774 177.498 135.363 176.378 133.973 175.228C133.006 174.433 132.051 173.618 131.081 172.829H171.111Z" fill="#246BFD"/>
<path opacity="0.1" d="M73.1067 159.976H64.8252V168.257H73.1067V159.976Z" fill="#246BFD"/>
<path opacity="0.1" d="M171.111 155.328H129.042V161.088H171.111V155.328Z" fill="#246BFD"/>
<path opacity="0.1" d="M219.985 147.047H210.169V159.769H219.985V147.047Z" fill="#246BFD"/>
<path opacity="0.1" d="M73.1067 140.74H64.8252V149.021H73.1067V140.74Z" fill="#246BFD"/>
<path opacity="0.1" d="M171.111 140.006H129.042V143.587H171.111V140.006Z" fill="#246BFD"/>
<path opacity="0.1" d="M340 138.762H323.777V105.097H332.557C337.097 115.706 339.985 127.353 340 138.762Z" fill="#246BFD"/>
<path opacity="0.1" d="M227.043 98.4814V138.762H296.539V98.4814H227.043ZM315.394 186.174L315.493 154.289H296.539V140.02H227.043V210.061C232.74 210.298 238.446 210.229 244.136 209.854H244.235C246.953 209.679 249.658 209.431 252.351 209.109H252.412C266.781 207.436 280.83 203.683 294.119 197.968" fill="#246BFD"/>
<path opacity="0.1" d="M244.137 209.854V204.514H252.415V209.094L244.137 209.854Z" fill="#246BFD"/>
<path opacity="0.1" d="M284.033 184.089H275.751V192.371H284.033V184.089Z" fill="#246BFD"/>
<path opacity="0.1" d="M252.418 184.089H244.137V192.371H252.418V184.089Z" fill="#246BFD"/>
<path opacity="0.1" d="M45.7119 169.62C45.9798 169.772 46.2506 169.911 46.5214 170.06V169.914H48.851V171.228C49.0199 171.3 49.18 171.379 49.346 171.455V169.914H51.6756V172.436C51.7198 172.456 51.7656 172.472 51.8124 172.485V169.62H45.7119Z" fill="#246BFD"/>
<path opacity="0.1" d="M284.033 163.662H275.751V171.944H284.033V163.662Z" fill="#246BFD"/>
<path opacity="0.1" d="M252.418 163.662H244.137V171.944H252.418V163.662Z" fill="#246BFD"/>
<path opacity="0.1" d="M30.165 155.829C30.2407 155.922 30.3106 156.027 30.3834 156.12H31.9238V158.109L32.4218 158.692V156.109H34.7513V160.284H33.7933C33.8865 160.38 33.9768 160.482 34.0845 160.576H51.7978V155.829H30.165ZM37.5788 160.284H35.2493V156.126H37.5788V160.284ZM40.4005 160.284H38.0709V156.126H40.4005V160.284ZM43.2221 160.284H40.8926V156.126H43.2221V160.284ZM46.0409 160.284H43.7113V156.126H46.0409V160.284ZM48.8596 160.284H46.5301V156.126H48.8596V160.284ZM51.6813 160.284H49.3518V156.126H51.6813V160.284Z" fill="#246BFD"/>
<path opacity="0.1" d="M284.033 143.235H275.751V151.517H284.033V143.235Z" fill="#246BFD"/>
<path opacity="0.1" d="M252.418 143.235H244.137V151.517H252.418V143.235Z" fill="#246BFD"/>
<path opacity="0.1" d="M23.6016 142.038C23.7122 142.487 23.8433 142.929 23.9772 143.369V142.338H26.3067V146.476H25.0575C25.0925 146.575 25.1303 146.677 25.1711 146.767H51.8153V142.038H23.6016ZM29.1342 146.476H26.8047V142.338H29.1342V146.476ZM31.9501 146.476H29.6205V142.338H31.9501V146.476ZM34.7717 146.476H32.4422V142.338H34.7717V146.476ZM37.5905 146.476H35.2609V142.338H37.5905V146.476ZM40.4121 146.476H38.0826V142.338H40.4121V146.476ZM43.2338 146.476H40.9043V142.338H43.2338V146.476ZM46.0526 146.476H43.723V142.338H46.0526V146.476ZM48.8713 146.476H46.5418V142.338H48.8713V146.476ZM51.693 146.476H49.3634V142.338H51.693V146.476Z" fill="#246BFD"/>
<path opacity="0.1" d="M219.985 98.4785V138.762H129.042V121.387H177.482V131.637H201.66V98.4785H219.985Z" fill="#246BFD"/>
<path opacity="0.1" d="M171.111 137.828H129.042V138.762H171.111V137.828Z" fill="#246BFD"/>
<path opacity="0.1" d="M23.4639 128.253V132.988H51.8028V128.253H23.4639ZM26.2855 132.691H23.956V128.544H26.2855V132.691ZM29.1072 132.691H26.7776V128.544H29.1072V132.691ZM31.923 132.691H29.5935V128.544H31.923V132.691ZM34.7447 132.691H32.4151V128.544H34.7447V132.691ZM37.5634 132.691H35.2339V128.544H37.5634V132.691ZM40.3851 132.691H38.0556V128.544H40.3851V132.691ZM43.2068 132.691H40.8772V128.544H43.2068V132.691ZM46.0255 132.691H43.696V128.544H46.0255V132.691ZM48.8443 132.691H46.5147V128.544H48.8443V132.691ZM51.6659 132.691H49.3364V128.544H51.6659V132.691Z" fill="#246BFD"/>
<path opacity="0.1" d="M284.033 122.811H275.751V131.092H284.033V122.811Z" fill="#246BFD"/>
<path opacity="0.1" d="M252.418 122.811H244.137V131.092H252.418V122.811Z" fill="#246BFD"/>
<path opacity="0.1" d="M219.985 120.676H210.169V133.398H219.985V120.676Z" fill="#246BFD"/>
<path opacity="0.1" d="M252.418 102.384H244.137V110.665H252.418V102.384Z" fill="#246BFD"/>
<path opacity="0.1" d="M219.985 98.4785H210.169V107.025H219.985V98.4785Z" fill="#246BFD"/>
<path opacity="0.1" d="M81.0764 98.4785H58.8584V138.759H81.0764V98.4785Z" fill="#246BFD"/>
<path opacity="0.1" d="M73.1067 121.503H64.8252V129.785H73.1067V121.503Z" fill="#246BFD"/>
<path opacity="0.1" d="M23.4639 114.462V119.197H51.8028V114.462H23.4639ZM26.2855 118.897H23.956V114.756H26.2855V118.897ZM29.1072 118.897H26.7776V114.756H29.1072V118.897ZM31.923 118.897H29.5935V114.756H31.923V118.897ZM34.7447 118.897H32.4151V114.756H34.7447V118.897ZM37.5634 118.897H35.2339V114.756H37.5634V118.897ZM40.3851 118.897H38.0556V114.756H40.3851V118.897ZM43.2068 118.897H40.8772V114.756H43.2068V118.897ZM46.0255 118.897H43.696V114.756H46.0255V118.897ZM48.8443 118.897H46.5147V114.756H48.8443V118.897ZM51.6659 118.897H49.3364V114.756H51.6659V118.897Z" fill="#246BFD"/>
<path opacity="0.1" d="M284.033 102.384H275.751V110.665H284.033V102.384Z" fill="#246BFD"/>
<path opacity="0.1" d="M73.1067 102.27H64.8252V110.552H73.1067V102.27Z" fill="#246BFD"/>
<path opacity="0.1" d="M23.4639 100.668V105.406H51.8028V100.668H23.4639ZM26.2855 105.109H23.956V100.968H26.2855V105.109ZM29.1072 105.109H26.7776V100.968H29.1072V105.109ZM31.923 105.109H29.5935V100.968H31.923V105.109ZM34.7447 105.109H32.4151V100.968H34.7447V105.109ZM37.5634 105.109H35.2339V100.968H37.5634V105.109ZM40.3851 105.109H38.0556V100.968H40.3851V105.109ZM43.2068 105.109H40.8772V100.968H43.2068V105.109ZM46.0255 105.109H43.696V100.968H46.0255V105.109ZM48.8443 105.109H46.5147V100.968H48.8443V105.109ZM51.6659 105.109H49.3364V100.968H51.6659V105.109Z" fill="#246BFD"/>
<path opacity="0.1" d="M219.982 56.6545H201.66V97.2323H219.982V56.6545Z" fill="#246BFD"/>
<path opacity="0.1" d="M219.985 94.3059H210.169V97.2353H219.985V94.3059Z" fill="#246BFD"/>
<path opacity="0.1" d="M23.4639 86.8774V91.6151H51.8028V86.8774H23.4639ZM26.2855 91.3181H23.956V87.1774H26.2855V91.3181ZM29.1072 91.3181H26.7776V87.1774H29.1072V91.3181ZM31.923 91.3181H29.5935V87.1774H31.923V91.3181ZM34.7447 91.3181H32.4151V87.1774H34.7447V91.3181ZM37.5634 91.3181H35.2339V87.1774H37.5634V91.3181ZM40.3851 91.3181H38.0556V87.1774H40.3851V91.3181ZM43.2068 91.3181H40.8772V87.1774H43.2068V91.3181ZM46.0255 91.3181H43.696V87.1774H46.0255V91.3181ZM48.8443 91.3181H46.5147V87.1774H48.8443V91.3181ZM51.6659 91.3181H49.3364V87.1774H51.6659V91.3181Z" fill="#246BFD"/>
<path opacity="0.1" d="M219.985 67.9353H210.169V80.6575H219.985V67.9353Z" fill="#246BFD"/>
<path opacity="0.1" d="M296.536 97.2353H237.919C237.925 97.2367 237.931 97.2367 237.936 97.2353H237.91H227.043V56.6576H230.124V86.6505H244.2V68.8877H255.833V54.8726H267.772V68.8964H279.399V86.6592H296.539L296.536 97.2353Z" fill="#246BFD"/>
<path opacity="0.1" d="M81.0793 60.9409V97.2353H58.8584V60.9409H62.0266V48.6526H75.0313V60.9409H81.0793Z" fill="#246BFD"/>
<path opacity="0.1" d="M73.1067 83.0337H64.8252V91.3152H73.1067V83.0337Z" fill="#246BFD"/>
<path opacity="0.1" d="M73.1067 63.7976H64.8252V72.0791H73.1067V63.7976Z" fill="#246BFD"/>
<path opacity="0.1" d="M219.982 183.181H220.273H219.982ZM201.267 139.452C201.323 139.639 201.372 139.825 201.422 140.009C201.378 139.825 201.325 139.639 201.267 139.452ZM62.0391 53.632V54.8725H75.0467V53.6262L62.0391 53.632ZM219.985 183.181H220.276H219.985ZM201.267 139.452C201.323 139.639 201.372 139.825 201.422 140.009C201.378 139.825 201.325 139.639 201.267 139.452ZM219.982 183.181H220.273H219.982ZM201.267 139.452C201.323 139.639 201.372 139.825 201.422 140.009C201.378 139.825 201.325 139.639 201.267 139.452Z" fill="#246BFD"/>
<path d="M160.782 121.646C160.775 121.617 160.76 121.591 160.739 121.57C160.305 121.142 154.772 113.318 154.772 113.318C154.772 113.318 154.481 112.444 154.009 111.309C154.16 111.113 154.274 110.891 154.344 110.653C154.369 110.553 154.388 110.451 154.399 110.348C154.399 110.316 154.423 110.289 154.431 110.257C154.533 109.862 154.522 109.447 154.402 109.058C154.37 109.158 154.33 109.255 154.283 109.349C154.173 109.01 154.027 108.683 153.846 108.376C153.112 107.112 152.064 106.047 151.292 104.815C150.124 102.901 149.659 100.64 149.979 98.4203C149.979 98.5339 149.979 98.6504 149.979 98.7639C150.008 98.3237 150.067 97.886 150.154 97.4536C150.275 96.9613 150.438 96.4802 150.64 96.0151C151.333 94.4281 152.454 93.0449 153.136 91.4521C153.364 90.9148 153.538 90.3558 153.654 89.7835C153.894 88.8278 153.981 87.8401 153.913 86.857C153.913 87.09 153.875 87.3229 153.84 87.553C153.767 85.1894 152.812 82.9388 151.164 81.2428C148.785 78.8521 145.369 77.9232 142.102 77.434C140.729 77.2738 139.418 76.7734 138.288 75.9781C137.033 75.1656 135.411 74.9705 133.943 75.1482C132.256 75.3305 130.689 76.1055 129.52 77.335C127.968 79.0414 127.295 81.4583 125.484 82.8968C124.386 83.7704 122.994 84.1781 121.716 84.7721C120.437 85.3661 119.229 86.2281 118.818 87.5035C118.818 87.5035 118.818 87.486 118.818 87.4773V87.5501L118.801 87.5967C118.376 89.105 119.197 90.6396 119.625 92.1451C120.071 93.703 120.1 95.3482 120.123 96.9585C120.155 98.927 120.184 100.898 120.152 102.87C120.138 103.644 120.111 104.428 120.053 105.199C119.364 105.408 118.694 105.677 118.053 106.003C117.4 106.428 114.96 109.063 114.96 109.063L110.188 127.298L110.252 127.371L110.188 127.618L110.429 127.563C111.105 128.291 113.123 130.364 115.301 131.657L115.505 135.233C115.505 135.233 115.749 138.82 119.049 140.303C119.124 141.546 119.36 146.595 118.268 148.596C117.512 150.057 117.156 151.693 117.237 153.336C117.237 153.336 117.619 156.371 117.185 157.966C116.931 159.033 116.913 160.142 117.13 161.216C117.13 161.216 117.13 161.568 117.13 162.174C117.13 165.403 117.167 175.752 117.13 176.923C117.074 178.306 117.13 198.763 117.13 198.763C117.13 198.763 116.859 208.986 115.991 211.756C115.123 214.525 115.342 223.695 115.342 223.695C115.342 223.695 114.797 234.617 116.722 236.772C116.722 236.868 116.704 236.967 116.701 237.063C116.701 237.107 116.701 237.156 116.701 237.2C116.678 238.03 116.838 238.912 117.552 239.183C119.008 239.742 120.933 241.419 121.297 241.9C121.661 242.38 123.777 243.577 126.538 243.257C128.267 243.062 130.008 242.983 131.747 243.018C131.747 243.018 132.837 242.82 132.484 241.466C132.257 240.622 131.407 239.323 130.801 238.47C130.912 238.499 131.019 238.522 131.121 238.542L131.226 238.563H131.308C131.352 238.566 131.397 238.566 131.442 238.563H131.5C131.554 238.567 131.609 238.567 131.663 238.563C132.394 238.493 135.119 239.763 135.606 240.601C136.092 241.44 137.807 242.078 139.1 242.238C139.869 242.331 141.808 242.174 143.436 241.964C144.256 241.879 145.068 241.731 145.864 241.521C146.249 241.376 146.33 240.91 146.22 240.386C146.089 239.72 145.733 239.12 145.212 238.685C144.74 238.35 144.117 237.468 143.657 236.746L143.535 236.551C144.347 235.776 145.815 233.243 146.26 232.719C146.802 232.081 145.387 208.759 145.387 208.759V197.068L147.556 186.002L149.073 180.147L150.375 171.306C150.375 171.306 152.652 160.98 151.95 159.967C151.95 159.946 151.368 149.315 150.757 146.761C150.492 145.623 150.559 143.06 150.716 140.568C150.88 140.404 150.995 140.198 151.046 139.972C151.098 139.746 151.084 139.511 151.007 139.292C150.964 139.143 150.907 138.998 150.838 138.858C150.838 138.815 150.838 138.768 150.838 138.724C152.096 138.146 153.41 137.699 154.76 137.391C156.93 136.966 156.388 135.847 156.388 135.847C156.388 135.847 156.877 134.889 157.201 134.304C157.524 133.719 157.256 128.553 157.201 128.128C157.18 127.956 157.046 127.007 156.892 125.929C157.588 125.434 158.494 124.82 159.481 124.237C161.359 123.125 160.937 121.952 160.782 121.646ZM132.478 195.472C132.478 195.472 130.851 199.624 131.503 200.687C132.155 201.75 131.395 205.696 131.395 205.696L130.851 211.552C130.851 211.552 129.333 222.413 129.875 224.967C130.3 226.97 130.457 232.954 130.507 235.45C130.47 235.464 130.434 235.482 130.399 235.502L130.326 235.54C130.577 234.559 130.472 232.573 129.229 228.578L129.124 212.076C129.124 212.076 128.932 193.014 130.437 190.883C131.943 188.751 132.475 185.132 132.475 185.132C132.475 185.132 132.149 190.353 131.937 191.736C131.724 193.119 132.478 195.472 132.478 195.472ZM129.447 236.49C129.432 236.524 129.415 236.559 129.403 236.591L129.322 236.487C129.363 236.491 129.405 236.492 129.447 236.49Z" fill="url(#paint0_linear_1231_19471)"/>
<path d="M146.048 243.03C145.207 243.353 140.644 243.903 139.368 243.749C138.093 243.595 136.404 242.948 135.923 242.104C135.443 241.259 132.749 239.984 132.027 240.065C131.731 240.074 131.436 240.033 131.154 239.943C130.655 239.792 130.169 239.605 129.698 239.384C129.632 239.017 129.643 238.64 129.73 238.277C129.746 238.204 129.768 238.132 129.794 238.062C129.964 237.584 130.315 237.193 130.772 236.973L130.877 236.923C131.079 236.836 131.29 236.772 131.506 236.731C133.795 236.292 143.238 237.174 143.238 237.174C143.238 237.174 143.503 237.648 143.867 238.237C144.321 238.965 144.939 239.853 145.405 240.188C145.921 240.629 146.271 241.233 146.398 241.9C146.508 242.415 146.427 242.887 146.048 243.03Z" fill="white"/>
<path opacity="0.1" d="M146.048 243.03C145.207 243.353 140.647 243.903 139.371 243.749C138.096 243.595 136.407 242.945 135.924 242.104C135.44 241.262 132.752 239.984 132.03 240.065C131.308 240.147 129.701 239.384 129.701 239.384C129.701 239.384 129.45 238.219 130.178 237.424L131.634 238.458C131.634 238.458 135.53 239.667 136.253 240.788C136.975 241.909 138.291 242.535 140.192 242.648C141.613 242.742 144.878 242.188 146.407 241.912C146.508 242.415 146.43 242.887 146.048 243.03Z" fill="black"/>
<path d="M132.108 244.515C130.391 244.481 128.673 244.562 126.966 244.757C124.232 245.077 122.144 243.883 121.78 243.391C121.416 242.899 119.532 241.236 118.085 240.654C117.377 240.38 117.211 239.489 117.243 238.656C117.243 238.612 117.243 238.563 117.243 238.519C117.27 237.992 117.348 237.468 117.476 236.956L128.806 236.714L129.788 238.045L129.939 238.248L130.536 239.061C130.536 239.061 130.807 239.416 131.162 239.934C131.762 240.808 132.601 242.098 132.825 242.951C133.183 244.317 132.108 244.515 132.108 244.515Z" fill="white"/>
<path opacity="0.1" d="M132.108 244.515C130.391 244.481 128.673 244.562 126.966 244.757C124.235 245.077 122.144 243.883 121.783 243.391C121.422 242.899 119.532 241.221 118.085 240.659C117.377 240.386 117.211 239.495 117.243 238.662C118.052 238.851 119.753 239.335 120.42 240.176C121.293 241.3 122.857 243.19 125.079 243.309C126.873 243.405 131.241 243.085 132.842 242.957C133.186 244.317 132.108 244.515 132.108 244.515Z" fill="black"/>
<path opacity="0.1" d="M130.76 236.961C130.629 237.934 130.224 238.196 129.933 238.254C129.862 238.268 129.789 238.268 129.718 238.254C129.68 238.251 129.642 238.246 129.604 238.237C129.604 238.237 119.43 240.485 117.374 238.665C117.322 238.618 117.273 238.567 117.229 238.513C117.255 237.986 117.333 237.462 117.461 236.95L128.792 236.708L129.773 238.039C129.943 237.561 130.295 237.17 130.752 236.95L130.76 236.961Z" fill="black"/>
<path opacity="0.1" d="M143.864 238.225C143.637 238.476 143.448 238.618 143.328 238.569C142.793 238.353 138.401 237.605 137.007 238.248C135.612 238.892 130.891 238.353 130.891 238.353C130.891 238.353 130.891 237.794 130.865 236.897C131.067 236.81 131.278 236.746 131.494 236.705C133.783 236.265 143.226 237.148 143.226 237.148C143.226 237.148 143.503 237.637 143.864 238.225Z" fill="black"/>
<path d="M150.509 172.357L149.221 181.25L147.725 187.144L145.582 198.285V210.078C145.582 210.078 146.973 233.543 146.438 234.183C145.902 234.824 143.866 238.473 143.331 238.26C142.795 238.047 138.404 237.296 137.009 237.937C135.614 238.577 130.894 238.045 130.894 238.045C130.894 238.045 130.786 228.939 130.25 226.368C129.714 223.796 131.214 212.868 131.214 212.868L131.75 206.977C131.75 206.977 132.501 203.011 131.858 201.94C131.214 200.868 132.821 196.698 132.821 196.698C132.821 196.698 132.073 194.336 132.289 192.945C132.504 191.553 132.821 186.302 132.821 186.302C132.821 186.302 132.289 189.948 130.801 192.088C129.313 194.229 129.502 213.41 129.502 213.41L129.607 230.008C132.289 238.796 129.607 237.937 129.607 237.937C129.607 237.937 119.432 240.188 117.377 238.365C115.321 236.542 115.909 225.069 115.909 225.069C115.909 225.069 115.696 215.856 116.553 213.072C117.409 210.288 117.679 200 117.679 200C117.679 200 117.624 179.427 117.679 178.038C117.72 176.874 117.679 166.446 117.679 163.188C117.679 162.582 117.679 162.224 117.679 162.224L118.908 159.172L133.468 157.349H140.433C140.433 157.349 150.916 159.813 151.999 160.875C152.023 160.893 152.042 160.915 152.058 160.94C152.759 161.967 150.509 172.357 150.509 172.357Z" fill="#246BFD"/>
<path opacity="0.1" d="M134.016 230.427C134.016 230.427 144.831 230.963 144.723 232.142C144.615 233.321 134.016 230.427 134.016 230.427Z" fill="black"/>
<path opacity="0.1" d="M119.547 227.343C119.975 227.748 127.796 228.508 127.153 229.248C126.509 229.987 120.19 231.426 120.19 231.426L119.547 227.343Z" fill="black"/>
<path opacity="0.1" d="M132.831 219.07C132.831 219.07 136.034 226.784 137.545 227.32C139.057 227.856 132.831 219.07 132.831 219.07Z" fill="black"/>
<path opacity="0.1" d="M118.263 214.036C118.263 214.356 119.87 224.321 120.301 224.749C120.732 225.177 124.264 225.605 124.264 225.605L118.263 214.036Z" fill="black"/>
<path opacity="0.1" d="M152.064 161.912C150.112 162.135 148.19 162.566 146.33 163.196C143.127 164.262 118.026 163.214 117.677 163.196C117.677 162.591 117.677 162.232 117.677 162.232L118.906 159.181L133.465 157.358H140.431C140.431 157.358 150.914 159.821 151.997 160.884C152.04 161.525 152.064 161.912 152.064 161.912Z" fill="black"/>
<path d="M113.289 125.699L110.825 128.11C110.825 128.11 115.269 133.253 118.687 133.573C122.106 133.894 124.31 129.663 124.31 129.663L121.352 125.003L113.289 125.699Z" fill="#246BFD"/>
<path opacity="0.1" d="M113.289 125.699L110.825 128.11C110.825 128.11 115.269 133.253 118.687 133.573C122.106 133.894 124.31 129.663 124.31 129.663L121.352 125.003L113.289 125.699Z" fill="black"/>
<path d="M159.51 122.001L160.742 122.324C160.742 122.324 161.653 123.711 159.51 125.001C158.149 125.827 156.843 126.74 155.599 127.735L149.266 129.663L148.046 125.833L153.94 121.361L159.51 122.001Z" fill="#246BFD"/>
<path opacity="0.1" d="M159.51 122.001L160.742 122.324C160.742 122.324 161.653 123.711 159.51 125.001C158.149 125.827 156.843 126.74 155.599 127.735L149.266 129.663L148.046 125.833L153.94 121.361L159.51 122.001Z" fill="black"/>
<path d="M129.925 77.8331C128.39 79.5482 127.726 81.9797 125.938 83.4298C124.852 84.3034 123.478 84.7198 122.214 85.3139C120.95 85.9079 119.698 86.8135 119.322 88.1588C118.903 89.673 119.713 91.2193 120.138 92.7335C120.577 94.3001 120.604 95.9366 120.63 97.576C120.659 99.559 120.691 101.542 120.656 103.525C120.604 106.615 120.347 109.847 118.708 112.465C124.628 114.349 130.924 114.605 137.132 114.847C138.325 114.932 139.523 114.902 140.711 114.756C141.739 114.551 142.757 114.294 143.759 113.985C145.741 113.46 147.784 113.199 149.834 113.207C150.728 113.207 151.639 113.263 152.501 113.03C153.363 112.797 154.193 112.2 154.426 111.338C154.633 110.563 154.33 109.739 153.934 109.043C153.211 107.774 152.186 106.714 151.412 105.462C150.621 104.139 150.152 102.649 150.042 101.112C149.933 99.575 150.185 98.0337 150.78 96.6122C151.467 95.0135 152.574 93.6216 153.249 92.02C153.941 90.3005 154.125 88.4185 153.779 86.5975C153.434 84.7764 152.573 83.0929 151.298 81.7468C148.948 79.3415 145.576 78.4097 142.35 77.9146C140.991 77.7542 139.695 77.2534 138.582 76.4587C137.344 75.6433 135.74 75.4453 134.29 75.6259C132.617 75.8133 131.067 76.5969 129.925 77.8331Z" fill="#3F3D56"/>
<g opacity="0.1">
<path d="M150.87 94.9319C150.277 96.335 150.022 97.8584 150.128 99.3784C150.193 98.2915 150.444 97.2238 150.87 96.2219C151.555 94.6232 152.661 93.2313 153.337 91.6297C153.889 90.2924 154.121 88.8446 154.015 87.4016C153.955 88.413 153.726 89.4072 153.337 90.3427C152.661 91.9442 151.555 93.3332 150.87 94.9319Z" fill="black"/>
<path d="M120.717 97.1799C120.734 98.3213 120.752 99.4657 120.754 100.607C120.754 99.0348 120.74 97.4652 120.717 95.8957C120.693 94.2679 120.664 92.6198 120.224 91.0502C119.933 90.0544 119.502 89.0439 119.351 88.0393C119.092 89.4662 119.828 90.9134 120.224 92.3373C120.664 93.8923 120.693 95.5521 120.717 97.1799Z" fill="black"/>
<path d="M152.6 111.364C151.726 111.6 150.829 111.547 149.935 111.541C147.887 111.528 145.845 111.785 143.864 112.304C142.861 112.612 141.844 112.869 140.815 113.073C139.627 113.221 138.428 113.252 137.233 113.166C131.235 112.93 125.152 112.677 119.407 110.962C119.236 111.343 119.042 111.712 118.824 112.069C124.744 113.95 131.04 114.209 137.245 114.451C138.439 114.536 139.639 114.505 140.827 114.357C141.852 114.155 142.866 113.899 143.864 113.591C145.841 113.07 147.879 112.811 149.924 112.82C150.818 112.82 151.726 112.875 152.588 112.639C153.45 112.403 154.28 111.812 154.513 110.95C154.611 110.551 154.601 110.133 154.484 109.739C154.225 110.554 153.424 111.122 152.6 111.364Z" fill="black"/>
</g>
<path d="M143.975 107.913C143.759 108.397 142.851 112.572 142.635 113C142.42 113.429 141.244 120.28 141.136 120.665C141.028 121.049 133.381 119.057 133.381 119.057L128.778 115.199L124.046 110.49C124.046 110.49 123.906 106.242 127.391 104.879C127.628 104.786 127.872 104.71 128.119 104.652C132.348 103.636 131.922 90.7795 131.922 90.7795L140.6 94.5272C140.6 94.5272 138.993 102.028 139.048 103.476C139.063 103.962 139.444 104.265 139.942 104.448C140.712 104.667 141.513 104.754 142.312 104.704C142.312 104.704 144.19 107.433 143.975 107.913Z" fill="#FBBEBE"/>
<path opacity="0.1" d="M143.975 107.913C143.759 108.397 142.851 112.572 142.635 113C142.42 113.428 141.244 120.28 141.136 120.665C141.028 121.049 133.381 119.057 133.381 119.057L128.778 115.199L124.046 110.49C124.046 110.49 123.906 106.242 127.391 104.879L136.046 114.829L139.942 104.448C140.712 104.667 141.513 104.754 142.312 104.704C142.312 104.704 144.19 107.433 143.975 107.913Z" fill="black"/>
<path d="M136.046 115.149L127.188 104.958C126.669 104.627 126.077 104.43 125.463 104.384C124.85 104.339 124.234 104.447 123.673 104.698C121.69 105.557 119.226 106.253 118.583 106.681C117.939 107.109 115.528 109.759 115.528 109.759L122.709 128.544L119.547 140.917C119.547 140.917 120.03 147.239 118.798 149.542C118.048 151.015 117.697 152.658 117.779 154.309C117.779 154.309 118.155 157.364 117.727 158.968C117.477 160.041 117.458 161.155 117.671 162.235C117.671 162.235 143.119 163.307 146.331 162.235C148.19 161.603 150.113 161.173 152.064 160.951C152.064 160.951 151.482 150.235 150.9 147.664C150.317 145.093 151.383 135.291 151.383 135.291L150.687 124.791L154.863 114.017C154.863 114.017 152.6 107.109 150.241 106.414C150.241 106.414 145.958 105.394 145.047 104.914C144.135 104.433 141.456 104.002 141.456 104.002L140.05 104.474L136.046 115.149Z" fill="#246BFD"/>
<path opacity="0.1" d="M137.117 161.321C137.117 161.321 137.01 177.179 132.831 186.285C132.831 186.285 137.869 174.285 137.869 173.804C137.869 173.324 140.653 168.286 139.907 166.787C139.162 165.287 137.117 161.321 137.117 161.321Z" fill="black"/>
<path opacity="0.1" d="M148.404 124.436L129.764 123.169C129.293 123.137 128.884 123.493 128.852 123.965L126.851 153.395C126.819 153.866 127.175 154.275 127.647 154.307L146.287 155.574C146.759 155.606 147.167 155.25 147.199 154.778L149.2 125.348C149.232 124.877 148.876 124.468 148.404 124.436Z" fill="black"/>
<path d="M149.046 123.797L130.406 122.53C129.934 122.497 129.526 122.854 129.494 123.326L127.493 152.755C127.46 153.227 127.817 153.636 128.289 153.668L146.928 154.935C147.4 154.967 147.809 154.611 147.841 154.139L149.842 124.709C149.874 124.237 149.518 123.829 149.046 123.797Z" fill="#3F3D56"/>
<path d="M148.431 126.104L130.703 124.898L128.881 151.69L146.609 152.896L148.431 126.104Z" fill="white"/>
<path opacity="0.1" d="M146.318 148.981L144.02 148.825L143.877 150.928L146.175 151.085L146.318 148.981Z" fill="black"/>
<path opacity="0.1" d="M144.05 143.905L132.287 143.105L132.144 145.208L143.907 146.008L144.05 143.905Z" fill="black"/>
<path opacity="0.1" d="M146.841 132.942L132.36 131.929L132.078 135.965L146.559 136.978L146.841 132.942Z" fill="black"/>
<path d="M146.237 125.102L133.988 124.269L133.768 127.503L146.017 128.336L146.237 125.102Z" fill="#3F3D56"/>
<path opacity="0.1" d="M146.237 125.102L133.988 124.269L133.768 127.503L146.017 128.336L146.237 125.102Z" fill="black"/>
<path d="M141.404 141.558C140.655 141.179 128.28 143.11 128.28 143.11C128.28 143.11 126.241 142.527 121.314 141.718C116.387 140.908 116.073 136.092 116.073 136.092L115.534 126.451L117.197 124.995L124.319 129.654C124.319 129.654 124.43 132.009 124.319 132.435C124.25 132.726 124.063 133.072 124.081 133.308C124.086 133.372 124.112 133.432 124.156 133.48C124.199 133.527 124.256 133.559 124.319 133.57C124.803 133.693 131.39 134.758 131.39 134.758C131.39 134.758 146.657 133.713 150.463 138.855C150.764 139.233 150.993 139.664 151.135 140.125C152.079 143.64 142.082 141.893 141.404 141.558Z" fill="#FBBEBE"/>
<path opacity="0.1" d="M151.143 140.145C150.561 140.405 150.2 140.591 150.2 140.591C150.2 140.591 144.737 140.431 141.668 139.318C138.599 138.206 134.869 138.404 134.869 138.404C134.869 138.404 122.079 136.203 124.062 133.329C124.068 133.392 124.094 133.453 124.137 133.5C124.18 133.548 124.238 133.579 124.301 133.591C124.785 133.713 131.371 134.779 131.371 134.779C131.371 134.779 146.639 133.733 150.444 138.876C150.755 139.251 150.992 139.682 151.143 140.145Z" fill="black"/>
<path d="M156.455 123.18C156.455 123.18 157.206 128.483 157.259 128.914C157.311 129.345 157.582 134.537 157.259 135.128C156.935 135.719 156.455 136.68 156.455 136.68C156.455 136.68 156.991 137.804 154.848 138.235C152.704 138.666 150.188 139.947 150.188 139.947C150.188 139.947 144.723 139.787 141.671 138.663C138.619 137.539 134.869 137.752 134.869 137.752C134.869 137.752 118.635 134.965 125.6 131.564C132.565 128.163 137.492 132.769 137.492 132.769L145.259 132.289C145.259 132.289 148.153 130.518 148.957 130.682C149.524 130.754 150.101 130.661 150.617 130.414L150.672 124.788L156.455 123.18Z" fill="#FBBEBE"/>
<path opacity="0.1" d="M152.708 113.859L154.848 114.343C154.848 114.343 160.314 122.205 160.742 122.645C161.17 123.084 158.703 124.683 157.687 124.683C156.671 124.683 151.689 125.265 150.241 126.611C148.794 127.956 149.397 121.186 149.397 121.031C149.397 120.877 151.194 116.605 151.194 116.605L152.708 113.859Z" fill="black"/>
<path d="M152.708 113.539L154.848 114.02C154.848 114.02 160.314 121.896 160.742 122.324C161.17 122.752 158.703 124.363 157.687 124.363C156.671 124.363 151.689 124.945 150.241 126.29C148.794 127.636 149.397 120.865 149.397 120.711C149.397 120.557 151.205 116.27 151.205 116.27L152.708 113.539Z" fill="#246BFD"/>
<path opacity="0.1" d="M117.074 110.164L115.519 110.083L110.808 128.428C110.808 128.428 115.895 127.141 118.087 128.428C120.28 129.715 124.302 129.98 124.302 129.98L122.802 115.356L117.074 110.164Z" fill="black"/>
<path d="M117.074 109.841L115.519 109.76L110.808 128.105C110.808 128.105 115.895 126.818 118.087 128.105C120.28 129.392 124.302 129.657 124.302 129.657L122.802 115.033L117.074 109.841Z" fill="#246BFD"/>
<path opacity="0.1" d="M136.689 99.1804C141.422 99.1804 145.259 95.3436 145.259 90.6106C145.259 85.8776 141.422 82.0408 136.689 82.0408C131.956 82.0408 128.119 85.8776 128.119 90.6106C128.119 95.3436 131.956 99.1804 136.689 99.1804Z" fill="black"/>
<path d="M136.689 98.5368C141.422 98.5368 145.259 94.7 145.259 89.967C145.259 85.2341 141.422 81.3972 136.689 81.3972C131.956 81.3972 128.119 85.2341 128.119 89.967C128.119 94.7 131.956 98.5368 136.689 98.5368Z" fill="#FBBEBE"/>
<path opacity="0.1" d="M137.344 87.8237C137.184 86.4201 137.528 85.0053 138.314 83.8315C138.22 85.008 138.553 86.1789 139.251 87.1304C139.949 88.082 140.966 88.7508 142.117 89.0147C142.018 88.9295 141.948 88.8166 141.916 88.6908C141.883 88.565 141.889 88.4323 141.933 88.31C142.53 88.9856 142.987 89.7864 143.663 90.3804C144.338 90.9744 145.352 91.3297 146.147 90.9075C147.227 90.3251 147.239 88.7905 146.959 87.5966C146.359 85.054 145.128 82.7036 143.38 80.7623C142.944 80.1755 142.378 79.6976 141.726 79.3662C141.075 79.0348 140.355 78.8588 139.624 78.8521C137.97 78.7239 136.252 78.8695 134.77 79.6121C133.936 80.0672 133.154 80.6131 132.44 81.2398L128.364 84.5653C127.971 84.8479 127.635 85.2015 127.373 85.6077C127.199 85.9474 127.094 86.3187 127.065 86.6997C126.961 87.7888 127.162 88.8854 127.647 89.8663C128.131 90.8472 128.88 91.6736 129.808 92.2528C129.788 91.392 130.025 90.5448 130.488 89.8189C130.951 89.093 131.619 88.5212 132.408 88.1761C132.532 88.2794 132.632 88.4079 132.702 88.5531C132.771 88.6982 132.809 88.8566 132.813 89.0176L133.672 87.4859C133.8 87.2072 134.001 86.9686 134.254 86.7958C134.784 86.5046 135.445 86.8482 135.897 87.2588C136.348 87.6694 136.788 88.1819 137.393 88.2459L137.417 85.9659" fill="black"/>
<path d="M137.344 87.5035C137.183 86.0989 137.527 84.683 138.314 83.5083C138.051 85.8379 139.807 88.2431 142.119 88.6916C142.021 88.6071 141.951 88.4947 141.918 88.3693C141.885 88.2439 141.892 88.1115 141.936 87.9898C142.533 88.6654 142.99 89.4632 143.666 90.0602C144.341 90.6571 145.355 91.0095 146.15 90.5843C147.23 90.0019 147.242 88.4673 146.962 87.2764C146.362 84.7338 145.131 82.3834 143.383 80.4421C142.841 79.7809 142.157 79.2496 141.383 78.8871C140.822 78.6797 140.233 78.5599 139.636 78.5318C137.982 78.4037 136.264 78.5464 134.781 79.2889C133.948 79.7461 133.167 80.2929 132.452 80.9196L128.375 84.245C127.982 84.5269 127.646 84.8806 127.385 85.2875C127.21 85.627 127.105 85.9984 127.076 86.3795C126.973 87.4682 127.174 88.5642 127.659 89.5446C128.143 90.525 128.891 91.351 129.819 91.9296C129.801 91.069 130.038 90.2222 130.501 89.4964C130.964 88.7707 131.631 88.1987 132.42 87.8529C132.543 87.9566 132.643 88.0852 132.712 88.2303C132.782 88.3754 132.82 88.5336 132.825 88.6945L133.681 87.1686C133.808 86.8894 134.009 86.6506 134.263 86.4785C134.793 86.1873 135.454 86.5309 135.905 86.9415C136.357 87.3521 136.796 87.8617 137.402 87.9286L137.425 85.6457" fill="#3F3D56"/>
<g opacity="0.1">
<path d="M138.3 83.5345C138.287 83.3112 138.292 83.0873 138.314 82.8647C137.871 83.53 137.566 84.2777 137.417 85.0633V85.7388C137.417 85.7388 137.417 85.7243 137.417 85.7155V85.8757C137.417 86.3474 137.417 86.8221 137.403 87.2938H137.362V87.5122C137.362 87.4365 137.362 87.3637 137.347 87.288C136.765 87.1948 136.349 86.7056 135.915 86.3154C135.481 85.9252 134.802 85.5525 134.272 85.8524C134.019 86.0245 133.817 86.2633 133.69 86.5425L132.825 88.0684C132.821 87.9078 132.783 87.7499 132.714 87.6053C132.644 87.4606 132.544 87.3326 132.42 87.2297C131.632 87.5748 130.963 88.1467 130.5 88.8726C130.037 89.5985 129.8 90.4457 129.82 91.3064C129.025 90.8079 128.359 90.1273 127.878 89.3207C127.398 88.5141 127.116 87.6047 127.057 86.6677C127.006 87.714 127.235 88.7548 127.721 89.6828C128.207 90.6108 128.932 91.3924 129.82 91.9471C129.801 91.0864 130.038 90.2396 130.501 89.5138C130.964 88.7881 131.632 88.2161 132.42 87.8704C132.544 87.974 132.643 88.1027 132.713 88.2477C132.783 88.3928 132.821 88.551 132.825 88.7119L133.681 87.1861C133.808 86.9069 134.01 86.6681 134.264 86.4959C134.794 86.2047 135.455 86.5483 135.906 86.9589C136.357 87.3695 136.797 87.8791 137.403 87.9461C137.403 87.2006 137.411 86.4571 137.426 85.7155C137.569 84.9375 137.866 84.196 138.3 83.5345Z" fill="black"/>
<path d="M137.315 86.4669C137.33 86.2689 137.353 86.0709 137.382 85.8845L137.414 85.0808C137.327 85.5373 137.293 86.0026 137.315 86.4669Z" fill="black"/>
<path d="M146.15 89.9407C145.355 90.3659 144.342 90.0106 143.666 89.4166C142.991 88.8225 142.534 88.0218 141.937 87.3462C141.893 87.4684 141.886 87.6012 141.919 87.727C141.952 87.8528 142.022 87.9657 142.12 88.0509C142.062 88.0509 142.007 88.0218 141.951 88.0072C142.534 88.6769 142.997 89.4632 143.666 90.0456C144.336 90.6279 145.355 90.9948 146.15 90.5697C146.945 90.1446 147.172 89.1487 147.102 88.179C147.05 88.9419 146.776 89.6029 146.15 89.9407Z" fill="black"/>
<path d="M141.933 88.0014C140.959 87.7361 140.09 87.1794 139.442 86.406C138.793 85.6326 138.397 84.6794 138.305 83.6743C138.139 85.9602 139.863 88.2519 142.12 88.6916C142.023 88.6081 141.954 88.4978 141.921 88.3749C141.888 88.252 141.892 88.122 141.933 88.0014Z" fill="black"/>
</g>
<path d="M281.776 135.594C281.776 135.594 280.629 135.434 280.629 133.765C280.629 132.097 279.807 128.972 279.807 128.972C279.807 128.972 279.097 123.536 278.116 122.674C277.134 121.812 275.873 116.751 275.873 116.751C275.873 116.751 275.658 114.005 275.218 113.414C274.779 112.823 274.184 111.375 273.308 109.311C272.432 107.246 268.786 105.831 268.786 105.831C268.786 105.831 262.179 101.999 260.306 100.75C260.135 100.646 259.975 100.525 259.829 100.389C259.503 99.9636 258.082 99.9549 258.082 99.9549C257.933 99.0143 257.79 97.9369 257.744 96.9614C257.744 96.8566 257.744 96.7517 257.744 96.6469C259.832 95.4128 261.404 93.4669 262.173 91.1667C262.208 91.056 262.237 90.9424 262.269 90.8289C262.397 90.7894 262.515 90.7234 262.615 90.635C262.715 90.5467 262.796 90.4381 262.851 90.3164C263.017 89.9407 263.023 89.5039 263.233 89.1516C263.477 88.7381 263.943 88.5168 264.31 88.2081C265.236 87.419 265.475 86.0941 265.431 84.8914C265.402 83.913 265.245 82.9288 265.306 81.9591C265.306 81.8776 265.306 81.7961 265.323 81.7145C265.341 81.5718 265.361 81.4233 265.388 81.2836C265.53 80.5614 265.842 79.88 266.017 79.1637C266.191 78.4473 266.209 77.6407 265.801 77.0234C265.204 76.1178 263.961 75.9372 262.869 75.8586C261.631 75.7538 260.539 75.8877 259.733 74.8598C259.363 74.323 258.945 73.8201 258.486 73.3573C258.323 73.2059 256.739 72.2362 256.739 72.175C255.189 71.4544 253.431 71.3189 251.789 71.7936C250.965 72.0323 250.193 72.4225 249.357 72.6176C247.564 73.0428 245.496 72.5827 243.97 73.6106C243.12 74.193 242.61 75.1219 242.133 76.0217C241.745 76.7633 241.351 77.5058 240.951 78.2493C240.304 79.4694 239.652 80.7099 239.381 82.061C239.324 82.3562 239.288 82.6549 239.273 82.955C239.273 83.0627 239.273 83.1705 239.273 83.2782C239.273 83.3248 239.273 83.3714 239.273 83.418C239.273 83.517 239.273 83.616 239.291 83.7092C239.308 83.8024 239.291 83.8286 239.311 83.8897C239.332 83.9509 239.337 84.0877 239.355 84.1809C239.372 84.2741 239.407 84.4401 239.442 84.5653C239.442 84.6206 239.477 84.673 239.495 84.7284C239.512 84.7837 239.559 84.9235 239.597 85.0196C239.634 85.1157 239.637 85.1215 239.661 85.171C239.704 85.2729 239.757 85.3719 239.809 85.4622C239.832 85.5 239.85 85.5379 239.873 85.5757C239.953 85.712 240.043 85.8424 240.141 85.9659C240.761 86.7434 241.682 87.2385 242.36 87.9664C242.36 87.9956 242.36 88.0247 242.36 88.0538C242.36 88.1324 242.36 88.211 242.36 88.2926C242.402 89.9163 242.839 91.5052 243.635 92.9212C244.431 94.3371 245.56 95.5372 246.926 96.4169C246.926 96.5275 246.94 96.6411 246.946 96.7546C247.003 97.618 246.992 98.4845 246.914 99.3463C246.795 99.2069 246.647 99.0959 246.48 99.0214C246.312 98.9468 246.131 98.9106 245.947 98.9153C245.822 98.9091 245.697 98.9199 245.575 98.9473L245.549 98.9269V98.9532C244.908 99.1104 244.119 99.7772 243.365 101.673C243.365 101.673 241.07 104.259 239.323 104.151C237.576 104.043 233.152 106.844 233.152 106.844C233.152 106.844 228.837 109.643 227.911 112.497C227.393 114.115 226.772 115.699 226.05 117.237L220.701 128.221L219.72 136.957C219.72 136.957 220.264 140.833 220.157 141.427C220.049 142.021 222.396 147.349 222.396 147.349C222.396 147.349 230.15 160.971 233.318 161.67L233.546 161.513C233.682 161.582 233.825 161.635 233.974 161.67L234.626 161.213C234.666 161.725 234.649 162.24 234.573 162.748C234.14 164.096 234.739 172.873 235.502 174.593C236.265 176.314 235.995 198.882 235.995 198.882L235.887 200.871C235.887 200.871 235.887 200.935 235.913 201.045L235.887 201.517L235.965 201.558C236.047 202.191 236.02 202.833 235.887 203.457C235.613 204.33 235.502 206.797 235.502 206.797C235.502 206.797 233.318 220.739 234.355 223.54C235.392 226.341 236.268 229.411 236.268 229.411C236.268 229.411 237.36 232.905 236.321 233.487C235.281 234.07 232.337 235.103 232.937 236.556C233.49 237.902 235.59 241.507 235.901 242.034L235.875 242.325L235.447 246.964C235.516 247.576 235.682 248.174 235.939 248.734C236.408 249.748 237.317 250.793 239.052 250.679C239.343 250.659 239.678 250.627 240.007 250.583C243.178 250.155 247.08 248.74 247.08 248.74C246.878 248.612 246.693 248.458 246.53 248.283C246.374 248.132 246.251 247.951 246.167 247.75C246.083 247.55 246.041 247.335 246.044 247.118C246.09 246.271 244.509 242.249 244.113 241.256L244.023 241.035C244.023 241.035 247.628 237.264 247.028 233.927C247.028 233.927 243.038 231.597 244.352 230.316C245.665 229.035 248.012 225.366 248.012 225.366C248.012 225.366 248.12 211.636 248.012 209.589C247.9 208.165 247.967 206.733 248.213 205.326C248.257 205.116 248.309 204.91 248.364 204.703C250.182 204.977 252.018 205.116 253.856 205.119C254.528 205.119 255.207 205.106 255.895 205.078C255.895 205.273 255.903 205.482 255.921 205.707C256.072 209.109 256.355 215.075 256.585 217.291C256.911 220.465 258.713 229.029 258.713 229.029C258.713 229.029 255.274 231.233 259.313 236.676C259.313 236.676 259.313 238.644 259.045 238.933C258.759 239.866 258.529 240.816 258.355 241.778C258.186 242.8 258.116 243.839 258.39 244.375C259.045 245.662 262.976 245.557 262.976 245.557C263.008 245.55 263.04 245.545 263.073 245.543C263.815 245.464 264.565 245.535 265.279 245.75C265.994 245.965 266.658 246.32 267.234 246.795C268.728 247.995 274.394 247.47 277.466 247.086C278.669 246.932 279.473 246.795 279.473 246.795C279.511 246.659 279.525 246.517 279.513 246.376C279.481 245.621 278.89 243.967 274.883 242.491C274.883 242.491 271.115 239.958 271.168 237.75H271.083H270.649C270.923 237.742 271.115 237.742 271.115 237.742C271.115 237.742 269.639 232.357 270.242 231.918C270.845 231.478 269.039 225.512 269.039 225.512C269.039 225.512 268.005 215.494 267.947 214.796C267.951 214.193 268.043 213.595 268.221 213.019L267.947 207.525C267.947 207.525 267.895 205.699 267.947 205.105C267.941 204.589 267.9 204.074 267.825 203.564C267.799 203.36 267.772 203.148 267.743 202.938C269.156 202.58 270.073 202.251 270.073 202.251L269.91 183.134C271.109 180.805 271.331 175.691 271.325 172.069C271.325 169.739 271.22 168.015 271.22 168.015L272.86 165.339C272.86 165.339 273.238 162.136 272.638 161.434C272.373 161.117 272.493 160.788 272.711 160.517C272.826 160.423 272.948 160.337 273.075 160.261C273.061 160.241 273.048 160.219 273.037 160.197C273.152 160.101 273.273 160.015 273.401 159.938C273.401 159.938 272.819 159.035 273.34 158.654C273.829 158.986 274.266 159.251 274.598 159.44C274.575 159.652 274.551 159.775 274.551 159.775L274.691 159.483C275.011 159.664 275.207 159.775 275.207 159.775C275.207 159.775 277.775 154.658 277.72 153.907C277.664 153.156 279.467 149.976 279.467 149.976C279.467 149.976 279.685 148.305 280.669 147.606C281.654 146.907 281.432 141.843 281.432 141.843C281.432 141.843 281.706 139.205 282.361 138.13C283.016 137.056 281.776 135.594 281.776 135.594ZM232.634 133.349L232.684 134.569C232.392 134.1 232.183 133.765 232.183 133.765L232.634 133.349Z" fill="url(#paint1_linear_1231_19471)"/>
<path d="M247.086 248.737C247.086 248.737 242.427 250.449 239.224 250.665C237.523 250.778 236.629 249.736 236.169 248.731C235.919 248.177 235.756 247.588 235.686 246.984L236.108 242.369L236.329 239.914L243.134 238.144L244.098 241.093L244.188 241.315C244.573 242.302 246.128 246.303 246.081 247.139C246.077 247.355 246.118 247.569 246.199 247.77C246.281 247.97 246.402 248.151 246.556 248.303C246.713 248.47 246.891 248.616 247.086 248.737Z" fill="white"/>
<path opacity="0.1" d="M247.086 248.737C247.086 248.737 242.427 250.449 239.224 250.665C237.523 250.779 236.629 249.736 236.169 248.731C237.357 249.13 239.002 249.547 239.867 249.165C240.892 248.708 244.526 248.417 246.565 248.292C246.718 248.462 246.893 248.612 247.086 248.737Z" fill="black"/>
<path d="M278.896 246.39C278.908 246.531 278.895 246.673 278.856 246.809C278.856 246.809 268.891 248.469 266.853 246.809C266.28 246.325 265.612 245.965 264.892 245.753C264.172 245.54 263.415 245.481 262.671 245.578C262.671 245.578 258.816 245.683 258.172 244.413C257.904 243.88 257.974 242.846 258.14 241.83C258.31 240.874 258.535 239.929 258.816 239L258.97 238.877L259.887 238.141L270.627 237.823H270.708C270.656 240.019 274.351 242.538 274.351 242.538C278.285 243.994 278.864 245.639 278.896 246.39Z" fill="white"/>
<path opacity="0.1" d="M278.899 246.39C278.909 246.531 278.895 246.673 278.855 246.809C278.855 246.809 268.891 248.469 266.855 246.809C266.282 246.324 265.614 245.964 264.893 245.752C264.173 245.54 263.416 245.48 262.671 245.578C262.671 245.578 258.813 245.683 258.169 244.413C257.904 243.88 257.971 242.846 258.137 241.827C259.622 241.976 261.966 242.345 262.886 243.231C264.278 244.57 266.637 245.91 268.081 246.017C269.223 246.087 276.011 246.303 278.899 246.39Z" fill="black"/>
<path opacity="0.1" d="M244.177 241.3L244.087 241.399C240.5 237.06 236.161 242.471 236.161 242.471L236.097 242.354L236.318 239.899L243.123 238.129L244.087 241.079L244.177 241.3Z" fill="black"/>
<path opacity="0.1" d="M270.713 238.129C270.713 238.129 268.092 238.077 266.695 239.311C265.297 240.546 258.541 239.576 258.832 239.311C258.917 239.177 258.969 239.024 258.984 238.866L259.901 238.129L270.64 237.812C270.681 238.015 270.713 238.129 270.713 238.129Z" fill="black"/>
<path opacity="0.1" d="M38.6502 244.276C54.3207 244.276 67.0241 242.236 67.0241 239.719C67.0241 237.202 54.3207 235.162 38.6502 235.162C22.9798 235.162 10.2764 237.202 10.2764 239.719C10.2764 242.236 22.9798 244.276 38.6502 244.276Z" fill="#246BFD"/>
<path d="M270.714 237.809C270.714 237.809 268.093 237.753 266.696 238.974C265.298 240.194 258.542 239.241 258.833 238.974C259.124 238.706 259.098 236.726 259.098 236.726C255.135 231.312 258.516 229.117 258.516 229.117C258.516 229.117 256.748 220.599 256.428 217.44C256.204 215.236 255.927 209.286 255.779 205.917C255.715 204.461 255.677 203.457 255.677 203.457L258.886 202.819L259.302 202.737L267.112 201.168C267.112 201.168 267.327 202.624 267.473 203.815C267.547 204.323 267.587 204.836 267.592 205.349C267.543 205.932 267.592 207.758 267.592 207.758L267.86 213.22C267.687 213.794 267.597 214.389 267.592 214.988C267.648 215.687 268.664 225.649 268.664 225.649C268.664 225.649 270.432 231.595 269.829 232.023C269.226 232.451 270.714 237.809 270.714 237.809Z" fill="#246BFD"/>
<path d="M248.641 204.056C248.446 204.539 248.298 205.039 248.199 205.55C247.956 206.95 247.888 208.374 247.998 209.79C248.105 211.828 247.998 225.488 247.998 225.488C247.998 225.488 245.694 229.131 244.407 230.415C243.12 231.699 247.028 234.006 247.028 234.006C247.61 237.328 244.081 241.079 244.081 241.079C240.494 236.74 236.155 242.147 236.155 242.147C236.155 242.147 233.796 238.071 233.208 236.615C232.62 235.159 235.511 234.154 236.528 233.56C237.544 232.966 236.475 229.483 236.475 229.483C236.475 229.483 235.619 226.429 234.6 223.642C233.581 220.855 235.724 206.986 235.724 206.986C235.724 206.986 235.835 204.519 236.1 203.66C236.232 203.04 236.258 202.402 236.178 201.774C236.161 201.561 236.14 201.386 236.126 201.264C236.111 201.142 236.1 201.089 236.1 201.089L236.14 201.019L237.596 198.305C237.596 198.305 249.34 202.347 248.641 204.056Z" fill="#246BFD"/>
<path opacity="0.1" d="M238.479 234.675C238.479 234.675 241.291 232.908 243.138 234.192C244.984 235.476 238.479 234.675 238.479 234.675Z" fill="black"/>
<path opacity="0.1" d="M260.341 229.21C260.341 229.21 262.831 228.89 264.921 231.14C267.012 233.391 260.341 229.21 260.341 229.21Z" fill="black"/>
<path d="M275.358 157.562L274.729 160.241C274.729 160.241 269.691 157.664 268.786 154.402C267.88 151.141 270.303 149.897 270.303 149.897L275 151.883L275.358 157.562Z" fill="white"/>
<path opacity="0.1" d="M275.358 157.562L274.729 160.241C274.729 160.241 269.691 157.664 268.786 154.402C267.88 151.141 270.303 149.897 270.303 149.897L275 151.883L275.358 157.562Z" fill="black"/>
<path d="M253.999 110.744C250.156 109.25 245.211 104.314 246.446 102.008C246.719 101.425 246.882 100.797 246.926 100.156C247.006 99.2844 247.018 98.4082 246.961 97.535C246.875 96.104 246.703 94.6795 246.446 93.269C246.446 93.269 258.446 93.5399 257.747 95.3074C257.543 95.8286 257.508 96.7284 257.567 97.733C257.625 98.7377 257.768 99.882 257.919 100.846C258.126 102.165 258.338 103.175 258.338 103.175C258.338 103.175 257.602 104.203 257.173 104.259C256.745 104.314 259.515 112.884 253.999 110.744Z" fill="#CF6F80"/>
<path opacity="0.1" d="M253.999 110.744C250.156 109.25 245.211 104.314 246.446 102.008C246.719 101.425 246.882 100.797 246.926 100.156L252.188 104.483L255.444 107.153L257.919 100.855C258.126 102.174 258.338 103.184 258.338 103.184C258.338 103.184 257.602 104.212 257.173 104.267C256.745 104.323 259.515 112.884 253.999 110.744Z" fill="black"/>
<path d="M267.607 129.866L263.212 203.684L257.482 204.059L242.64 161.257L245.074 110.441L245.589 99.7046L252.188 105.124L255.443 107.794L257.991 101.309L262.729 105.438L267.607 129.866Z" fill="#246BFD"/>
<path opacity="0.1" d="M258.982 205.562C257.916 205.744 256.841 205.868 255.761 205.932C255.697 204.476 255.659 203.471 255.659 203.471L258.886 202.819L258.982 205.562Z" fill="black"/>
<path opacity="0.1" d="M267.484 203.815C265.414 204.354 262.214 204.959 259.354 204.581L259.313 202.737L267.123 201.168C267.123 201.168 267.33 202.612 267.484 203.815Z" fill="black"/>
<path opacity="0.1" d="M248.641 204.056C248.446 204.539 248.298 205.039 248.199 205.55C244.025 204.908 239.971 203.642 236.172 201.797L236.094 201.756L236.12 201.287V201.043L237.576 198.329C237.576 198.329 249.34 202.347 248.641 204.056Z" fill="black"/>
<path opacity="0.1" d="M259.302 204.918C247.363 206.957 236.429 201.112 236.429 201.112L236.534 199.132C236.534 199.132 236.804 176.684 236.053 174.963C235.302 173.242 234.717 164.527 235.142 163.196C235.567 161.865 233.59 141.773 233.59 141.773L233.269 133.62L221.537 128.853L226.779 117.924C227.486 116.392 228.095 114.817 228.601 113.207C229.513 110.368 233.744 107.581 233.744 107.581C233.744 107.581 238.083 104.797 239.798 104.902C241.513 105.007 243.761 102.439 243.761 102.439C245.421 98.2077 246.923 100.109 246.923 100.109C246.923 100.313 246.923 100.109 246.842 100.735C246.259 105.38 256.259 120.056 256.402 120.318L257.366 143.514L258.329 172.87L259.302 204.918Z" fill="black"/>
<path d="M258.982 204.918C247.043 206.957 236.105 201.112 236.105 201.112L236.213 199.132C236.213 199.132 236.481 176.684 235.73 174.963C234.979 173.242 234.393 164.518 234.821 163.176C235.249 161.833 233.26 141.761 233.26 141.761L232.937 133.608L221.208 128.841L226.449 117.913C227.156 116.381 227.764 114.807 228.272 113.198C229.184 110.368 233.429 107.578 233.429 107.578C233.429 107.578 237.768 104.794 239.48 104.899C241.193 105.004 243.452 102.439 243.452 102.439C245.115 98.2077 246.947 100.109 246.947 100.109C246.947 100.313 246.772 100.4 246.865 100.735C248.146 105.24 255.962 120.056 256.105 120.318L257.068 143.514L258.012 172.884L258.982 204.918Z" fill="white"/>
<path opacity="0.1" d="M236.429 159.061C236.589 159.061 244.731 158.205 244.731 158.205C244.731 158.205 249.66 167.902 249.337 170.258C249.014 172.614 248.429 174.704 246.446 174.335C244.463 173.965 235.773 174.626 235.773 174.626L236.429 159.061Z" fill="black"/>
<path d="M236.105 158.418C236.268 158.418 244.41 157.562 244.41 157.562C244.41 157.562 249.337 167.273 249.017 169.603C248.697 171.932 248.105 174.049 246.125 173.679C244.145 173.309 235.45 173.97 235.45 173.97L236.105 158.418Z" fill="white"/>
<path opacity="0.1" d="M255.123 155.509C255.557 155.509 255.909 155.157 255.909 154.723C255.909 154.288 255.557 153.936 255.123 153.936C254.689 153.936 254.337 154.288 254.337 154.723C254.337 155.157 254.689 155.509 255.123 155.509Z" fill="black"/>
<path d="M242.24 153.878C242.24 153.878 249.712 157.897 249.873 159.12C250.033 160.343 246.07 158.584 245.214 158.368C244.65 158.234 244.076 158.145 243.498 158.1L237.788 158.255L242.24 153.878Z" fill="#CF6F80"/>
<path d="M255.123 155.185C255.557 155.185 255.909 154.833 255.909 154.399C255.909 153.965 255.557 153.613 255.123 153.613C254.689 153.613 254.337 153.965 254.337 154.399C254.337 154.833 254.689 155.185 255.123 155.185Z" fill="#3F3D56"/>
<path opacity="0.1" d="M254.462 138.491C254.896 138.491 255.248 138.139 255.248 137.705C255.248 137.271 254.896 136.919 254.462 136.919C254.028 136.919 253.676 137.271 253.676 137.705C253.676 138.139 254.028 138.491 254.462 138.491Z" fill="black"/>
<path d="M254.462 138.171C254.896 138.171 255.248 137.819 255.248 137.385C255.248 136.951 254.896 136.599 254.462 136.599C254.028 136.599 253.676 136.951 253.676 137.385C253.676 137.819 254.028 138.171 254.462 138.171Z" fill="#3F3D56"/>
<path opacity="0.1" d="M224.897 134.473L221.857 128.85L220.894 137.528C220.894 137.528 221.429 141.383 221.322 141.974C221.214 142.565 223.517 147.865 223.517 147.865C223.517 147.865 231.126 161.42 234.233 162.116L244.716 154.615L241.932 151.08C241.932 151.08 240.968 150.704 240.727 151.08C240.727 151.08 235.555 142.187 235.022 141.546C234.489 140.905 234.591 139.616 234.591 139.616C234.591 139.616 233.788 138.759 234.055 137.956C234.323 137.152 232.518 134.368 232.518 134.368L234.178 132.816L224.897 134.473Z" fill="black"/>
<path d="M222.018 128.207L221.214 128.85L220.25 137.528C220.25 137.528 220.786 141.383 220.678 141.974C220.57 142.565 222.877 147.865 222.877 147.865C222.877 147.865 230.483 161.42 233.59 162.116L244.09 154.615L241.303 151.08C241.303 151.08 240.339 150.704 240.098 151.08C240.098 151.08 234.929 142.187 234.393 141.546C233.857 140.905 233.965 139.615 233.965 139.615C233.965 139.615 233.162 138.759 233.429 137.956C233.697 137.152 231.874 134.368 231.874 134.368L233.534 132.816L222.018 128.207Z" fill="white"/>
<path opacity="0.1" d="M255.764 120.973C254.48 120.438 247.678 112.671 247.678 112.671V110.904C247.43 110.322 245.957 110.677 244.766 111.084L245.278 100.348L245.861 100.832C247.133 105.333 255.624 120.714 255.764 120.973Z" fill="black"/>
<path d="M256.087 120.333C254.8 119.794 247.998 112.031 247.998 112.031V110.26C247.75 109.678 246.28 110.033 245.086 110.441L245.59 99.7161L246.172 100.197C247.456 104.693 255.945 120.07 256.087 120.333Z" fill="white"/>
<path opacity="0.1" d="M253.676 121.474C254.11 121.474 254.462 121.122 254.462 120.688C254.462 120.254 254.11 119.902 253.676 119.902C253.242 119.902 252.89 120.254 252.89 120.688C252.89 121.122 253.242 121.474 253.676 121.474Z" fill="black"/>
<path d="M253.676 121.154C254.11 121.154 254.462 120.802 254.462 120.368C254.462 119.933 254.11 119.581 253.676 119.581C253.242 119.581 252.89 119.933 252.89 120.368C252.89 120.802 253.242 121.154 253.676 121.154Z" fill="#3F3D56"/>
<path d="M272.586 157.937C272.586 157.937 273.122 158.741 272.586 159.102C272.05 159.463 272.639 160.389 272.639 160.389C272.639 160.389 271.302 161.17 271.89 161.877C272.479 162.585 272.106 165.762 272.106 165.762L270.498 168.438C270.498 168.438 270.595 170.153 270.6 172.471C270.6 176.087 270.388 181.172 269.211 183.49L269.369 202.507C269.369 202.507 263.74 204.566 259.028 203.937L258.329 173.42C258.329 173.42 259.349 156.115 259.724 152.795C259.944 151.072 260.034 149.334 259.992 147.597C259.992 147.597 259.832 142.402 259.293 139.994C259.293 139.994 258.711 129.546 258.653 126.655C258.626 125.271 258.699 121.235 258.781 117.397C258.871 113.201 258.973 109.244 258.973 109.244L257.91 100.832C257.91 100.832 258.973 100.727 259.293 101.152C259.437 101.286 259.593 101.406 259.759 101.51C261.597 102.75 268.079 106.565 268.079 106.565C268.079 106.565 271.666 107.992 272.525 110.036C273.384 112.08 273.981 113.53 274.398 114.113C274.814 114.695 275.041 117.432 275.041 117.432C275.041 117.432 276.276 122.47 277.24 123.323C278.203 124.176 278.896 129.593 278.896 129.593L270.379 136.29C270.379 136.29 269.631 147.431 269.471 147.862C269.31 148.293 272.586 157.937 272.586 157.937Z" fill="white"/>
<path d="M272.909 157.937C272.909 157.937 273.442 158.741 272.909 159.102C272.377 159.463 272.959 160.389 272.959 160.389C272.959 160.389 271.622 161.169 272.211 161.877C272.799 162.585 272.426 165.762 272.426 165.762L270.825 168.438C270.825 168.438 270.921 170.153 270.929 172.471C270.929 176.087 270.717 181.172 269.54 183.489L269.701 202.507C269.701 202.507 264.072 204.566 259.36 203.937L258.664 173.42C258.664 173.42 259.681 156.114 260.059 152.795C260.279 151.071 260.368 149.334 260.324 147.597C260.324 147.597 260.164 142.402 259.628 139.994C259.628 139.994 259.046 129.546 258.985 126.654C258.958 125.271 259.031 121.235 259.113 117.397C259.203 113.201 259.305 109.244 259.305 109.244L257.901 100.718C257.901 100.718 259.305 100.718 259.628 101.152C259.77 101.287 259.926 101.407 260.094 101.51C261.929 102.75 268.411 106.565 268.411 106.565C268.411 106.565 271.989 107.992 272.863 110.036C273.736 112.08 274.319 113.53 274.735 114.113C275.152 114.695 275.379 117.432 275.379 117.432C275.379 117.432 276.613 122.47 277.577 123.323C278.541 124.176 279.237 129.592 279.237 129.592L270.72 136.29C270.72 136.29 269.971 147.431 269.808 147.862C269.645 148.293 272.909 157.937 272.909 157.937Z" fill="white"/>
<path opacity="0.1" d="M271.889 162.212C272.472 162.92 272.105 166.099 272.105 166.099L270.498 168.758C270.498 168.758 270.594 170.476 270.6 172.794L267.897 173.638C267.653 173.715 267.393 173.731 267.141 173.687C266.889 173.643 266.651 173.539 266.446 173.384C266.242 173.229 266.078 173.027 265.968 172.796C265.858 172.565 265.804 172.31 265.812 172.054L266.281 157.029L272.585 159.437C272.05 159.81 272.638 160.724 272.638 160.724C272.638 160.724 271.301 161.504 271.889 162.212Z" fill="black"/>
<path d="M272.21 161.892C272.792 162.596 272.425 165.776 272.425 165.776L270.824 168.438C270.824 168.438 270.92 170.153 270.929 172.471L268.177 173.33C267.938 173.405 267.684 173.421 267.438 173.378C267.191 173.335 266.958 173.234 266.759 173.083C266.559 172.931 266.399 172.734 266.291 172.508C266.183 172.282 266.131 172.034 266.138 171.784L266.607 156.706L272.909 159.12C272.37 159.492 272.958 160.407 272.958 160.407C272.958 160.407 271.622 161.184 272.21 161.892Z" fill="white"/>
<path d="M39.5641 152.416H37.7383V193.524H39.5641V152.416Z" fill="#535461"/>
<path d="M51.0406 193.402L50.9241 195.254L50.764 197.874L50.697 198.963L50.5339 201.584L50.4641 202.673L50.3039 205.294L48.4606 235.016C48.3821 236.295 47.8186 237.496 46.8852 238.373C45.9518 239.251 44.7188 239.739 43.4376 239.739H33.8661C32.5813 239.74 31.3451 239.249 30.411 238.367C29.4769 237.485 28.9159 236.278 28.843 234.996L26.9997 205.274L26.8396 202.653L26.7726 201.564L26.6066 198.943L26.5396 197.854L26.3795 195.233L26.263 193.381C26.2428 193.026 26.2951 192.671 26.4167 192.337C26.5382 192.003 26.7265 191.697 26.97 191.438C27.2136 191.179 27.5073 190.972 27.8333 190.83C28.1593 190.688 28.5107 190.614 28.8663 190.612H48.4403C48.7974 190.614 49.1503 190.689 49.4774 190.832C49.8045 190.976 50.0989 191.185 50.3424 191.446C50.5859 191.707 50.7734 192.015 50.8935 192.352C51.0136 192.688 51.0636 193.045 51.0406 193.402Z" fill="#3F3D56"/>
<path d="M50.4633 202.662L50.3032 205.274H26.999L26.8359 202.662H50.4633Z" fill="#9D9CB5"/>
<path d="M50.6939 198.955L50.5338 201.57H26.7695L26.6064 198.955H50.6939Z" fill="#9D9CB5"/>
<path d="M50.9236 195.251L50.7605 197.866H26.539L26.376 195.251H50.9236Z" fill="#9D9CB5"/>
<path d="M23.6011 167.826C34.2355 175.52 38.6645 187.552 38.6645 187.552C38.6645 187.552 25.852 187.112 15.2147 179.419C4.57745 171.725 0.142578 159.702 0.142578 159.702C0.142578 159.702 12.9551 160.133 23.6011 167.826Z" fill="#246BFD"/>
<path d="M0.142578 159.702C0.142578 159.702 13.4414 167.084 17.7073 173.196C21.9733 179.308 38.6529 187.557 38.6529 187.557" stroke="#535461" stroke-width="2" stroke-miterlimit="10"/>
<path d="M47.0622 162.73C40.4143 170.037 39.0078 179.585 39.0078 179.585C39.0078 179.585 48.3813 177.284 55.0234 169.975C61.6656 162.666 63.0778 153.121 63.0778 153.121C63.0778 153.121 53.7102 155.424 47.0622 162.73Z" fill="#246BFD"/>
<path d="M63.0837 153.124C63.0837 153.124 54.4236 160.614 52.2222 165.773C50.0207 170.933 39.0078 179.585 39.0078 179.585" stroke="#535461" stroke-width="2" stroke-miterlimit="10"/>
<path d="M274.301 154.723C274.301 154.723 273.873 157.457 272.802 157.617C271.73 157.777 271.25 162.04 270.181 161.892C269.112 161.743 269.82 157.926 269.858 157.186C269.896 156.447 268.693 153.383 269.59 152.687C270.487 151.991 273.34 152.687 273.34 152.687L274.301 154.723Z" fill="#CF6F80"/>
<path d="M30.4534 152.329C36.2423 156.513 38.6534 163.062 38.6534 163.062C38.6534 163.062 31.6648 162.824 25.8904 158.639C20.1161 154.455 17.6904 147.903 17.6904 147.903C17.6904 147.903 24.6674 148.142 30.4534 152.329Z" fill="#246BFD"/>
<path d="M17.6904 147.903C17.6904 147.903 24.9295 151.921 27.2532 155.247C29.5769 158.572 38.6534 163.062 38.6534 163.062" stroke="#535461" stroke-width="2" stroke-miterlimit="10"/>
<path opacity="0.1" d="M276.566 133.669L278.584 129.593C278.584 129.593 279.391 132.7 279.391 134.359C279.391 136.019 280.515 136.182 280.515 136.182C280.515 136.182 281.747 137.638 281.097 138.701C280.448 139.764 280.189 142.396 280.189 142.396C280.189 142.396 280.401 147.431 279.438 148.127C278.474 148.823 278.258 150.486 278.258 150.486C278.258 150.486 276.491 153.645 276.546 154.396C276.601 155.148 274.083 160.235 274.083 160.235C274.083 160.235 275.314 153.913 268.136 151.182C268.136 151.182 268.081 149.038 268.617 148.45C269.153 147.862 269.988 147.577 269.464 144.618C268.94 141.66 269.313 138.092 269.313 137.379C269.313 136.666 270.92 132.219 270.92 132.219L276.566 133.669Z" fill="black"/>
<path d="M277.463 129.01L279.228 129.593C279.228 129.593 280.034 132.7 280.034 134.359C280.034 136.019 281.158 136.182 281.158 136.182C281.158 136.182 282.39 137.638 281.741 138.701C281.091 139.764 280.829 142.396 280.829 142.396C280.829 142.396 281.045 147.431 280.081 148.127C279.117 148.823 278.916 150.486 278.916 150.486C278.916 150.486 277.149 153.645 277.204 154.396C277.259 155.148 274.738 160.235 274.738 160.235C274.738 160.235 275.969 153.913 268.791 151.182C268.791 151.182 268.739 149.039 269.275 148.45C269.811 147.862 270.646 147.577 270.122 144.618C269.598 141.66 269.971 138.093 269.971 137.379C269.971 136.666 271.578 132.219 271.578 132.219L277.463 129.01Z" fill="white"/>
<path opacity="0.1" d="M262.709 111.716L263.481 113.958L259.43 118.035C259.52 113.839 259.622 109.882 259.622 109.882L258.219 101.358C258.219 101.358 259.622 101.358 259.946 101.792C260.088 101.928 260.244 102.048 260.411 102.15L263.853 112.077L262.709 111.716Z" fill="black"/>
<path d="M262.38 111.073L263.152 113.312L259.104 117.389C259.191 113.193 259.296 109.235 259.296 109.235L257.89 100.709C257.89 100.709 259.296 100.709 259.616 101.143C259.759 101.278 259.915 101.398 260.082 101.501L263.545 111.437L262.38 111.073Z" fill="white"/>
<path opacity="0.1" d="M257.747 95.3162C257.543 95.8374 257.508 96.7372 257.566 97.7418C255.959 98.7097 254.111 99.2046 252.235 99.1696C250.359 99.1346 248.531 98.5711 246.961 97.5438C246.874 96.1128 246.702 94.6883 246.445 93.2778C246.445 93.2778 258.445 93.5486 257.747 95.3162Z" fill="black"/>
<path d="M262.379 88.8867C262.411 91.5288 261.392 94.0751 259.546 95.9657C257.7 97.8563 255.179 98.9362 252.537 98.9679C249.895 98.9995 247.349 97.9804 245.458 96.1346C243.568 94.2888 242.488 91.7675 242.456 89.1255C242.456 89.044 242.456 88.9683 242.456 88.8867C242.456 86.244 243.506 83.7094 245.375 81.8407C247.243 79.972 249.778 78.9221 252.421 78.9221C255.063 78.9221 257.598 79.972 259.467 81.8407C261.335 83.7094 262.385 86.244 262.385 88.8867H262.379Z" fill="#CF6F80"/>
<path opacity="0.1" d="M262.379 88.8867C262.381 89.936 262.216 90.9788 261.89 91.9763C261.835 91.9855 261.779 91.9835 261.725 91.9705C261.671 91.9575 261.62 91.9337 261.576 91.9006C261.497 89.2799 260.21 86.8164 258.623 84.7227C258.177 84.0912 257.637 83.5315 257.022 83.0629C256.399 82.5955 255.624 82.3765 254.849 82.4485C253.976 82.5679 253.204 83.1619 252.322 83.2376C251.157 83.3337 250.114 82.5271 248.958 82.4892C248.488 82.4931 248.025 82.5975 247.598 82.7954C247.172 82.9933 246.793 83.2801 246.486 83.6365C245.878 84.3535 245.427 85.1896 245.161 86.0913C244.703 87.4594 244.454 88.8887 244.422 90.3311C244.407 91.1464 244.328 92.1685 243.571 92.4655C243.629 91.8663 243.561 91.2617 243.372 90.6902C243.183 90.1187 242.877 89.5928 242.474 89.1459L242.456 89.1255C242.456 89.044 242.456 88.9683 242.456 88.8867C242.456 86.244 243.506 83.7094 245.375 81.8407C247.243 79.972 249.778 78.9221 252.421 78.9221C255.063 78.9221 257.598 79.972 259.467 81.8407C261.335 83.7094 262.385 86.244 262.385 88.8867H262.379Z" fill="black"/>
<path d="M256.556 73.0661C255.043 72.3543 253.322 72.2197 251.716 72.6876C250.91 72.9263 250.15 73.3136 249.332 73.5087C247.584 73.931 245.546 73.4738 244.046 74.4959C243.214 75.0783 242.713 75.9984 242.247 76.8953L241.082 79.1113C240.447 80.3256 239.807 81.5602 239.542 82.8968C239.277 84.2334 239.437 85.7301 240.284 86.8075C240.899 87.5879 241.813 88.08 242.483 88.8167C242.885 89.2659 243.19 89.7935 243.379 90.3663C243.567 90.9391 243.635 91.5448 243.578 92.1451C244.335 91.8539 244.41 90.826 244.428 90.0106C244.461 88.5683 244.71 87.1391 245.168 85.7709C245.433 84.8692 245.885 84.0331 246.492 83.3161C246.799 82.9593 247.178 82.672 247.604 82.4737C248.031 82.2753 248.494 82.1703 248.965 82.1659C250.129 82.2067 251.175 83.0133 252.328 82.9143C253.202 82.8415 253.976 82.2474 254.856 82.128C255.631 82.0547 256.406 82.2738 257.028 82.7425C257.643 83.2096 258.183 83.7695 258.626 84.4023C260.216 86.4988 261.506 88.9507 261.582 91.5802C261.911 91.8189 262.386 91.5045 262.549 91.1317C262.712 90.759 262.718 90.3222 262.925 89.967C263.163 89.5564 263.62 89.3351 263.979 89.0264C264.887 88.2431 265.114 86.924 265.079 85.7272C265.044 84.5304 264.811 83.3161 265.039 82.1397C265.175 81.4204 265.484 80.742 265.653 80.0285C265.822 79.3151 265.842 78.5143 265.443 77.8999C264.861 77.0001 263.635 76.8196 262.566 76.7351C261.352 76.6303 260.266 76.7643 259.491 75.7422C259.127 75.2095 258.718 74.7088 258.268 74.2454C258.108 74.0911 256.556 73.1302 256.556 73.0661Z" fill="#512E4E"/>
<g opacity="0.1">
<path d="M263.979 88.3858C263.621 88.6973 263.161 88.9157 262.922 89.3263C262.718 89.6787 262.712 90.1155 262.549 90.4911C262.386 90.8667 261.912 91.1783 261.58 90.9395C261.504 88.3188 260.214 85.8582 258.627 83.7616C258.183 83.1298 257.644 82.5708 257.028 82.1047C256.406 81.6351 255.63 81.415 254.853 81.4874C253.98 81.6068 253.211 82.2008 252.329 82.2765C251.164 82.3726 250.118 81.566 248.962 81.5282C248.493 81.5317 248.029 81.636 247.603 81.8339C247.177 82.0318 246.799 82.3188 246.493 82.6755C245.885 83.3925 245.434 84.2286 245.168 85.1302C244.71 86.4984 244.461 87.9277 244.428 89.37C244.411 90.1824 244.335 91.1958 243.584 91.4986C243.601 91.7147 243.601 91.9319 243.584 92.148C244.344 91.8568 244.42 90.8289 244.437 90.0135C244.47 88.5712 244.719 87.142 245.177 85.7738C245.443 84.8721 245.894 84.036 246.502 83.319C246.808 82.9624 247.186 82.6753 247.612 82.4769C248.038 82.2785 248.501 82.1735 248.971 82.1688C250.136 82.2096 251.184 83.0162 252.337 82.9172C253.211 82.8444 253.985 82.2503 254.862 82.1309C255.638 82.0577 256.414 82.2768 257.037 82.7454C257.653 83.2125 258.192 83.7724 258.636 84.4052C260.223 86.5018 261.513 88.9536 261.588 91.5831C261.92 91.8219 262.395 91.5074 262.558 91.1346C262.721 90.7619 262.727 90.3251 262.931 89.9699C263.17 89.5593 263.63 89.338 263.988 89.0293C264.896 88.246 265.124 86.9269 265.089 85.7301C265.089 85.6922 265.089 85.6573 265.089 85.6194C265.03 86.6619 264.754 87.7189 263.979 88.3858Z" fill="black"/>
<path d="M242.48 88.182C241.813 87.4452 240.899 86.9502 240.284 86.1698C239.765 85.4809 239.47 84.6497 239.437 83.7878C239.346 84.8655 239.646 85.9399 240.284 86.8133C240.899 87.5937 241.813 88.0859 242.48 88.8226C243.124 89.5428 243.511 90.4563 243.581 91.42C243.624 90.834 243.549 90.2452 243.36 89.6888C243.171 89.1324 242.872 88.6199 242.48 88.182Z" fill="black"/>
<path d="M265.653 79.3879C265.481 80.1014 265.175 80.7798 265.036 81.4991C264.952 81.9854 264.921 82.4795 264.945 82.9725C264.955 82.694 264.985 82.4166 265.036 82.1426C265.175 81.4234 265.481 80.7449 265.653 80.0315C265.752 79.6377 265.784 79.2303 265.749 78.8259C265.73 79.0153 265.698 79.2031 265.653 79.3879Z" fill="black"/>
</g>
<path opacity="0.1" d="M267.77 53.6319H255.831V49.9221H261.18V38.8713C261.644 39.0422 262.106 39.2169 262.566 39.3955V49.9221H267.767L267.77 53.6319Z" fill="#246BFD"/>
</g>
<defs>
<linearGradient id="paint0_linear_1231_19471" x1="135.559" y1="243.309" x2="135.559" y2="75.1016" gradientUnits="userSpaceOnUse">
<stop stop-color="#808080" stop-opacity="0.25"/>
<stop offset="0.54" stop-color="#808080" stop-opacity="0.12"/>
<stop offset="1" stop-color="#808080" stop-opacity="0.1"/>
</linearGradient>
<linearGradient id="paint1_linear_1231_19471" x1="251.122" y1="250.673" x2="251.122" y2="71.4907" gradientUnits="userSpaceOnUse">
<stop stop-color="#808080" stop-opacity="0.25"/>
<stop offset="0.54" stop-color="#808080" stop-opacity="0.12"/>
<stop offset="1" stop-color="#808080" stop-opacity="0.1"/>
</linearGradient>
<clipPath id="clip0_1231_19471">
<rect width="340" height="251.262" fill="white"/>
</clipPath>
</defs>
</svg>
