<svg width="340" height="241" viewBox="0 0 340 241" fill="none" xmlns="http://www.w3.org/2000/svg">
<g clip-path="url(#clip0_1231_19641)">
<path opacity="0.1" d="M276.006 240.834C296.667 240.834 313.417 238.678 313.417 236.019C313.417 233.36 296.667 231.204 276.006 231.204C255.344 231.204 238.595 233.36 238.595 236.019C238.595 238.678 255.344 240.834 276.006 240.834Z" fill="#246BFD"/>
<path opacity="0.1" d="M113.036 240.699C129.594 240.699 143.017 238.543 143.017 235.884C143.017 233.224 129.594 231.069 113.036 231.069C96.4784 231.069 83.0557 233.224 83.0557 235.884C83.0557 238.543 96.4784 240.699 113.036 240.699Z" fill="#246BFD"/>
<path opacity="0.1" d="M4.25814 104.058H35.4847V146.619H6.54421C6.46729 147.056 6.39345 147.496 6.31345 147.936H35.4847V182.261C35.4324 182.246 35.3862 182.227 35.337 182.209C34.5124 181.883 33.694 181.538 32.8756 181.169L32.3525 180.932C31.532 180.544 30.7115 180.134 29.8911 179.701C29.6049 179.551 29.3188 179.394 29.0357 179.234C24.4807 176.682 20.3428 173.449 16.7654 169.646C16.6608 169.545 16.5623 169.437 16.4577 169.339C15.9593 168.797 15.47 168.249 14.9962 167.689L14.4732 167.074C13.9132 166.388 13.3717 165.683 12.8455 164.97C12.7686 164.865 12.6948 164.76 12.6148 164.662C10.475 161.695 8.69829 158.482 7.32265 155.093C7.27957 154.991 7.24265 154.881 7.20265 154.785C6.7801 153.698 6.40576 152.601 6.07961 151.493C5.93808 151.028 5.8027 150.57 5.68578 150.087C5.64271 149.945 5.60578 149.807 5.57194 149.669C3.82431 142.847 3.61816 135.761 3.61816 128.725C3.61816 127.903 3.61816 127.079 3.61816 126.263C3.61816 123.417 3.65201 120.553 3.70124 117.691C3.70124 116.95 3.73201 116.211 3.74739 115.467C3.79046 113.578 3.852 111.688 3.932 109.799C3.95046 109.273 3.97507 108.75 4.00277 108.227C4.00277 107.925 4.01815 107.624 4.04892 107.322C4.12276 106.227 4.1843 105.141 4.25814 104.058Z" fill="#246BFD"/>
<path opacity="0.1" d="M4.25814 104.058H35.4847V146.619H6.54421C6.46729 147.056 6.39345 147.496 6.31345 147.936H35.4847V182.261C35.4324 182.246 35.3862 182.227 35.337 182.209C34.5124 181.883 33.694 181.538 32.8756 181.169L32.3525 180.932C31.532 180.544 30.7115 180.134 29.8911 179.701C29.6049 179.551 29.3188 179.394 29.0357 179.234C24.4807 176.682 20.3428 173.449 16.7654 169.646C16.6608 169.545 16.5623 169.437 16.4577 169.339C15.9593 168.797 15.47 168.249 14.9962 167.689L14.4732 167.074C13.9132 166.388 13.3717 165.683 12.8455 164.97C12.7686 164.865 12.6948 164.76 12.6148 164.662C10.475 161.695 8.69829 158.482 7.32265 155.093C7.27957 154.991 7.24265 154.881 7.20265 154.785C6.7801 153.698 6.40576 152.601 6.07961 151.493C5.93808 151.028 5.8027 150.57 5.68578 150.087C5.64271 149.945 5.60578 149.807 5.57194 149.669C3.82431 142.847 3.61816 135.761 3.61816 128.725C3.61816 127.903 3.61816 127.079 3.61816 126.263C3.61816 123.417 3.65201 120.553 3.70124 117.691C3.70124 116.95 3.73201 116.211 3.74739 115.467C3.79046 113.578 3.852 111.688 3.932 109.799C3.95046 109.273 3.97507 108.75 4.00277 108.227C4.00277 107.925 4.01815 107.624 4.04892 107.322C4.12276 106.227 4.1843 105.141 4.25814 104.058Z" fill="#246BFD"/>
<path opacity="0.1" d="M35.4846 57.9856V102.741H4.35645C4.35645 102.612 4.37798 102.479 4.38721 102.35C4.4149 101.996 4.4426 101.642 4.47336 101.292C4.50721 100.879 4.54413 100.464 4.58413 100.061C4.62413 99.6579 4.6672 99.1656 4.71336 98.7195C4.75951 98.2734 4.80258 97.8211 4.85489 97.3749C4.90719 96.9288 4.95335 96.4827 5.00873 96.0396C5.06411 95.5965 5.11334 95.1473 5.1718 94.7043C5.21795 94.335 5.26718 93.9689 5.31641 93.5997C5.38718 93.0797 5.46102 92.5566 5.54102 92.0397C5.54102 91.9628 5.56256 91.8828 5.57486 91.809C6.13644 88.025 6.90162 84.2741 7.86709 80.5725C8.87769 76.6895 10.1682 72.8848 11.7285 69.1883C13.3868 65.3213 15.3284 61.582 17.5375 58.001L35.4846 57.9856Z" fill="#246BFD"/>
<path opacity="0.1" d="M35.4846 80.5601V102.741H4.35645C4.35645 102.612 4.37798 102.479 4.38721 102.35C4.4149 101.996 4.4426 101.642 4.47336 101.292C4.50721 100.879 4.54413 100.464 4.58413 100.061C4.62413 99.6578 4.6672 99.1655 4.71336 98.7194C4.75951 98.2733 4.80258 97.821 4.85489 97.3748C4.90719 96.9287 4.95335 96.4826 5.00873 96.0395C5.06411 95.5964 5.11334 95.1472 5.1718 94.7042C5.21795 94.3349 5.26718 93.9688 5.31641 93.5996C5.38718 93.0796 5.46102 92.5565 5.54102 92.0396C5.54102 91.9627 5.56256 91.8827 5.57486 91.8089C6.13644 88.0249 6.90162 84.274 7.86709 80.5724L35.4846 80.5601Z" fill="#246BFD"/>
<path opacity="0.1" d="M35.4851 56.6687H18.3564C21.1408 52.3106 24.183 48.1228 27.4669 44.1276C30.0114 41.0016 32.6975 37.9555 35.4851 35.0203V56.6687Z" fill="#246BFD"/>
<path opacity="0.1" d="M42.9404 104.055V146.619H109.636V104.055H42.9404ZM42.9404 147.933V184.486C43.322 184.566 43.7004 184.643 44.0758 184.707C44.5865 184.806 45.0942 184.895 45.6142 184.972C45.7126 184.987 45.8142 185.003 45.9219 185.012C46.1249 185.046 46.3342 185.073 46.5372 185.101C47.0511 185.172 47.5618 185.23 48.0756 185.276C48.3187 185.301 48.5648 185.323 48.811 185.341L49.4048 185.387C49.7279 185.412 50.0479 185.43 50.3648 185.439C50.5617 185.439 50.7586 185.458 50.9617 185.464C51.1155 185.464 51.2694 185.464 51.4294 185.464C51.5893 185.464 51.817 185.464 52.0109 185.464C52.2755 185.464 52.5401 185.464 52.8016 185.464H53.1554C53.42 185.464 53.6847 185.464 53.9462 185.439H53.9646C54.1462 185.439 54.3308 185.439 54.5154 185.415C54.5666 185.418 54.618 185.418 54.6692 185.415C54.8231 185.415 54.9769 185.415 55.1246 185.393H55.2323L56.263 185.313C56.6015 185.283 56.943 185.243 57.2876 185.206L57.9891 185.123C60.8431 184.723 63.6654 184.122 66.435 183.326C72.6563 181.59 78.7422 179.163 84.9604 177.384C93.0002 175.092 101.883 173.966 109.652 176.769V147.933H42.9404ZM109.636 56.6687V0.00307864C102.334 -0.0760335 95.0521 0.778029 87.9665 2.54453C71.0779 6.78745 55.9246 15.9902 42.9404 27.7436V56.6656H46.288V57.9794H42.9404V102.741H109.636V57.9825H60.0321V56.6687H109.636ZM195.304 37.5279C191.126 37.3802 186.972 36.0572 183.215 34.0142C176.031 30.1066 170.293 24.073 163.881 18.9809C150.558 8.37508 134.036 1.97531 117.085 0.38768V56.6687H212.297L212.534 56.4195L195.304 37.5279ZM203.978 35.9895L213.174 46.0814V33.3434C210.094 33.7249 207.396 34.6326 203.99 35.9772L203.978 35.9895ZM213.174 193.562V147.933H193.578C193.526 147.739 193.473 147.542 193.412 147.345C193.47 147.542 193.52 147.739 193.575 147.933H117.098V180.932C117.824 181.47 118.541 182.036 119.252 182.612C120.018 183.227 120.775 183.876 121.535 184.513L122.301 185.147C122.667 185.455 123.036 185.762 123.408 186.052C124.147 186.651 124.892 187.241 125.645 187.824C126.017 188.132 126.399 188.409 126.777 188.698C132.786 193.291 139.123 197.437 145.74 201.1C147.223 201.921 148.719 202.722 150.229 203.503C151.235 204.017 152.247 204.528 153.263 205.023C154.789 205.768 156.327 206.486 157.878 207.177C172.175 213.595 187.292 217.999 202.799 220.263C206.243 220.771 209.701 221.171 213.171 221.463V193.559H213.479L213.174 193.562ZM117.098 57.9825V102.741H213.187V57.9825H117.098ZM117.098 104.055V146.619H213.187V104.055H117.098ZM220.645 33.288V47.4967L232.383 34.6172C228.494 33.9895 224.581 33.5414 220.645 33.2726V33.288ZM220.645 104.07V146.619H314.103V104.055L220.645 104.07ZM313.761 196.941L314.091 147.933H220.645V221.952C226.665 222.205 232.694 222.133 238.706 221.737H238.81C241.682 221.556 244.54 221.294 247.385 220.949H247.45C262.628 219.182 277.469 215.222 291.51 209.192M332.124 111.064C331.773 110.236 331.407 109.414 331.035 108.602C330.339 107.064 329.604 105.568 328.847 104.073H321.555V146.619H339.991C339.982 134.57 336.933 122.263 332.133 111.048L332.124 111.064ZM303.193 233.825V275.978C308.386 270.999 312.774 265.304 315.934 258.794C319.734 250.954 321.472 242.465 321.613 233.819L303.193 233.825ZM303.193 177.544V188.621H309.802C318.452 174.186 323.97 158.093 325.996 141.387C328.023 124.682 326.513 107.736 321.564 91.6521L303.193 177.544ZM239.81 127.515C239.324 127.331 238.838 127.143 238.349 126.962C233.189 125.056 227.917 123.472 222.562 122.217L204.599 141.93L222.617 56.4195L222.848 56.6718H286.778C277.874 50.5429 268.275 45.4914 258.182 41.6231L239.81 127.515ZM270.289 143.875H221.955L220.645 145.075V102.741H232.134H232.152H314.115V81.6493C306.701 72.6822 298.143 64.7255 288.661 57.9825L270.289 143.875Z" fill="#246BFD"/>
<path opacity="0.1" d="M322.859 147.936H339.987C339.837 156.579 338.101 165.068 334.304 172.908C331.145 179.421 326.754 185.116 321.566 190.092V163.016H322.859V147.936Z" fill="#246BFD"/>
<path opacity="0.1" d="M42.9404 147.936H66.4196V183.32C63.65 184.115 60.8277 184.715 57.9737 185.113L57.2722 185.2C56.9276 185.24 56.5861 185.273 56.2476 185.307C55.9092 185.341 55.5584 185.366 55.2169 185.387H55.1092C54.9615 185.387 54.8015 185.406 54.6569 185.409H54.5C54.3154 185.409 54.1308 185.427 53.9462 185.433C53.6847 185.449 53.4231 185.452 53.1554 185.455C53.0416 185.455 52.9339 185.455 52.8201 185.455C52.5555 185.455 52.2939 185.455 52.0293 185.455H51.4478C51.2909 185.455 51.1401 185.455 50.9771 185.455L50.3832 185.433C50.0756 185.433 49.7433 185.4 49.4233 185.378L48.8325 185.335L48.0972 185.267C47.5803 185.221 47.0664 185.163 46.5588 185.092L45.9434 185.006L45.6357 184.963C45.1219 184.883 44.6142 184.796 44.0973 184.698C43.7189 184.633 43.3435 184.553 42.962 184.476L42.9404 147.936Z" fill="#246BFD"/>
<path opacity="0.1" d="M213.494 193.572H213.186V221.494C209.72 221.2 206.264 220.801 202.818 220.297C187.303 218.025 172.179 213.612 157.878 207.183C153.749 205.325 149.704 203.296 145.743 201.097C139.127 197.432 132.788 193.287 126.777 188.695C125.268 187.538 123.777 186.354 122.307 185.144C121.288 184.304 120.276 183.443 119.251 182.606C118.541 182.03 117.824 181.464 117.098 180.923V147.936H193.572C193.52 147.739 193.467 147.542 193.412 147.349C193.47 147.542 193.526 147.739 193.578 147.936H213.186V193.553C213.291 193.556 213.393 193.565 213.494 193.572Z" fill="#246BFD"/>
<path opacity="0.1" d="M213.186 211.094V221.478C209.72 221.185 206.263 220.786 202.817 220.281V211.094H213.186Z" fill="#246BFD"/>
<path opacity="0.1" d="M161.545 201.103V207.183H157.874C153.749 205.323 149.705 203.293 145.742 201.094L161.545 201.103Z" fill="#246BFD"/>
<path opacity="0.1" d="M213.186 193.553C213.291 193.553 213.392 193.553 213.494 193.571H213.186V196.694H202.817V183.236H213.186V193.553Z" fill="#246BFD"/>
<path opacity="0.1" d="M161.545 182.615V188.701H126.777C125.267 187.548 123.776 186.365 122.303 185.15C121.285 184.31 120.276 183.449 119.248 182.615H161.545Z" fill="#246BFD"/>
<path opacity="0.1" d="M57.9946 169.034H49.2441V177.784H57.9946V169.034Z" fill="#246BFD"/>
<path opacity="0.1" d="M161.548 164.123H117.098V170.209H161.548V164.123Z" fill="#246BFD"/>
<path opacity="0.1" d="M213.189 155.373H202.817V168.815H213.189V155.373Z" fill="#246BFD"/>
<path opacity="0.1" d="M57.9946 148.708H49.2441V157.459H57.9946V148.708Z" fill="#246BFD"/>
<path opacity="0.1" d="M161.548 147.933H117.098V151.718H161.548V147.933Z" fill="#246BFD"/>
<path opacity="0.1" d="M339.997 146.619H322.859V111.048H332.133C336.933 122.263 339.982 134.571 339.997 146.619Z" fill="#246BFD"/>
<path opacity="0.1" d="M220.645 104.055V146.619H294.07V104.055H220.645ZM314.001 196.722L314.103 163.031H294.07V147.955H220.645V221.952C226.664 222.205 232.693 222.133 238.705 221.737H238.81C241.682 221.556 244.54 221.294 247.385 220.949H247.45C262.628 219.182 277.469 215.222 291.51 209.192" fill="#246BFD"/>
<path opacity="0.1" d="M238.708 221.737V216.094H247.455V220.934L238.708 221.737Z" fill="#246BFD"/>
<path opacity="0.1" d="M280.864 194.513H272.113V203.263H280.864V194.513Z" fill="#246BFD"/>
<path opacity="0.1" d="M247.458 194.513H238.708V203.263H247.458V194.513Z" fill="#246BFD"/>
<path opacity="0.1" d="M29.0479 179.221C29.3278 179.381 29.614 179.529 29.9032 179.689V179.535H32.3647V180.92L32.8877 181.163V179.535H35.3492V182.196C35.3964 182.22 35.4459 182.238 35.4969 182.252V179.221H29.0479Z" fill="#246BFD"/>
<path opacity="0.1" d="M280.864 172.929H272.113V181.68H280.864V172.929Z" fill="#246BFD"/>
<path opacity="0.1" d="M247.458 172.929H238.708V181.68H247.458V172.929Z" fill="#246BFD"/>
<path opacity="0.1" d="M12.6211 164.653C12.698 164.751 12.7719 164.862 12.8519 164.96H14.4795V167.062C14.6549 167.271 14.8272 167.48 15.0056 167.677V164.948H17.4671V169.339H16.4702C16.5686 169.44 16.664 169.548 16.7779 169.646H35.4941V164.653H12.6211ZM20.4393 169.339H17.9778V164.966H20.4393V169.339ZM23.4207 169.339H20.9593V164.966H23.4207V169.339ZM26.4021 169.339H23.9407V164.966H26.4021V169.339ZM29.3805 169.339H26.919V164.966H29.3805V169.339ZM32.3588 169.339H29.8974V164.966H32.3588V169.339ZM35.3372 169.339H32.8757V164.966H35.3372V169.339Z" fill="#246BFD"/>
<path opacity="0.1" d="M280.864 151.345H272.113V160.096H280.864V151.345Z" fill="#246BFD"/>
<path opacity="0.1" d="M247.458 151.345H238.708V160.096H247.458V151.345Z" fill="#246BFD"/>
<path opacity="0.1" d="M5.66797 150.081C5.78796 150.552 5.92334 151.022 6.06488 151.487V150.395H8.52632V154.77H7.20945C7.24945 154.871 7.28945 154.982 7.32945 155.078H35.4854V150.081H5.66797ZM11.5139 154.77H9.05246V150.395H11.5139V154.77ZM14.4892 154.77H12.0277V150.395H14.4892V154.77ZM17.4706 154.77H15.003V150.395H17.4645L17.4706 154.77ZM20.449 154.77H17.9875V150.395H20.449V154.77ZM23.4304 154.77H20.969V150.395H23.4304V154.77ZM26.4118 154.77H23.9504V150.395H26.4118V154.77ZM29.3902 154.77H26.9287V150.395H29.3902V154.77ZM32.3685 154.77H29.9071V150.395H32.3685V154.77ZM35.3469 154.77H32.8854V150.395H35.3469V154.77Z" fill="#246BFD"/>
<path opacity="0.1" d="M213.19 104.055V146.619H117.098V128.26H168.28V139.09H193.827V104.055H213.19Z" fill="#246BFD"/>
<path opacity="0.1" d="M161.548 145.632H117.098V146.619H161.548V145.632Z" fill="#246BFD"/>
<path opacity="0.1" d="M5.53809 135.512V140.512H35.4847V135.512H5.53809ZM8.52259 140.201H6.07961V135.823H8.54105L8.52259 140.201ZM11.504 140.201H9.04257V135.823H11.504V140.201ZM14.4793 140.201H12.0179V135.823H14.4793V140.201ZM17.4607 140.201H15.0024V135.823H17.4638L17.4607 140.201ZM20.4391 140.201H17.9776V135.823H20.4391V140.201ZM23.4205 140.201H20.9591V135.823H23.4205V140.201ZM26.4019 140.201H23.9405V135.823H26.4019V140.201ZM29.3803 140.201H26.9188V135.823H29.3803V140.201ZM32.3587 140.201H29.8972V135.823H32.3587V140.201ZM35.337 140.201H32.8756V135.823H35.337V140.201Z" fill="#246BFD"/>
<path opacity="0.1" d="M280.864 129.765H272.113V138.515H280.864V129.765Z" fill="#246BFD"/>
<path opacity="0.1" d="M247.458 129.765H238.708V138.515H247.458V129.765Z" fill="#246BFD"/>
<path opacity="0.1" d="M213.189 127.509H202.817V140.952H213.189V127.509Z" fill="#246BFD"/>
<path opacity="0.1" d="M247.458 108.181H238.708V116.931H247.458V108.181Z" fill="#246BFD"/>
<path opacity="0.1" d="M213.189 104.055H202.817V113.085H213.189V104.055Z" fill="#246BFD"/>
<path opacity="0.1" d="M66.4194 104.055H42.9434V146.616H66.4194V104.055Z" fill="#246BFD"/>
<path opacity="0.1" d="M57.9946 128.383H49.2441V137.134H57.9946V128.383Z" fill="#246BFD"/>
<path opacity="0.1" d="M5.53809 120.94V125.955H35.4847V120.94H5.53809ZM8.52259 125.629H6.07961V121.254H8.54105L8.52259 125.629ZM11.504 125.629H9.04257V121.254H11.504V125.629ZM14.4793 125.629H12.0179V121.254H14.4793V125.629ZM17.4607 125.629H15.0024V121.254H17.4638L17.4607 125.629ZM20.4391 125.629H17.9776V121.254H20.4391V125.629ZM23.4205 125.629H20.9591V121.254H23.4205V125.629ZM26.4019 125.629H23.9405V121.254H26.4019V125.629ZM29.3803 125.629H26.9188V121.254H29.3803V125.629ZM32.3587 125.629H29.8972V121.254H32.3587V125.629ZM35.337 125.629H32.8756V121.254H35.337V125.629Z" fill="#246BFD"/>
<path opacity="0.1" d="M280.864 108.181H272.113V116.931H280.864V108.181Z" fill="#246BFD"/>
<path opacity="0.1" d="M57.9946 108.061H49.2441V116.811H57.9946V108.061Z" fill="#246BFD"/>
<path opacity="0.1" d="M5.53809 106.368V111.374H35.4847V106.368H5.53809ZM8.52259 111.057H6.07961V106.685H8.54105L8.52259 111.057ZM11.504 111.057H9.04257V106.685H11.504V111.057ZM14.4793 111.057H12.0179V106.685H14.4793V111.057ZM17.4607 111.057H15.0024V106.685H17.4638L17.4607 111.057ZM20.4391 111.057H17.9776V106.685H20.4391V111.057ZM23.4205 111.057H20.9591V106.685H23.4205V111.057ZM26.4019 111.057H23.9405V106.685H26.4019V111.057ZM29.3803 111.057H26.9188V106.685H29.3803V111.057ZM32.3587 111.057H29.8972V106.685H32.3587V111.057ZM35.337 111.057H32.8756V106.685H35.337V111.057Z" fill="#246BFD"/>
<path opacity="0.1" d="M213.186 59.8625H193.827V102.738H213.186V59.8625Z" fill="#246BFD"/>
<path opacity="0.1" d="M213.189 99.6455H202.817V102.741H213.189V99.6455Z" fill="#246BFD"/>
<path opacity="0.1" d="M5.53809 91.8027V96.8087H35.4847V91.8027H5.53809ZM8.52259 96.4949H6.07961V92.1104H8.54105L8.52259 96.4949ZM11.504 96.4949H9.04257V92.1104H11.504V96.4949ZM14.4793 96.4949H12.0179V92.1104H14.4793V96.4949ZM17.4607 96.4949H15.0024V92.1104H17.4638L17.4607 96.4949ZM20.4391 96.4949H17.9776V92.1104H20.4391V96.4949ZM23.4205 96.4949H20.9591V92.1104H23.4205V96.4949ZM26.4019 96.4949H23.9405V92.1104H26.4019V96.4949ZM29.3803 96.4949H26.9188V92.1104H29.3803V96.4949ZM32.3587 96.4949H29.8972V92.1104H32.3587V96.4949ZM35.337 96.4949H32.8756V92.1104H35.337V96.4949Z" fill="#246BFD"/>
<path opacity="0.1" d="M213.189 71.782H202.817V85.2246H213.189V71.782Z" fill="#246BFD"/>
<path opacity="0.1" d="M294.07 102.741H232.139C232.139 102.741 232.139 102.741 232.161 102.756L232.133 102.741H220.645V59.8655H223.9V91.5567H238.776V72.7881H251.065V57.9856H263.68V72.8004H275.969V91.569H294.07V102.741Z" fill="#246BFD"/>
<path opacity="0.1" d="M66.4196 64.3916V102.741H42.9404V64.3916H46.288V51.4075H60.029V64.3916H66.4196Z" fill="#246BFD"/>
<path opacity="0.1" d="M57.9946 87.7354H49.2441V96.4858H57.9946V87.7354Z" fill="#246BFD"/>
<path opacity="0.1" d="M57.9946 67.4099H49.2441V76.1604H57.9946V67.4099Z" fill="#246BFD"/>
<path opacity="0.1" d="M232.139 102.741H232.158H232.139ZM213.186 193.55H213.494H213.186ZM193.411 147.345C193.47 147.542 193.519 147.739 193.574 147.933C193.525 147.739 193.473 147.542 193.411 147.345ZM232.139 102.732H232.158H232.139ZM46.2998 56.6594V57.9732H60.0439V56.6594H46.2998ZM213.186 193.55H213.494H213.186ZM193.411 147.345C193.47 147.542 193.519 147.739 193.574 147.933C193.525 147.739 193.473 147.542 193.411 147.345ZM232.139 102.732H232.158H232.139ZM213.186 193.541H213.494H213.186ZM193.411 147.345C193.47 147.542 193.519 147.739 193.574 147.933C193.525 147.739 193.473 147.542 193.411 147.345Z" fill="#246BFD"/>
<path d="M142.026 116.817C142.026 116.817 140.813 116.648 140.813 114.882C140.813 113.116 139.946 109.818 139.946 109.818C139.946 109.802 139.195 104.073 138.158 103.162C137.121 102.252 135.789 96.9041 135.789 96.9041C135.789 96.9041 135.561 94.0027 135.097 93.3781C134.632 92.7535 134.004 91.2243 133.078 89.0429C132.152 86.8614 128.291 85.3507 128.291 85.3507C128.291 85.3507 121.309 81.3016 119.331 79.9817C119.151 79.8732 118.983 79.7464 118.83 79.6032C118.485 79.1509 116.983 79.1417 116.983 79.1417C116.827 78.151 116.676 77.0125 116.627 75.9818C116.627 75.871 116.627 75.7603 116.611 75.6495C118.817 74.3455 120.479 72.2895 121.291 69.859C121.328 69.742 121.359 69.619 121.393 69.502C121.525 69.4585 121.646 69.3879 121.75 69.2946C121.853 69.2014 121.936 69.0876 121.993 68.9605C122.171 68.5636 122.174 68.099 122.396 67.7298C122.654 67.2929 123.146 67.0591 123.534 66.7298C124.512 65.8991 124.765 64.4992 124.719 63.2254C124.688 62.1946 124.522 61.1547 124.586 60.1301L124.605 59.8716C124.623 59.7178 124.645 59.5639 124.672 59.4163C124.823 58.6532 125.152 57.9332 125.337 57.1763C125.522 56.4194 125.54 55.5672 125.109 54.9149C124.479 53.958 123.165 53.7672 122.011 53.6688C120.703 53.558 119.534 53.7026 118.697 52.6165C118.306 52.0488 117.865 51.5166 117.38 51.0258C117.208 50.8658 115.534 49.8443 115.534 49.7766C113.901 49.02 112.049 48.878 110.319 49.3766C109.451 49.6289 108.633 50.0412 107.753 50.2474C105.855 50.6966 103.67 50.2104 102.058 51.2966C101.159 51.9119 100.621 52.8903 100.116 53.8442C99.7062 54.6298 99.2898 55.4144 98.8672 56.1979C98.1872 57.4871 97.495 58.7978 97.2088 60.2255C97.1486 60.5361 97.1116 60.8508 97.0981 61.167V61.1824C97.0981 61.2962 97.0981 61.41 97.0981 61.5239V61.6685C97.0981 61.7762 97.0981 61.8808 97.1165 61.9762C97.135 62.0715 97.1319 62.1023 97.1411 62.1669C97.1504 62.2315 97.1657 62.3761 97.1842 62.4746C97.2027 62.5731 97.2396 62.7454 97.2765 62.8807C97.2919 62.9392 97.3134 62.9946 97.3319 63.05C97.3627 63.1546 97.3996 63.2561 97.4396 63.3577C97.4611 63.41 97.4826 63.4653 97.5073 63.5177C97.5534 63.6253 97.6088 63.73 97.6642 63.8253C97.6888 63.8684 97.7073 63.9084 97.7319 63.9484C97.8177 64.0915 97.9122 64.2292 98.0149 64.3607C98.6734 65.1822 99.6426 65.7053 100.359 66.4745C100.359 66.5052 100.359 66.536 100.359 66.5637C100.359 66.6498 100.359 66.7329 100.359 66.8191C100.398 68.5345 100.854 70.2148 101.69 71.7135C102.525 73.2123 103.714 74.4843 105.153 75.4188C105.153 75.5357 105.169 75.6557 105.175 75.7726C105.235 76.6859 105.223 77.6025 105.141 78.514C105.016 78.3665 104.859 78.2489 104.682 78.1701C104.505 78.0913 104.313 78.0532 104.119 78.0587C103.987 78.0522 103.855 78.0636 103.725 78.0925L103.698 78.071V78.0987C103.021 78.2648 102.187 78.9694 101.39 80.9724C101.39 80.9724 98.9657 83.7046 97.1196 83.5908C95.2735 83.4769 90.5998 86.4337 90.5998 86.4337C90.5998 86.4337 86.04 89.3936 85.0616 92.4089C84.5147 94.1187 83.859 95.7918 83.0986 97.418L77.4618 109.033L76.4219 118.248C76.4219 118.248 76.9972 122.346 76.8834 122.971C76.7696 123.595 79.2495 129.229 79.2495 129.229C79.2495 129.229 87.443 143.626 90.7906 144.364L91.0306 144.195C91.1738 144.27 91.3257 144.326 91.4829 144.364L92.1721 143.878C92.2135 144.42 92.1959 144.964 92.1198 145.502C91.6583 146.924 92.2921 156.2 93.0982 158.019C93.9043 159.837 93.6182 183.679 93.6182 183.679L93.5043 185.784C93.5043 185.784 93.5043 185.852 93.532 185.969L93.5043 186.467L93.5874 186.51C93.6737 187.178 93.6456 187.855 93.5043 188.513C93.2151 189.436 93.0982 192.045 93.0982 192.045C93.0982 192.045 90.7937 206.777 91.8859 209.737C92.9782 212.697 93.9074 215.94 93.9074 215.94C93.9074 215.94 95.0612 219.632 93.9628 220.263C92.8644 220.893 89.7414 221.952 90.3844 223.49C90.969 224.912 93.1874 228.721 93.5166 229.278L93.4889 229.57L93.0367 234.471C93.1099 235.119 93.2854 235.75 93.5566 236.342C94.052 237.41 95.015 238.517 96.8458 238.397C97.1534 238.376 97.5103 238.339 97.8549 238.293C101.206 237.844 105.332 236.348 105.332 236.348C105.117 236.212 104.921 236.05 104.747 235.865C104.582 235.706 104.452 235.514 104.363 235.303C104.275 235.091 104.231 234.864 104.233 234.635C104.282 233.742 102.612 229.49 102.196 228.444C102.132 228.293 102.098 228.207 102.098 228.207C102.098 228.207 105.907 224.226 105.273 220.697C105.273 220.697 101.058 218.235 102.446 216.884C103.833 215.534 106.313 211.654 106.313 211.654C106.313 211.654 106.427 197.147 106.313 194.981C106.194 193.477 106.266 191.965 106.525 190.479C106.572 190.255 106.627 190.036 106.685 189.821C108.604 190.107 110.542 190.254 112.482 190.261C113.19 190.261 113.91 190.261 114.636 190.218C114.636 190.423 114.645 190.644 114.664 190.882C114.824 194.476 115.122 200.777 115.365 203.119C115.71 206.476 117.614 215.521 117.614 215.521C117.614 215.521 113.981 217.854 118.248 223.601C118.248 223.601 118.248 225.684 117.965 225.986C117.663 226.971 117.419 227.974 117.236 228.989C117.057 230.072 116.983 231.167 117.273 231.736C117.965 233.096 122.119 232.985 122.119 232.985L122.22 232.967C123.004 232.886 123.797 232.961 124.552 233.189C125.306 233.417 126.008 233.792 126.617 234.293C128.195 235.561 134.186 235.004 137.429 234.601C138.7 234.441 139.549 234.293 139.549 234.293C139.59 234.149 139.605 233.999 139.592 233.85C139.558 233.053 138.933 231.305 134.7 229.745C134.7 229.745 130.718 227.069 130.774 224.736H130.691H130.229C130.565 224.718 130.78 224.736 130.78 224.736C130.78 224.736 129.22 219.044 129.857 218.583C130.494 218.121 128.586 211.814 128.586 211.814C128.586 211.814 127.494 201.23 127.435 200.488C127.438 199.852 127.534 199.219 127.722 198.611L127.435 192.808C127.435 192.808 127.38 190.879 127.435 190.252C127.426 189.707 127.382 189.163 127.303 188.624C127.275 188.409 127.248 188.184 127.217 187.962C128.709 187.584 129.678 187.233 129.678 187.233L129.506 167.034C130.774 164.572 131.008 159.173 131.001 155.342C131.001 152.881 130.891 151.059 130.891 151.059L132.623 148.232C132.623 148.232 133.023 144.847 132.389 144.105C132.109 143.77 132.235 143.422 132.466 143.136C132.586 143.041 132.712 142.955 132.844 142.878C132.844 142.878 132.826 142.85 132.804 142.81C132.925 142.709 133.054 142.618 133.189 142.536C133.189 142.536 132.574 141.583 133.124 141.179C133.641 141.53 134.103 141.795 134.454 142.01C134.429 142.235 134.404 142.364 134.404 142.364L134.552 142.056C134.891 142.247 135.097 142.364 135.097 142.364C135.097 142.364 137.81 136.958 137.752 136.161C137.694 135.364 139.598 132.007 139.598 132.007C139.598 132.007 139.829 130.244 140.869 129.506C141.909 128.768 141.675 123.417 141.675 123.417C141.675 123.417 141.964 120.629 142.656 119.491C143.349 118.353 142.026 116.817 142.026 116.817ZM90.1014 114.445L90.1537 115.734C89.846 115.239 89.6245 114.882 89.6245 114.882L90.1014 114.445Z" fill="url(#paint0_linear_1231_19641)"/>
<path d="M105.372 236.367C105.372 236.367 100.449 238.176 97.0643 238.404C95.2675 238.524 94.3229 237.422 93.8368 236.361C93.5712 235.771 93.3999 235.142 93.3291 234.499L93.7691 229.622L94.0029 227.026L101.193 225.158L102.212 228.272L102.307 228.509C102.716 229.549 104.356 233.779 104.307 234.662C104.305 234.888 104.349 235.113 104.436 235.321C104.522 235.53 104.65 235.719 104.812 235.878C104.977 236.064 105.165 236.228 105.372 236.367Z" fill="white"/>
<path opacity="0.1" d="M105.372 236.367C105.372 236.367 100.449 238.176 97.0643 238.404C95.2675 238.524 94.3229 237.422 93.8398 236.358C95.0921 236.779 96.8305 237.222 97.7443 236.816C98.8274 236.336 102.667 236.025 104.821 235.893C104.985 236.073 105.17 236.232 105.372 236.367Z" fill="black"/>
<path d="M138.998 233.887C139.01 234.035 138.995 234.184 138.954 234.327C138.954 234.327 128.426 236.084 126.272 234.327C125.665 233.814 124.957 233.433 124.194 233.209C123.431 232.986 122.629 232.924 121.841 233.029C121.841 233.029 117.768 233.139 117.088 231.798C116.805 231.235 116.878 230.142 117.054 229.066C117.233 228.057 117.471 227.059 117.768 226.078L117.931 225.949L118.9 225.17L130.247 224.835H130.333C130.278 227.155 134.185 229.816 134.185 229.816C138.336 231.355 138.948 233.093 138.998 233.887Z" fill="white"/>
<path opacity="0.1" d="M138.998 233.887C139.009 234.035 138.993 234.184 138.952 234.327C138.952 234.327 128.426 236.084 126.272 234.327C125.665 233.814 124.958 233.434 124.196 233.21C123.433 232.986 122.632 232.925 121.845 233.028C121.845 233.028 117.768 233.139 117.091 231.798C116.808 231.232 116.879 230.142 117.054 229.065C118.623 229.222 121.1 229.613 122.072 230.545C123.543 231.964 126.035 233.379 127.564 233.49C128.761 233.567 135.921 233.794 138.998 233.887Z" fill="black"/>
<path opacity="0.1" d="M102.298 228.509L102.203 228.613C98.4119 224.029 93.8275 229.742 93.8275 229.742L93.7598 229.622L93.9936 227.026L101.184 225.158L102.203 228.272L102.298 228.509Z" fill="black"/>
<path opacity="0.1" d="M130.336 225.158C130.336 225.158 127.567 225.1 126.09 226.404C124.614 227.709 117.475 226.687 117.783 226.404C117.874 226.264 117.929 226.103 117.943 225.937L118.912 225.158L130.26 224.823C130.303 225.029 130.336 225.158 130.336 225.158Z" fill="black"/>
<path opacity="0.1" d="M40.8389 234.019C57.3966 234.019 70.8193 231.863 70.8193 229.204C70.8193 226.545 57.3966 224.389 40.8389 224.389C24.2811 224.389 10.8584 226.545 10.8584 229.204C10.8584 231.863 24.2811 234.019 40.8389 234.019Z" fill="#246BFD"/>
<path d="M130.337 224.82C130.337 224.82 127.568 224.761 126.091 226.05C124.614 227.339 117.476 226.333 117.784 226.05C118.091 225.767 118.067 223.672 118.067 223.672C113.879 217.955 117.451 215.635 117.451 215.635C117.451 215.635 115.581 206.636 115.242 203.297C115.005 200.965 114.713 194.698 114.556 191.119C114.488 189.581 114.448 188.522 114.448 188.522L117.87 187.833L118.31 187.744L126.562 186.089C126.562 186.089 126.789 187.627 126.943 188.885C127.02 189.423 127.063 189.964 127.072 190.507C127.017 191.122 127.072 193.048 127.072 193.048L127.352 198.824C127.169 199.429 127.075 200.058 127.072 200.691C127.128 201.427 128.202 211.955 128.202 211.955C128.202 211.955 130.069 218.238 129.432 218.691C128.795 219.143 130.337 224.82 130.337 224.82Z" fill="#246BFD"/>
<path d="M107.015 189.156C106.808 189.666 106.652 190.195 106.547 190.735C106.29 192.213 106.219 193.718 106.335 195.215C106.448 197.368 106.335 211.802 106.335 211.802C106.335 211.802 103.901 215.651 102.544 217.008C101.187 218.364 105.313 220.801 105.313 220.801C105.928 224.309 102.199 228.272 102.199 228.272C98.4087 223.687 93.8243 229.404 93.8243 229.404C93.8243 229.404 91.332 225.097 90.7105 223.558C90.089 222.02 93.1443 220.955 94.2181 220.331C95.2919 219.706 94.1658 216.023 94.1658 216.023C94.1658 216.023 93.2581 212.795 92.1812 209.851C91.1044 206.906 93.3689 192.249 93.3689 192.249C93.3689 192.249 93.4858 189.646 93.7658 188.738C93.9071 188.083 93.9352 187.409 93.8489 186.744C93.8304 186.519 93.8089 186.332 93.7935 186.206C93.7781 186.079 93.7658 186.021 93.7658 186.021L93.8089 185.947L95.3473 183.08C95.3473 183.08 107.753 187.35 107.015 189.156Z" fill="#246BFD"/>
<path opacity="0.1" d="M96.2764 221.509C96.2764 221.509 99.2486 219.641 101.199 220.998C103.15 222.355 96.2764 221.509 96.2764 221.509Z" fill="black"/>
<path opacity="0.1" d="M119.371 215.734C119.371 215.734 122.002 215.395 124.211 217.774C126.42 220.152 119.371 215.734 119.371 215.734Z" fill="black"/>
<path d="M135.244 140.029L134.58 142.859C134.58 142.859 129.257 140.143 128.297 136.69C127.337 133.238 129.903 131.927 129.903 131.927L134.863 134.029L135.244 140.029Z" fill="white"/>
<path opacity="0.1" d="M135.244 140.029L134.58 142.859C134.58 142.859 129.257 140.143 128.297 136.69C127.337 133.238 129.903 131.927 129.903 131.927L134.863 134.029L135.244 140.029Z" fill="black"/>
<path d="M112.676 90.5722C108.615 88.9938 103.391 83.7786 104.695 81.3418C104.985 80.7268 105.157 80.0631 105.203 79.3849C105.287 78.4642 105.299 77.5384 105.24 76.6158C105.148 75.1048 104.966 73.6006 104.695 72.1113C104.695 72.1113 117.375 72.3975 116.636 74.2651C116.421 74.8128 116.387 75.7635 116.445 76.8281C116.504 77.8927 116.658 79.0957 116.818 80.1141C117.039 81.511 117.261 82.5756 117.261 82.5756C117.261 82.5756 116.485 83.6617 116.03 83.7201C115.575 83.7786 118.504 92.8213 112.676 90.5722Z" fill="#CF6F80"/>
<path opacity="0.1" d="M112.676 90.572C108.615 88.9936 103.391 83.7784 104.695 81.3416C104.985 80.7267 105.157 80.063 105.203 79.3848L110.763 83.9538L114.202 86.7753L116.818 80.117C117.039 81.5139 117.261 82.5785 117.261 82.5785C117.261 82.5785 116.485 83.6646 116.03 83.7231C115.575 83.7815 118.504 92.8212 112.676 90.572Z" fill="black"/>
<path d="M127.054 110.765L122.411 188.762L116.356 189.159L100.677 143.933L103.249 90.2397L103.79 78.8955L110.763 84.6214L114.205 87.4429L116.898 80.5908L121.904 84.9537L127.054 110.765Z" fill="#246BFD"/>
<path opacity="0.1" d="M117.94 190.747C116.814 190.939 115.678 191.068 114.537 191.135C114.47 189.596 114.43 188.538 114.43 188.538L117.851 187.849L117.94 190.747Z" fill="black"/>
<path opacity="0.1" d="M126.925 188.901C124.737 189.47 121.359 190.11 118.334 189.71L118.291 187.759L126.543 186.104C126.543 186.104 126.771 187.627 126.925 188.901Z" fill="black"/>
<path opacity="0.1" d="M107.014 189.156C106.808 189.666 106.651 190.195 106.547 190.734C102.141 190.054 97.8613 188.717 93.8516 186.768L93.7686 186.725L93.7962 186.23L93.8116 185.972L95.35 183.104C95.35 183.104 107.753 187.35 107.014 189.156Z" fill="black"/>
<path opacity="0.1" d="M118.279 190.067C105.664 192.221 94.1103 186.046 94.1103 186.046L94.2211 183.953C94.2211 183.953 94.5073 160.234 93.7134 158.416C92.9196 156.597 92.3012 147.376 92.7504 145.961C93.1996 144.546 91.1105 123.322 91.1105 123.322L90.772 114.707L78.3848 109.688L83.923 98.1441C84.6711 96.5256 85.3144 94.8607 85.8491 93.1597C86.8122 90.1629 91.2828 87.2184 91.2828 87.2184C91.2828 87.2184 95.8672 84.2769 97.6794 84.3877C99.4917 84.4985 101.867 81.7847 101.867 81.7847C103.621 77.3141 105.208 79.3386 105.208 79.3386C105.208 79.5509 105.208 79.3386 105.122 80.0002C104.507 84.9077 115.073 100.415 115.223 100.689L116.23 125.199L117.248 156.216L118.279 190.067Z" fill="black"/>
<path d="M117.94 190.067C105.325 192.221 93.7688 186.045 93.7688 186.045L93.8827 183.953C93.8827 183.953 94.1688 160.234 93.3719 158.416C92.575 156.597 91.9597 147.376 92.412 145.961C92.8643 144.545 90.772 123.322 90.772 123.322L90.4305 114.706L78.0371 109.67L83.5754 98.1256C84.3218 96.5063 84.9651 94.8415 85.5015 93.1411C86.4614 90.1443 90.9351 87.1998 90.9351 87.1998C90.9351 87.1998 95.5196 84.2584 97.3287 84.3691C99.1379 84.4799 101.516 81.7662 101.516 81.7662C103.273 77.2955 105.208 79.3201 105.208 79.3201C105.208 79.5324 105.024 79.6278 105.122 79.9816C106.476 84.7414 114.734 100.396 114.885 100.67L115.903 125.18L116.922 156.197L117.94 190.067Z" fill="white"/>
<path opacity="0.1" d="M94.1103 141.613C94.2795 141.613 102.882 140.709 102.882 140.709C102.882 140.709 108.091 150.951 107.75 153.444C107.408 155.936 106.79 158.142 104.694 157.751C102.599 157.36 93.418 158.059 93.418 158.059L94.1103 141.613Z" fill="black"/>
<path d="M93.7685 140.933C93.9377 140.933 102.54 140.029 102.54 140.029C102.54 140.029 107.746 150.275 107.408 152.764C107.07 155.253 106.445 157.462 104.353 157.071C102.26 156.681 93.0762 157.379 93.0762 157.379L93.7685 140.933Z" fill="white"/>
<path opacity="0.1" d="M113.867 137.86C114.326 137.86 114.698 137.488 114.698 137.029C114.698 136.57 114.326 136.198 113.867 136.198C113.408 136.198 113.036 136.57 113.036 137.029C113.036 137.488 113.408 137.86 113.867 137.86Z" fill="black"/>
<path d="M100.251 136.124C100.251 136.124 108.146 140.367 108.316 141.663C108.485 142.958 104.297 141.096 103.393 140.872C102.797 140.728 102.191 140.634 101.581 140.589L95.5469 140.752L100.251 136.124Z" fill="#CF6F80"/>
<path d="M113.867 137.518C114.326 137.518 114.698 137.146 114.698 136.687C114.698 136.229 114.326 135.857 113.867 135.857C113.408 135.857 113.036 136.229 113.036 136.687C113.036 137.146 113.408 137.518 113.867 137.518Z" fill="#3F3D56"/>
<path opacity="0.1" d="M113.165 119.879C113.624 119.879 113.995 119.507 113.995 119.048C113.995 118.589 113.624 118.217 113.165 118.217C112.706 118.217 112.334 118.589 112.334 119.048C112.334 119.507 112.706 119.879 113.165 119.879Z" fill="black"/>
<path d="M113.165 119.54C113.624 119.54 113.995 119.168 113.995 118.71C113.995 118.251 113.624 117.879 113.165 117.879C112.706 117.879 112.334 118.251 112.334 118.71C112.334 119.168 112.706 119.54 113.165 119.54Z" fill="#3F3D56"/>
<path opacity="0.1" d="M81.929 115.633L78.7137 109.688L77.6953 118.86C77.6953 118.86 78.2614 122.934 78.1476 123.558C78.0338 124.183 80.4675 129.783 80.4675 129.783C80.4675 129.783 88.5072 144.102 91.7902 144.841L102.882 136.915L99.9407 133.18C99.9407 133.18 98.9222 132.783 98.6669 133.18C98.6669 133.18 93.2055 123.783 92.6394 123.103C92.0732 122.423 92.184 121.066 92.184 121.066C92.184 121.066 91.3348 120.162 91.6179 119.312C91.901 118.463 89.9779 115.519 89.9779 115.519L91.7317 113.879L81.929 115.633Z" fill="black"/>
<path d="M78.8833 109.011L78.034 109.688L77.0156 118.86C77.0156 118.86 77.5818 122.934 77.4679 123.559C77.3541 124.183 79.7909 129.783 79.7909 129.783C79.7909 129.783 87.8275 144.103 91.1105 144.841L102.205 136.915L99.261 133.18C99.261 133.18 98.2425 132.783 97.9872 133.18C97.9872 133.18 92.5258 123.783 91.9597 123.103C91.3936 122.423 91.5074 121.066 91.5074 121.066C91.5074 121.066 90.6582 120.162 90.9413 119.313C91.2243 118.463 89.2983 115.519 89.2983 115.519L91.052 113.879L78.8833 109.011Z" fill="white"/>
<path opacity="0.1" d="M114.54 101.369C113.183 100.803 105.996 92.5967 105.996 92.5967V90.7291C105.734 90.1138 104.18 90.4891 102.919 90.9199L103.46 79.5757L104.076 80.0864C105.423 84.8432 114.383 101.095 114.54 101.369Z" fill="black"/>
<path d="M114.882 100.689C113.522 100.122 106.335 91.9166 106.335 91.9166V90.0489C106.073 89.4336 104.519 89.809 103.258 90.2397L103.802 78.8955L104.418 79.4063C105.768 84.163 114.731 100.418 114.882 100.689Z" fill="white"/>
<path opacity="0.1" d="M112.338 101.898C112.796 101.898 113.168 101.526 113.168 101.067C113.168 100.608 112.796 100.236 112.338 100.236C111.879 100.236 111.507 100.608 111.507 101.067C111.507 101.526 111.879 101.898 112.338 101.898Z" fill="black"/>
<path d="M112.338 101.559C112.796 101.559 113.168 101.187 113.168 100.729C113.168 100.27 112.796 99.8979 112.338 99.8979C111.879 99.8979 111.507 100.27 111.507 100.729C111.507 101.187 111.879 101.559 112.338 101.559Z" fill="#3F3D56"/>
<path d="M132.315 140.416C132.315 140.416 132.882 141.266 132.315 141.663C131.749 142.059 132.371 143.019 132.371 143.019C132.371 143.019 130.959 143.847 131.58 144.592C132.202 145.336 131.808 148.699 131.808 148.699L130.109 151.511C130.109 151.511 130.211 153.324 130.217 155.773C130.217 159.594 129.992 164.966 128.749 167.415L128.922 187.51C128.922 187.51 122.974 189.682 117.996 189.021L117.258 156.776C117.258 156.776 118.334 138.49 118.731 134.983C118.964 133.162 119.058 131.326 119.014 129.491C119.014 129.491 118.845 124.002 118.276 121.454C118.276 121.454 117.661 110.418 117.599 107.362C117.571 105.901 117.648 101.636 117.734 97.5811C117.83 93.1474 117.937 88.966 117.937 88.966L116.814 80.0801C116.814 80.0801 117.937 79.9663 118.276 80.4186C118.428 80.5602 118.592 80.687 118.768 80.797C120.707 82.1078 127.556 86.1384 127.556 86.1384C127.556 86.1384 131.346 87.646 132.254 89.806C133.162 91.9659 133.792 93.4981 134.232 94.1135C134.672 94.7289 134.912 97.6211 134.912 97.6211C134.912 97.6211 136.217 102.944 137.235 103.845C138.254 104.747 138.998 110.482 138.998 110.482L129.999 117.559C129.999 117.559 129.208 129.331 129.039 129.786C128.869 130.241 132.315 140.416 132.315 140.416Z" fill="white"/>
<path d="M132.657 140.417C132.657 140.417 133.22 141.266 132.657 141.663C132.094 142.06 132.709 143.02 132.709 143.02C132.709 143.02 131.306 143.856 131.922 144.601C132.537 145.346 132.149 148.709 132.149 148.709L130.451 151.521C130.451 151.521 130.552 153.333 130.562 155.782C130.562 159.604 130.337 164.976 129.094 167.425L129.263 187.519C129.263 187.519 123.307 189.692 118.334 189.03L117.599 156.785C117.599 156.785 118.676 138.5 119.073 134.992C119.305 133.171 119.399 131.335 119.353 129.5C119.353 129.5 119.184 124.011 118.618 121.463C118.618 121.463 118.002 110.427 117.938 107.372C117.91 105.91 117.99 101.646 118.073 97.5904C118.168 93.1567 118.276 88.9753 118.276 88.9753L116.793 79.9695C116.793 79.9695 118.276 79.9695 118.618 80.4279C118.768 80.5712 118.933 80.6981 119.11 80.8064C121.048 82.1171 127.9 86.1477 127.9 86.1477C127.9 86.1477 131.688 87.6554 132.595 89.8153C133.503 91.9752 134.134 93.5075 134.577 94.1228C135.02 94.7382 135.254 97.6304 135.254 97.6304C135.254 97.6304 136.558 102.953 137.577 103.855C138.595 104.756 139.331 110.479 139.331 110.479L130.331 117.556C130.331 117.556 129.54 129.328 129.368 129.783C129.196 130.238 132.657 140.417 132.657 140.417Z" fill="white"/>
<path opacity="0.1" d="M131.58 144.942C132.196 145.69 131.808 149.047 131.808 149.047L130.109 151.859C130.109 151.859 130.211 153.674 130.217 156.121L127.362 157.013C127.104 157.093 126.83 157.111 126.564 157.064C126.298 157.018 126.046 156.908 125.831 156.745C125.616 156.581 125.443 156.369 125.326 156.125C125.21 155.881 125.154 155.612 125.162 155.342L125.654 139.463L132.316 142.01C131.749 142.404 132.371 143.37 132.371 143.37C132.371 143.37 130.959 144.195 131.58 144.942Z" fill="black"/>
<path d="M131.921 144.601C132.536 145.349 132.149 148.709 132.149 148.709L130.45 151.521C130.45 151.521 130.552 153.333 130.561 155.782L127.654 156.69C127.401 156.768 127.133 156.785 126.872 156.739C126.612 156.694 126.366 156.586 126.155 156.426C125.944 156.266 125.775 156.058 125.661 155.819C125.547 155.58 125.492 155.317 125.5 155.053L125.995 139.124L132.66 141.672C132.09 142.066 132.712 143.029 132.712 143.029C132.712 143.029 131.306 143.856 131.921 144.601Z" fill="white"/>
<path d="M41.8042 136.961H39.875V180.397H41.8042V136.961Z" fill="#535461"/>
<path d="M53.9276 180.264L53.8076 182.221L53.6353 184.99L53.5646 186.141L53.3953 188.91L53.3215 190.061L53.1492 192.83L51.2046 224.235C51.1201 225.586 50.5239 226.854 49.5373 227.782C48.5507 228.709 47.2479 229.225 45.8941 229.226H35.7837C34.4301 229.225 33.1277 228.709 32.1416 227.781C31.1555 226.854 30.5599 225.586 30.4762 224.235L28.5408 192.808L28.3685 190.039L28.2978 188.889L28.1255 186.119L28.0547 184.969L27.8824 182.2L27.7593 180.243C27.738 179.866 27.7938 179.489 27.9233 179.135C28.0529 178.78 28.2535 178.456 28.5128 178.182C28.7721 177.908 29.0846 177.69 29.4312 177.541C29.7778 177.393 30.1512 177.316 30.5285 177.317H51.2077C51.5835 177.32 51.9547 177.4 52.2983 177.552C52.6419 177.705 52.9507 177.926 53.2055 178.202C53.4604 178.478 53.656 178.804 53.7802 179.158C53.9043 179.513 53.9545 179.889 53.9276 180.264Z" fill="#3F3D56"/>
<path d="M53.3207 190.049L53.1515 192.808H28.5278L28.3555 190.049H53.3207Z" fill="#9D9CB5"/>
<path d="M53.5647 186.132L53.3954 188.895H28.2856L28.1133 186.132H53.5647Z" fill="#9D9CB5"/>
<path d="M53.8076 182.221L53.6353 184.981H28.0424L27.8701 182.221H53.8076Z" fill="#9D9CB5"/>
<path d="M24.9256 153.241C36.159 161.37 40.8481 174.083 40.8481 174.083C40.8481 174.083 27.3101 173.618 16.0736 165.489C4.83706 157.36 0.157227 144.65 0.157227 144.65C0.157227 144.65 13.689 145.112 24.9256 153.241Z" fill="#246BFD"/>
<path d="M0.147461 144.65C0.147461 144.65 14.2023 152.45 18.7099 158.908C23.2174 165.366 40.8475 174.083 40.8475 174.083" stroke="#535461" stroke-width="2" stroke-miterlimit="10"/>
<path d="M49.7243 147.856C42.7 155.576 41.2139 165.665 41.2139 165.665C41.2139 165.665 51.1181 163.234 58.1363 155.511C65.1545 147.788 66.6468 137.703 66.6468 137.703C66.6468 137.703 56.7487 140.136 49.7243 147.856Z" fill="#246BFD"/>
<path d="M66.6529 137.706C66.6529 137.706 57.5025 145.619 55.1764 151.071C52.8504 156.524 41.2139 165.665 41.2139 165.665" stroke="#535461" stroke-width="2" stroke-miterlimit="10"/>
<path d="M134.128 137.032C134.128 137.032 133.676 139.921 132.543 140.09C131.411 140.26 130.903 144.764 129.774 144.604C128.645 144.444 129.393 140.416 129.433 139.635C129.473 138.853 128.202 135.617 129.153 134.881C130.103 134.146 133.113 134.881 133.113 134.881L134.128 137.032Z" fill="#CF6F80"/>
<path d="M32.1769 136.866C38.2906 141.287 40.8474 148.207 40.8474 148.207C40.8474 148.207 33.4784 147.955 27.3617 143.533C21.245 139.112 18.6943 132.189 18.6943 132.189C18.6943 132.189 26.0602 132.441 32.1769 136.866Z" fill="#246BFD"/>
<path d="M18.6943 132.189C18.6943 132.189 26.3433 136.435 28.7955 139.949C31.2477 143.462 40.8474 148.207 40.8474 148.207" stroke="#535461" stroke-width="2" stroke-miterlimit="10"/>
<path opacity="0.1" d="M136.537 114.784L138.672 110.476C138.672 110.476 139.521 113.759 139.521 115.513C139.521 117.267 140.709 117.439 140.709 117.439C140.709 117.439 142.01 118.977 141.324 120.097C140.638 121.217 140.361 124.005 140.361 124.005C140.361 124.005 140.586 129.325 139.567 130.06C138.549 130.795 138.337 132.552 138.337 132.552C138.337 132.552 136.466 135.891 136.524 136.684C136.583 137.478 133.921 142.853 133.921 142.853C133.921 142.853 135.223 136.174 127.638 133.288C127.638 133.288 127.58 131.02 128.146 130.398C128.712 129.777 129.595 129.494 129.041 126.352C128.488 123.211 128.881 119.457 128.881 118.703C128.881 117.95 130.58 113.248 130.58 113.248L136.537 114.784Z" fill="black"/>
<path d="M137.46 109.861L139.324 110.476C139.324 110.476 140.177 113.759 140.177 115.513C140.177 117.266 141.364 117.439 141.364 117.439C141.364 117.439 142.666 118.977 141.98 120.097C141.294 121.217 141.02 124.005 141.02 124.005C141.02 124.005 141.244 129.325 140.226 130.06C139.208 130.795 138.98 132.552 138.98 132.552C138.98 132.552 137.112 135.89 137.171 136.684C137.229 137.478 134.565 142.853 134.565 142.853C134.565 142.853 135.869 136.173 128.282 133.287C128.282 133.287 128.226 131.02 128.792 130.398C129.359 129.777 130.242 129.494 129.688 126.352C129.134 123.211 129.528 119.457 129.528 118.703C129.528 117.95 131.226 113.248 131.226 113.248L137.46 109.861Z" fill="white"/>
<path opacity="0.1" d="M121.878 91.5875L122.691 93.9567L118.414 98.2642C118.509 93.8336 118.617 89.6491 118.617 89.6491L117.134 80.6433C117.134 80.6433 118.617 80.6433 118.958 81.1018C119.108 81.2447 119.273 81.3705 119.451 81.4771L123.087 91.9691L121.878 91.5875Z" fill="black"/>
<path d="M121.537 90.9074L122.353 93.2765L118.076 97.584C118.171 93.1504 118.279 88.969 118.279 88.969L116.793 79.9631C116.793 79.9631 118.279 79.9631 118.618 80.4216C118.768 80.564 118.933 80.6908 119.11 80.8L122.75 91.2889L121.537 90.9074Z" fill="white"/>
<path opacity="0.1" d="M116.635 74.2651C116.42 74.8128 116.386 75.7635 116.445 76.8281C114.746 77.8508 112.794 78.3737 110.812 78.3367C108.829 78.2997 106.898 77.7043 105.239 76.6189C105.148 75.1068 104.966 73.6016 104.694 72.1113C104.694 72.1113 117.374 72.3913 116.635 74.2651Z" fill="black"/>
<path d="M307.579 145.139C307.579 145.139 302.5 119.867 304.444 116.722C304.444 116.722 304.515 113.799 304.398 110.073C304.398 109.931 304.398 109.79 304.398 109.645C304.74 109.873 305.097 110.079 305.466 110.261C307.257 111.181 309.314 111.447 311.281 111.011L309.742 109.298C309.373 108.888 308.989 108.445 308.909 107.904C308.829 107.362 309.05 106.879 309.241 106.396C310.702 102.704 310.779 98.0611 307.964 95.2428C305.586 92.8736 305.007 89.8153 302.426 87.6523C300.54 86.0677 299.503 83.7448 298.524 81.4987C297.697 79.6003 296.863 77.6865 296.389 75.6743C296.02 74.102 295.872 72.4744 295.364 70.9391C294.857 69.4037 293.906 67.9115 292.42 67.2253C291.891 66.9823 291.303 66.8438 290.82 66.5208C290.186 66.0931 289.805 65.3977 289.346 64.7885C287.017 61.7117 279.217 63.5239 275.525 64.7731C274.521 65.0877 273.592 65.6027 272.793 66.2869L272.827 66.2315C272.855 66.1854 272.888 66.1392 272.919 66.0931C272.515 66.4199 272.166 66.8094 271.885 67.2469C271.347 68.0992 271.122 69.093 270.673 70.016C270.132 71.1083 267.119 74.1574 268.415 75.3851C268.505 75.4675 268.609 75.5341 268.722 75.582C269.209 75.7843 269.744 75.8379 270.261 75.7358L270.205 75.8681C269.763 76.9512 269.536 78.1103 269.538 79.2803C269.538 84.3355 273.707 88.4338 278.854 88.4338C279.822 88.4347 280.784 88.2863 281.706 87.9938C281.728 88.1107 281.746 88.2277 281.768 88.3446C281.768 88.3907 281.783 88.4369 281.79 88.483L281.626 88.7107C281.618 88.6967 281.609 88.6833 281.599 88.6707L276.768 95.4213C276.03 95.9412 271.778 99.018 271.538 101.326C271.285 103.852 271.033 106.809 271.033 106.809L270.999 107.442C270.788 107.619 270.541 107.747 270.276 107.819C270.01 107.891 269.732 107.904 269.461 107.858C267.953 107.612 267.953 113.396 267.953 113.396C267.953 113.396 266.95 114.319 266.261 113.519C265.572 112.719 263.75 115.43 263.75 115.43L252.335 115.922L252.074 115.937L251.458 114.033C251.392 113.832 251.249 113.665 251.061 113.569C250.873 113.473 250.654 113.455 250.452 113.519C250.405 113.535 250.358 113.554 250.314 113.578L250.271 113.602L250.191 113.658L250.151 113.694C250.129 113.714 250.108 113.736 250.089 113.759L250.052 113.802L250.034 113.821C249.963 113.919 249.916 114.032 249.896 114.152C249.877 114.272 249.886 114.394 249.923 114.51L250.452 116.144C248.249 116.587 245.997 117.836 247.834 121.276L238.523 119.556L241.536 122.085L257.086 125.294C256.88 125.663 257.015 126.199 257.658 126.952C260.427 130.205 265.473 131.088 267.504 131.315C268.04 132.515 268.71 133.65 269.501 134.7L269.325 137.94C269.325 137.94 264.184 162.634 263.243 163.886C263.718 163.348 264.153 162.775 264.544 162.173C263.052 167.246 260.966 174.191 260.418 175.231C259.538 176.892 258.723 183.615 259.726 184.046C260.033 184.178 260.913 184.113 262.169 184.018V184.575L262.113 205.679C262.113 205.679 262.366 218.623 261.673 219.857C260.981 221.091 260.796 223.678 260.796 223.678C260.796 223.678 258.027 228.783 255.834 230.835C255.819 230.851 255.802 230.865 255.784 230.878L255.717 230.398C255.717 230.398 253.08 233.727 247.246 233.539C247.246 233.539 243.736 235.822 248.942 235.945C254.147 236.068 260.796 235.761 260.796 235.761C260.796 235.761 265.439 228.684 269.328 229.607V234.97H270.519V229.521C271.071 229.157 271.544 228.686 271.908 228.134C272.273 227.582 272.521 226.962 272.639 226.312C272.741 225.641 272.666 224.956 272.423 224.323C272.179 223.69 271.774 223.132 271.248 222.703C271.012 222.489 270.823 222.229 270.692 221.939C270.561 221.649 270.492 221.335 270.488 221.017L270.445 221.054C270.445 220.946 270.418 220.835 270.405 220.721C270.064 217.952 269.636 212.239 271.147 208.011C273.218 202.214 273.845 194.141 272.338 189.335C271.851 187.799 271.452 186.236 271.141 184.655C271.104 184.455 271.07 184.264 271.039 184.086C272.07 184.225 273.09 184.431 274.094 184.701C277.587 185.664 285.226 185.843 291.749 185.79C291.765 185.969 291.783 186.156 291.805 186.344C291.921 187.649 292.164 188.939 292.531 190.196C293.349 192.658 293.725 203.51 293.725 203.51C293.725 203.51 294.78 212.432 294.204 216.063C293.897 218.081 293.589 220.109 293.414 222.146V222.186C293.414 222.186 291.685 227.109 290.42 229.783C290.389 229.85 290.355 229.918 290.325 229.983C289.988 230.013 289.656 230.087 289.337 230.201C289.337 230.201 287.642 233.585 285.952 234.145C284.263 234.705 284.823 236.548 288.648 235.872C292.472 235.195 298.247 234.641 298.247 234.641L298.497 231.189L299.672 229.718L299.364 233.161L300.617 232.915L300.45 228.727L302.373 226.321C302.373 226.321 304.696 224.254 301.244 220.186V220.275C301.207 220.217 301.173 220.155 301.133 220.097V220.078C300.561 219.192 300.106 217.54 300.94 214.608C302.447 209.309 303.324 204.5 303.324 204.5C303.324 204.5 306.69 191.618 302.644 185.523H302.823C302.408 184.665 302.115 183.754 301.952 182.815C301.931 182.704 301.913 182.59 301.897 182.473C304.89 182.301 307.829 181.76 310.225 180.59C310.216 180.578 308.773 150.007 307.579 145.139ZM269.572 123.817V123.879L268.956 123.909L269.572 123.817ZM267.461 124.109C267.36 124.132 267.265 124.177 267.184 124.242C266.919 124.616 266.753 125.051 266.701 125.506L265.741 125.291C265.741 125.291 265.067 125.146 264.098 124.983L263.639 124.522C264.901 124.417 266.212 124.263 267.461 124.109Z" fill="url(#paint1_linear_1231_19641)"/>
<path d="M299.223 228.77L298.856 233.13L300.084 232.884L299.899 228.155L299.223 228.77Z" fill="#1D2366"/>
<path d="M271.215 208.069C269.735 212.285 270.153 217.974 270.485 220.737C270.608 221.758 270.722 222.38 270.722 222.38C270.722 222.38 268.51 227.419 268.325 227.61C268.141 227.801 261.815 231.662 261.815 231.662L257.393 234.244C257.393 234.244 252.908 232.278 255.058 231.601C255.498 231.424 255.893 231.155 256.218 230.81C258.372 228.764 261.076 223.678 261.076 223.678C261.076 223.678 261.261 221.097 261.938 219.869C262.615 218.641 262.369 205.74 262.369 205.74L262.421 184.71V181.969L270.836 182.03C270.889 182.961 271.01 183.887 271.199 184.799C271.501 186.375 271.893 187.933 272.371 189.464C273.854 194.261 273.239 202.294 271.215 208.069Z" fill="#FFB0B1"/>
<path opacity="0.1" d="M270.722 222.38C270.722 222.38 268.51 227.419 268.325 227.61C268.141 227.801 261.815 231.662 261.815 231.662L257.393 234.244C257.393 234.244 252.908 232.278 255.058 231.601C255.498 231.424 255.893 231.155 256.218 230.81L256.409 232.155L257.883 232.093L270.498 220.743C270.608 221.758 270.722 222.38 270.722 222.38Z" fill="black"/>
<path d="M270.569 221.029L257.883 232.456L256.409 232.518L256.101 230.364C256.101 230.364 253.523 233.681 247.794 233.496C247.794 233.496 244.354 235.77 249.452 235.893C254.551 236.016 261.061 235.708 261.061 235.708C261.061 235.708 265.609 228.632 269.415 229.555V234.899H270.584V229.505C271.128 229.139 271.591 228.667 271.948 228.117C272.304 227.568 272.546 226.951 272.658 226.306C272.759 225.64 272.687 224.96 272.45 224.331C272.212 223.702 271.816 223.144 271.301 222.712C271.071 222.496 270.887 222.235 270.761 221.946C270.635 221.657 270.57 221.344 270.569 221.029Z" fill="#1D2366"/>
<path d="M300.392 214.642C299.574 217.565 300.02 219.211 300.58 220.094V220.112C301.298 221.202 301.798 222.422 302.051 223.703L302.1 223.98L296.328 232.395L293.196 233.626C293.196 233.626 288.159 231.906 289.079 231.413C289.31 231.293 289.67 230.653 290.082 229.77C291.313 227.109 293.011 222.198 293.011 222.198V222.158C293.19 220.131 293.473 218.109 293.787 216.097C294.35 212.475 293.316 203.587 293.316 203.587C293.316 203.587 292.947 192.778 292.147 190.319C291.785 189.069 291.545 187.788 291.43 186.492C291.264 184.953 291.227 183.686 291.227 183.686C291.227 183.686 294.543 179.071 300.623 184.055C301.109 184.453 301.537 184.917 301.894 185.433C306.094 191.409 302.712 204.571 302.712 204.571C302.712 204.571 301.866 209.359 300.392 214.642Z" fill="#FFB0B1"/>
<path opacity="0.1" d="M302.109 223.98L296.337 232.395L293.205 233.625C293.205 233.625 288.168 231.906 289.088 231.413C289.319 231.293 289.679 230.653 290.091 229.77C292.223 229.752 293.328 231.782 293.328 231.782L296.029 231.352C296.029 231.352 299.592 224.349 300.392 223.921C301.192 223.494 300.515 220.724 300.515 220.724V220.02C300.537 220.044 300.555 220.072 300.58 220.097V220.115C301.298 221.205 301.797 222.425 302.05 223.706L302.109 223.98Z" fill="black"/>
<path d="M293.512 231.964C293.512 231.964 291.974 229.139 289.026 230.182C289.026 230.182 287.368 233.567 285.71 234.115C284.051 234.662 284.605 236.508 288.352 235.835C292.1 235.161 297.749 234.604 297.749 234.604L297.995 231.161L301.804 226.309C301.804 226.309 304.075 224.25 300.697 220.198V220.903C300.697 220.903 301.374 223.672 300.574 224.1C299.774 224.527 296.223 231.533 296.223 231.533L293.512 231.964Z" fill="#1D2366"/>
<path opacity="0.1" d="M270.845 182.024C270.898 182.955 271.02 183.88 271.208 184.793C267.744 184.286 264.529 184.538 262.421 184.704V181.963L270.845 182.024Z" fill="black"/>
<path opacity="0.1" d="M302.235 186.199C302.235 186.199 297.312 186.439 291.441 186.489C291.275 184.95 291.238 183.683 291.238 183.683C291.238 183.683 294.555 179.067 300.635 184.052C301.121 184.449 301.549 184.913 301.906 185.43C302.001 185.693 302.111 185.949 302.235 186.199Z" fill="black"/>
<path d="M302.235 185.646C302.235 185.646 280.673 186.689 274.101 184.846C267.528 183.003 261.015 184.6 260.033 184.172C259.052 183.744 259.849 177.046 260.71 175.388C261.572 173.729 266.298 156.957 266.298 156.957L270.845 133.248L275.636 131.928L275.974 131.832L284.322 129.531L290.438 127.842C290.438 127.842 302.601 175.326 301.558 178.827C301.179 180.168 301.118 181.579 301.38 182.947C301.539 183.882 301.827 184.79 302.235 185.646Z" fill="#1D2366"/>
<path d="M254.994 117.033C254.994 117.033 250.687 121.648 253.948 124.22C257.209 126.792 259.354 124.466 259.354 124.466L254.994 117.033Z" fill="#C7DAF5"/>
<path opacity="0.1" d="M254.994 117.033C254.994 117.033 250.687 121.648 253.948 124.22C257.209 126.792 259.354 124.466 259.354 124.466L254.994 117.033Z" fill="black"/>
<path d="M289.796 86.6892C289.796 86.6892 289.292 87.1692 288.532 87.8768C287.449 88.8891 285.845 90.3691 284.424 91.609C282.455 93.3228 280.83 94.5812 281.412 93.5074C281.993 92.4336 281.883 90.5629 281.593 88.8122C281.572 88.6953 281.553 88.5783 281.532 88.4645C281.292 87.1788 280.975 85.9088 280.581 84.6616C280.581 84.6616 283.762 80.5509 285.522 78.9295C286.178 78.3141 286.636 78.0618 286.664 78.4895C286.695 79.0649 287.125 80.3356 287.661 81.6832C287.676 81.7263 287.692 81.7663 287.71 81.8094C288.067 82.7324 288.47 83.6801 288.824 84.4985C289.365 85.7538 289.796 86.6892 289.796 86.6892Z" fill="#FFB0B1"/>
<path opacity="0.1" d="M280.996 90.8799L281.772 89.7876C281.772 89.7876 282.285 92.9198 284.174 91.5383C286.064 90.1568 286.156 101.935 286.156 101.935L284.128 132.251L269.477 131.374L269.892 116.725L271.55 109.341L275.652 98.6057L278.092 95.0582L280.996 90.8799Z" fill="black"/>
<path d="M286.156 102.122L284.309 129.534L284.116 132.438L275.947 131.949L275.639 131.931L269.485 131.561L269.901 116.91L271.559 109.525L275.661 98.7902L278.1 95.2426L281.005 91.0489L281.78 89.9597C281.78 89.9597 282.294 93.0919 284.183 91.7104L284.223 91.6827C286.069 90.5135 286.156 102.122 286.156 102.122Z" fill="#1D2366"/>
<path d="M271.765 106.959C271.765 106.959 271.03 108.498 269.553 108.248C268.076 107.999 268.079 113.787 268.079 113.787C268.079 113.787 267.098 114.71 266.421 113.91C265.744 113.11 263.959 115.814 263.959 115.814L252.778 116.307C252.778 116.307 257.754 118.58 256.778 125.46C256.778 125.46 273.67 124.414 274.224 122.817C274.778 121.22 271.765 106.959 271.765 106.959Z" fill="white"/>
<path opacity="0.03" d="M271.765 106.959C271.765 106.959 271.03 108.498 269.553 108.248C268.076 107.999 268.079 113.787 268.079 113.787C268.079 113.787 267.098 114.71 266.421 113.91C265.744 113.11 263.959 115.814 263.959 115.814L252.778 116.307C252.778 116.307 257.754 118.58 256.778 125.46C256.778 125.46 273.67 124.414 274.224 122.817C274.778 121.22 271.765 106.959 271.765 106.959Z" fill="black"/>
<path d="M239.271 119.922L242.219 122.439L266.483 127.537L263.474 124.466L239.271 119.922Z" fill="white"/>
<path d="M281.042 91.849C280.639 92.4644 279.485 95.615 278.522 98.3657C277.719 100.658 277.048 102.673 277.048 102.673C277.048 102.673 275.482 112.87 274.682 114.713C273.882 116.556 274.316 123.743 274.316 123.743L271.335 141.493C271.335 141.493 269.984 150.647 267.898 156.114C265.84 161.496 263.547 164.019 263.477 164.099C264.4 162.849 269.43 138.253 269.43 138.253L271.092 107.233C271.092 107.233 271.335 104.285 271.581 101.766C271.827 99.2456 276.811 95.8058 276.811 95.8058L281.617 88.9722C282.101 89.6183 281.777 90.7444 281.042 91.849Z" fill="white"/>
<path d="M268.511 131.715C268.511 131.715 261.434 131.407 258.006 127.291C254.579 123.174 265.929 125.648 265.929 125.648L268.88 126.325L268.511 131.715Z" fill="#FFB0B1"/>
<path opacity="0.1" d="M301.558 178.83C301.179 180.171 301.118 181.582 301.379 182.95C293.66 183.498 285.402 181.412 285.402 181.412C283.863 182.827 279.811 184.913 279.811 184.913L277.602 157.53C276.19 153.837 275.636 134.494 275.636 134.494C275.636 134.494 275.762 133.481 275.943 131.964C275.943 131.927 275.943 131.887 275.959 131.851C276.51 127.614 277.602 119.66 278.137 118.586C278.876 117.11 275.867 113.18 275.867 113.18L277.236 101.504L277.402 100.095C280.288 98.8056 282.5 94.6888 282.5 94.6888L284.198 91.7135C286.045 90.5289 286.14 102.138 286.14 102.138L284.294 129.549L290.411 127.86C290.411 127.86 302.601 175.329 301.558 178.83Z" fill="black"/>
<path opacity="0.1" d="M287.71 81.8094C287.411 83.4175 286.686 84.9157 285.61 86.1476C284.534 87.3795 283.147 88.2997 281.593 88.8122C281.349 87.4077 281.011 86.0211 280.581 84.6616C280.581 84.6616 286.572 76.9234 286.664 78.4895C286.685 79.0834 287.153 80.4002 287.71 81.8094Z" fill="black"/>
<path d="M309.482 180.723C301.066 184.901 285.772 181.03 285.772 181.03C284.233 182.446 280.181 184.532 280.181 184.532L277.969 157.148C276.56 153.456 276.006 134.112 276.006 134.112C276.006 134.112 277.784 119.679 278.523 118.205C278.738 117.774 278.633 117.134 278.378 116.445C277.123 113.165 276.661 109.634 277.03 106.141L277.621 101.122L277.784 99.7164C280.673 98.4241 282.886 94.3074 282.886 94.3074L284.424 91.6121L287.255 86.6461L288.596 84.2954L288.824 84.5016L290.562 86.0769C290.562 86.0769 291.301 86.6922 292.408 87.6153C294.817 89.646 298.98 93.2212 301.128 95.4089C303.017 97.3349 303.614 104.827 303.786 110.467C303.9 114.18 303.833 117.091 303.833 117.091C301.928 120.226 306.909 145.398 306.909 145.398C308.069 150.262 309.482 180.723 309.482 180.723Z" fill="white"/>
<path opacity="0.1" d="M296.839 167.896C296.839 168.08 296.1 174.664 298.863 176.311C301.626 177.957 296.839 167.896 296.839 167.896Z" fill="black"/>
<path opacity="0.1" d="M300.819 156.287C300.819 156.287 298.733 157.699 302.724 160.954C306.715 164.209 300.819 156.287 300.819 156.287Z" fill="black"/>
<path opacity="0.03" d="M293.328 94.2457C293.328 94.2457 287.553 105.239 288.224 109.418C288.894 113.596 290.802 118.325 289.882 119.429C289.566 119.848 289.157 120.188 288.688 120.422C288.219 120.656 287.702 120.779 287.178 120.78C286.255 120.842 283.793 122.562 283.793 122.746C283.793 122.931 281.519 122.931 279.486 123.792C277.452 124.654 274.449 125.143 274.449 125.143C274.449 125.143 268.603 124.958 268.058 125.512C267.514 126.066 266.954 129.38 268.12 132.023C269.286 134.666 270.581 136.638 271.56 136.998C272.538 137.358 278.747 135.278 283.784 134.786C288.821 134.294 294.288 130.303 294.288 130.303C294.288 130.303 300.309 128.149 301.365 124.528C302.42 120.906 300.076 101.002 300.076 101.002C300.076 101.002 298.303 91.7258 293.328 94.2457Z" fill="black"/>
<path opacity="0.03" d="M292.59 93.3228C292.59 93.3228 286.815 104.319 287.491 108.495C288.168 112.67 290.07 117.402 289.147 118.51C288.832 118.928 288.424 119.269 287.955 119.503C287.486 119.737 286.969 119.86 286.445 119.86C285.522 119.922 283.061 121.642 283.061 121.826C283.061 122.011 280.787 122.011 278.753 122.869C276.72 123.728 273.717 124.22 273.717 124.22C273.717 124.22 267.871 124.036 267.329 124.589C266.788 125.143 266.221 128.46 267.391 131.1C268.56 133.74 269.852 135.715 270.831 136.075C271.809 136.435 278.018 134.355 283.055 133.866C288.091 133.377 293.559 129.38 293.559 129.38C293.559 129.38 299.577 127.226 300.62 123.608C301.663 119.989 299.331 100.079 299.331 100.079C299.331 100.079 297.565 90.8059 292.59 93.3228Z" fill="black"/>
<path d="M293.146 93.6919C293.146 93.6919 287.371 104.688 288.048 108.864C288.725 113.039 290.626 117.771 289.706 118.876C289.391 119.296 288.983 119.636 288.514 119.871C288.044 120.106 287.527 120.229 287.002 120.229C286.079 120.291 283.617 122.011 283.617 122.192C283.617 122.374 281.347 122.377 279.31 123.239C277.273 124.1 274.273 124.589 274.273 124.589C274.273 124.589 268.427 124.405 267.883 124.958C267.338 125.512 266.778 128.829 267.944 131.469C269.11 134.109 270.406 136.084 271.384 136.444C272.362 136.804 278.571 134.724 283.608 134.232C288.645 133.74 294.112 129.749 294.112 129.749C294.112 129.749 300.134 127.595 301.189 123.974C302.244 120.352 299.915 100.449 299.915 100.449C299.915 100.449 298.118 91.1874 293.146 93.6919Z" fill="white"/>
<path opacity="0.1" d="M293.02 123.186C293.02 123.186 288.405 122.263 290.011 123.802C291.617 125.34 291.608 126.688 293.574 126.626C295.54 126.565 293.02 123.186 293.02 123.186Z" fill="black"/>
<path d="M256.452 120.943L256.544 120.848L256.452 120.943Z" fill="#FFB0B1"/>
<path d="M252.97 116.291C250.742 116.368 245.93 117.048 248.425 121.703C250.631 125.823 254.339 123.069 256.425 120.98C255.916 119.033 254.679 117.354 252.97 116.291Z" fill="#FFB0B1"/>
<path d="M253.098 123.282L250.434 114.879C250.402 114.781 250.391 114.677 250.399 114.574C250.408 114.471 250.437 114.371 250.484 114.279C250.532 114.187 250.597 114.106 250.676 114.039C250.755 113.973 250.846 113.922 250.945 113.891C251.143 113.829 251.358 113.848 251.542 113.944C251.727 114.04 251.866 114.204 251.929 114.402L254.594 122.796L254.329 124.552L253.098 123.282Z" fill="#BE8B87"/>
<path opacity="0.1" d="M250.687 114.14C250.885 114.078 251.101 114.096 251.286 114.192C251.471 114.287 251.611 114.453 251.674 114.651L254.339 123.045L254.139 124.362L254.333 124.565L254.597 122.808L251.917 114.414C251.854 114.216 251.714 114.052 251.53 113.956C251.346 113.86 251.131 113.842 250.933 113.903C250.766 113.958 250.622 114.066 250.523 114.211C250.576 114.183 250.63 114.159 250.687 114.14Z" fill="white"/>
<path d="M253.099 123.282L254.594 122.808L254.376 124.248L254.329 124.565L253.892 124.109L253.099 123.282Z" fill="#EFC8C4"/>
<path d="M253.893 124.109C253.919 124.077 253.951 124.049 253.988 124.029C254.01 124.016 254.035 124.009 254.06 124.009C254.086 124.009 254.111 124.016 254.133 124.029C254.154 124.055 254.171 124.083 254.185 124.113C254.205 124.147 254.233 124.175 254.266 124.197C254.299 124.219 254.336 124.233 254.376 124.239L254.329 124.546L253.893 124.109Z" fill="#727A9C"/>
<path d="M250.419 117.863C250.419 117.863 255.763 117.833 254.505 120.106C253.247 122.38 251.28 122.654 251.28 122.654L250.419 117.863Z" fill="#FFB0B1"/>
<path opacity="0.1" d="M292.408 87.8031C290.045 89.4184 288.064 90.7814 287.676 91.0645C286.618 91.8491 284.599 96.4551 283.298 98.8058C282.261 100.698 278.892 101.184 277.621 101.304L277.784 99.898C280.673 98.6058 282.886 94.489 282.886 94.489L288.596 84.4771L290.562 86.2647C290.562 86.2647 291.301 86.88 292.408 87.8031Z" fill="black"/>
<path d="M292.408 87.6183C290.045 89.2336 288.064 90.5966 287.676 90.8828C286.618 91.6643 284.599 96.2703 283.298 98.621C282.261 100.513 278.892 100.999 277.621 101.119L277.784 99.7132C280.673 98.421 282.886 94.3042 282.886 94.3042L288.596 84.2922L290.562 86.0737C290.562 86.0737 291.301 86.6829 292.408 87.6183Z" fill="#DCE7FF"/>
<path d="M287.86 79.7786C287.861 81.6255 287.301 83.4293 286.254 84.9507C285.017 86.7495 283.176 88.0453 281.066 88.6031C278.955 89.1608 276.715 88.9435 274.751 87.9906C272.787 87.0377 271.229 85.4123 270.361 83.4094C269.493 81.4064 269.372 79.1586 270.019 77.0738C270.666 74.989 272.04 73.2053 273.89 72.0464C275.74 70.8875 277.944 70.4302 280.102 70.7574C282.26 71.0846 284.23 72.1747 285.653 73.8298C287.077 75.485 287.86 77.5955 287.86 79.7786Z" fill="#FFB0B1"/>
<path opacity="0.1" d="M303.786 110.47C302.537 109.701 301.519 108.608 300.842 107.307C300.328 106.291 299.986 105.119 299.109 104.399C298.319 103.753 297.263 103.596 296.279 103.307C293.042 102.35 290.328 99.3963 290.227 96.0241C290.177 94.4365 290.673 92.852 290.448 91.2797C290.321 90.3899 289.967 89.5477 289.421 88.8336C289.149 88.4921 288.852 88.1722 288.531 87.8767C288.101 87.4706 287.648 87.0768 287.254 86.646C287.006 86.3793 286.79 86.0851 286.608 85.7691C286.462 85.5106 286.343 85.2373 286.255 84.9538C285.639 83.0708 286.199 80.837 285.522 78.9325L285.485 78.8278C285.23 78.1509 284.71 77.4741 283.987 77.4217C283.264 77.3694 282.645 77.9694 281.956 78.2371C280.513 78.7971 278.956 77.8433 277.753 76.871C276.55 75.8987 275.193 74.788 273.664 75.0034C272.652 75.148 271.852 75.8372 270.92 76.1941C270.709 76.2756 270.492 76.3384 270.271 76.3818C271.059 74.4142 272.509 72.7828 274.37 71.7678C276.231 70.7529 278.388 70.4178 280.469 70.8201C282.55 71.2224 284.427 72.3369 285.776 73.9723C287.124 75.6077 287.862 77.6618 287.861 79.7817C287.862 80.4218 287.795 81.0602 287.661 81.6862C287.676 81.7293 287.691 81.7693 287.71 81.8124C288.067 82.7354 288.47 83.6831 288.824 84.5015L290.562 86.0768C290.562 86.0768 291.301 86.6922 292.408 87.6152C294.817 89.6459 298.98 93.2212 301.128 95.4088C303.017 97.341 303.608 104.83 303.786 110.47Z" fill="black"/>
<path d="M270.812 70.5728C271.251 69.6775 271.47 68.6744 271.996 67.8252C272.768 66.5945 274.116 65.8068 275.501 65.3299C279.116 64.0838 286.756 62.2747 289.039 65.3299C289.488 65.9453 289.86 66.6283 290.482 67.0529C290.955 67.376 291.528 67.5145 292.048 67.7575C293.503 68.4406 294.432 69.9298 294.928 71.4497C295.423 72.9697 295.571 74.6004 295.934 76.1665C296.398 78.1756 297.214 80.0802 298.026 81.9724C298.983 84.2062 299.998 86.523 301.844 88.1014C304.364 90.2552 304.921 93.3043 307.259 95.6673C310.029 98.4733 309.939 103.104 308.512 106.781C308.324 107.264 308.112 107.768 308.186 108.282C308.259 108.796 308.641 109.264 309.001 109.673L310.515 111.381C306.933 112.245 302.881 110.374 301.213 107.091C300.7 106.076 300.358 104.907 299.478 104.184C298.691 103.538 297.632 103.384 296.651 103.095C293.414 102.135 290.7 99.1779 290.598 95.8058C290.549 94.2212 291.045 92.6366 290.82 91.0675C290.695 90.1717 290.34 89.3236 289.789 88.606C288.943 87.5014 287.666 86.7599 286.977 85.5292C285.811 83.4708 286.697 80.7971 285.857 78.5879C285.599 77.911 285.082 77.2341 284.359 77.1818C283.636 77.1295 283.017 77.7295 282.325 77.9972C280.885 78.5571 279.328 77.6064 278.125 76.6311C276.922 75.6557 275.565 74.5481 274.033 74.7665C273.021 74.908 272.224 75.5972 271.291 75.9572C270.602 76.2218 269.205 76.4588 268.602 75.8772C267.329 74.705 270.279 71.6682 270.812 70.5728Z" fill="#591D4B"/>
<path opacity="0.1" d="M302.069 106.076C301.552 105.061 301.213 103.892 300.333 103.172C299.546 102.526 298.487 102.369 297.503 102.079C294.269 101.123 291.555 98.1657 291.451 94.7935C291.401 93.209 291.897 91.6214 291.675 90.0522C291.546 89.1621 291.192 88.32 290.645 87.6061C289.795 86.5015 288.518 85.76 287.832 84.5293C286.666 82.474 287.552 79.8002 286.709 77.588C286.454 76.9142 285.934 76.2373 285.214 76.1819C284.494 76.1265 283.869 76.7327 283.18 77.0003C281.74 77.5603 280.18 76.6065 278.98 75.6342C277.78 74.662 276.417 73.5512 274.888 73.7666C273.876 73.9112 273.076 74.6004 272.147 74.9573C271.458 75.2219 270.058 75.4619 269.455 74.8804C268.187 73.6497 271.138 70.619 271.667 69.5298C272.107 68.6314 272.325 67.6314 272.854 66.7822C272.882 66.7361 272.913 66.69 272.944 66.6438C272.548 66.9717 272.206 67.3601 271.931 67.7945C271.405 68.6437 271.187 69.6406 270.747 70.5421C270.215 71.6313 267.264 74.6712 268.535 75.8927C269.15 76.4773 270.535 76.2373 271.224 75.9727C272.147 75.6127 272.953 74.9235 273.965 74.782C275.504 74.5635 276.857 75.6742 278.057 76.6465C279.257 77.6188 280.826 78.5726 282.26 78.0126C282.949 77.7449 283.553 77.1419 284.291 77.1973C285.029 77.2526 285.522 77.9265 285.789 78.6034C286.629 80.8125 285.743 83.4863 286.909 85.5447C287.599 86.7538 288.875 87.5107 289.722 88.6215C290.272 89.339 290.627 90.1871 290.752 91.0829C290.977 92.6521 290.482 94.2366 290.531 95.8212C290.632 99.2057 293.346 102.15 296.583 103.11C297.558 103.399 298.623 103.553 299.41 104.199C300.293 104.922 300.641 106.092 301.146 107.107C302.813 110.39 306.866 112.261 310.447 111.396L309.733 110.59C306.629 110.636 303.487 108.87 302.069 106.076Z" fill="black"/>
<path opacity="0.1" d="M280.857 92.0336C280.454 92.6489 279.3 95.7996 278.337 98.5503C277.436 98.1995 276.617 95.9627 276.617 95.9627L281.423 89.126C281.915 89.8029 281.592 90.9259 280.857 92.0336Z" fill="black"/>
<path d="M281.043 91.8491C280.64 92.4645 279.486 95.6151 278.523 98.3658C277.621 98.0181 276.803 95.7782 276.803 95.7782L281.609 88.9446C282.101 89.6184 281.778 90.7445 281.043 91.8491Z" fill="#DCE7FF"/>
<path d="M121.537 67.4652C121.54 68.5739 121.365 69.6759 121.021 70.7297C120.25 73.0907 118.669 75.1032 116.558 76.4115C114.447 77.7198 111.941 78.2397 109.484 77.8792C107.026 77.5187 104.775 76.3012 103.129 74.4416C101.482 72.5821 100.546 70.2004 100.486 67.7175C100.486 67.6313 100.486 67.5513 100.486 67.4652C100.462 66.0676 100.717 64.6792 101.235 63.381C101.753 62.0829 102.525 60.9009 103.505 59.9041C104.485 58.9073 105.653 58.1155 106.942 57.5751C108.232 57.0347 109.615 56.7563 111.013 56.7563C112.411 56.7563 113.795 57.0347 115.084 57.5751C116.373 58.1155 117.542 58.9073 118.522 59.9041C119.502 60.9009 120.273 62.0829 120.791 63.381C121.31 64.6792 121.564 66.0676 121.541 67.4652H121.537Z" fill="#CF6F80"/>
<path opacity="0.1" d="M121.537 67.4652C121.54 68.5739 121.365 69.6759 121.021 70.7297C120.962 70.7387 120.903 70.7361 120.846 70.7218C120.789 70.7075 120.735 70.682 120.688 70.6466C120.608 67.8775 119.245 65.2776 117.568 63.0653C117.098 62.3974 116.527 61.8059 115.876 61.3116C115.218 60.8175 114.4 60.586 113.581 60.6623C112.658 60.7885 111.842 61.4162 110.91 61.4962C109.679 61.5977 108.578 60.7454 107.356 60.7023C106.86 60.7071 106.37 60.8176 105.92 61.0267C105.469 61.2357 105.068 61.5384 104.744 61.9146C104.103 62.6737 103.626 63.5581 103.344 64.5114C102.861 65.9571 102.597 67.4672 102.563 68.9913C102.547 69.8528 102.464 70.9327 101.664 71.2466C101.725 70.613 101.653 69.9738 101.453 69.3695C101.253 68.7652 100.93 68.2089 100.504 67.7359L100.486 67.7175C100.486 67.6313 100.486 67.5513 100.486 67.4652C100.462 66.0676 100.717 64.6792 101.235 63.381C101.753 62.0829 102.525 60.9009 103.505 59.9041C104.485 58.9073 105.653 58.1155 106.942 57.5751C108.232 57.0347 109.615 56.7563 111.013 56.7563C112.411 56.7563 113.795 57.0347 115.084 57.5751C116.373 58.1155 117.542 58.9073 118.522 59.9041C119.502 60.9009 120.273 62.0829 120.791 63.381C121.31 64.6792 121.564 66.0676 121.541 67.4652H121.537Z" fill="black"/>
<path d="M115.371 50.7491C113.772 49.997 111.954 49.8547 110.257 50.3491C109.405 50.6014 108.602 51.0106 107.737 51.2167C105.891 51.6629 103.737 51.1798 102.153 52.2598C101.273 52.8751 100.744 53.8474 100.251 54.792L99.0207 57.1365C98.3499 58.4195 97.673 59.7241 97.3931 61.1364C97.1131 62.5486 97.2823 64.1301 98.1776 65.2654C98.8299 66.0931 99.793 66.6131 100.501 67.3915C100.925 67.865 101.246 68.421 101.445 69.0245C101.644 69.6281 101.717 70.2663 101.658 70.8991C102.461 70.5914 102.537 69.5084 102.556 68.6469C102.59 67.1228 102.854 65.6126 103.337 64.167C103.618 63.2134 104.095 62.3289 104.737 61.5702C105.062 61.1943 105.463 60.8918 105.913 60.6828C106.363 60.4738 106.853 60.363 107.35 60.3579C108.58 60.401 109.685 61.2502 110.903 61.1487C111.826 61.0718 112.645 60.441 113.574 60.3179C114.393 60.2404 115.212 60.472 115.869 60.9671C116.52 61.4607 117.09 62.0524 117.558 62.7209C119.238 64.9332 120.601 67.5269 120.681 70.3022C121.029 70.5576 121.531 70.2253 121.703 69.8314C121.875 69.4376 121.881 68.9761 122.1 68.6007C122.352 68.1669 122.835 67.9361 123.214 67.61C124.174 66.7823 124.414 65.3885 124.377 64.124C124.34 62.8594 124.094 61.5764 124.334 60.3333C124.478 59.5703 124.804 58.8565 124.983 58.1026C125.161 57.3488 125.183 56.5027 124.761 55.8535C124.146 54.8997 122.851 54.712 121.721 54.6228C120.438 54.512 119.291 54.6535 118.472 53.5736C118.088 53.01 117.656 52.4809 117.18 51.9921C117.017 51.8321 115.371 50.8167 115.371 50.7491Z" fill="#512E4E"/>
<g opacity="0.1">
<path d="M123.22 66.9362C122.841 67.2623 122.355 67.4962 122.103 67.93C121.888 68.3023 121.881 68.7607 121.709 69.1607C121.537 69.5607 121.035 69.8868 120.688 69.6345C120.608 66.8654 119.242 64.2655 117.565 62.0502C117.096 61.3816 116.526 60.79 115.876 60.2964C115.217 59.8013 114.397 59.5698 113.577 59.6472C112.654 59.7734 111.842 60.401 110.91 60.4779C109.679 60.5826 108.574 59.7303 107.353 59.6872C106.856 59.6921 106.367 59.8031 105.917 60.0127C105.467 60.2224 105.067 60.5257 104.744 60.9025C104.101 61.6601 103.624 62.5436 103.344 63.4963C102.86 64.942 102.597 66.4521 102.562 67.9761C102.544 68.8346 102.464 69.9053 101.67 70.2253C101.688 70.4526 101.688 70.681 101.67 70.9083C102.47 70.6007 102.55 69.5176 102.568 68.6561C102.603 67.1321 102.866 65.6219 103.35 64.1763C103.631 63.2227 104.108 62.3382 104.75 61.5794C105.074 61.2036 105.474 60.9012 105.924 60.6921C106.374 60.4831 106.863 60.3723 107.359 60.3672C108.59 60.4103 109.697 61.2595 110.916 61.1579C111.839 61.081 112.657 60.4502 113.583 60.3272C114.404 60.2498 115.223 60.4813 115.882 60.9764C116.532 61.47 117.102 62.0616 117.571 62.7302C119.248 64.9424 120.614 67.5361 120.694 70.3114C121.042 70.5668 121.543 70.2345 121.715 69.8407C121.888 69.4468 121.894 68.9853 122.109 68.61C122.361 68.1761 122.848 67.9454 123.226 67.6192C124.186 66.7916 124.426 65.3978 124.389 64.1332C124.389 64.0932 124.389 64.0532 124.389 64.0163C124.331 65.1116 124.038 66.2285 123.22 66.9362Z" fill="black"/>
<path d="M100.507 66.7176C99.7992 65.9392 98.8331 65.4192 98.1839 64.5946C97.6372 63.8647 97.325 62.9859 97.2885 62.0747C97.1917 63.2134 97.5097 64.3487 98.1839 65.2715C98.8331 66.0992 99.7992 66.6192 100.507 67.3976C101.186 68.159 101.594 69.1242 101.667 70.1421C101.714 69.5226 101.635 68.9 101.436 68.3115C101.237 67.7231 100.921 67.181 100.507 66.7176Z" fill="black"/>
<path d="M124.989 57.4288C124.807 58.1826 124.484 58.8995 124.337 59.6595C124.249 60.1673 124.217 60.6831 124.241 61.1979C124.251 60.9047 124.283 60.6126 124.337 60.3241C124.484 59.561 124.807 58.8472 124.989 58.0934C125.095 57.6776 125.129 57.2469 125.09 56.8196C125.071 57.0248 125.037 57.2284 124.989 57.4288Z" fill="black"/>
</g>
<path opacity="0.1" d="M263.676 56.6686H251.062V52.7488H256.717V41.0723C257.207 41.2507 257.695 41.4343 258.181 41.623V52.7488H263.676V56.6686Z" fill="#246BFD"/>
<path d="M217.18 15.821H216.95C207.768 15.821 199.649 20.6793 194.978 27.8483C190.307 20.6793 182.188 15.821 173.007 15.821H172.776C165.886 15.8867 159.3 18.6689 154.449 23.5631C149.599 28.4573 146.876 35.068 146.872 41.9586C146.872 50.5152 150.62 62.6563 157.927 72.6467C171.85 91.6829 194.978 108.338 194.978 108.338C194.978 108.338 218.106 91.686 232.026 72.6467C239.336 62.6563 243.081 50.5152 243.081 41.9586C243.077 35.0685 240.355 28.4583 235.505 23.5642C230.655 18.6701 224.07 15.8875 217.18 15.821ZM213.879 74.1112C212.833 74.1073 211.813 73.7872 210.953 73.1931C210.092 72.5989 209.432 71.7585 209.058 70.7821H203.568C203.207 70.7799 202.855 70.6648 202.562 70.453C202.269 70.2412 202.05 69.9432 201.935 69.6006L200.249 64.5208L194.913 83.1632C194.81 83.5221 194.592 83.8376 194.294 84.0623C193.995 84.287 193.632 84.4087 193.258 84.4093H193.15C192.761 84.3905 192.389 84.2384 192.098 83.9786C191.807 83.7188 191.613 83.3668 191.55 82.9817L186.052 49.9121L182.034 69.4806C181.942 69.8524 181.728 70.1825 181.426 70.4184C181.124 70.6543 180.752 70.7824 180.369 70.7821H172.637C172.406 70.7919 172.174 70.7548 171.957 70.6728C171.74 70.5909 171.542 70.4659 171.374 70.3054C171.207 70.1448 171.074 69.9521 170.983 69.7387C170.892 69.5253 170.845 69.2957 170.845 69.0637C170.845 68.8317 170.892 68.6021 170.983 68.3888C171.074 68.1754 171.207 67.9826 171.374 67.8221C171.542 67.6616 171.74 67.5366 171.957 67.4546C172.174 67.3727 172.406 67.3355 172.637 67.3453H179.016L184.708 41.0355C184.801 40.6465 185.027 40.3021 185.346 40.0611C185.665 39.82 186.058 39.6974 186.458 39.7141C186.858 39.7308 187.239 39.8858 187.537 40.1527C187.835 40.4195 188.031 40.7816 188.092 41.177L193.707 74.9112L198.489 58.2318C198.588 57.8805 198.799 57.5709 199.089 57.3491C199.379 57.1272 199.733 57.0052 200.098 57.0011H200.132C200.493 57.0012 200.846 57.1155 201.138 57.3276C201.431 57.5398 201.65 57.839 201.762 58.1826L204.812 67.3546H208.99C209.287 66.452 209.828 65.6491 210.552 65.0344C211.277 64.4198 212.157 64.0172 213.096 63.8713C214.035 63.7253 214.996 63.8416 215.873 64.2073C216.75 64.573 217.509 65.1739 218.066 65.9437C218.623 66.7135 218.956 67.6222 219.029 68.5695C219.103 69.5169 218.913 70.4661 218.481 71.3123C218.048 72.1585 217.391 72.8688 216.58 73.3649C215.77 73.861 214.838 74.1235 213.888 74.1235L213.879 74.1112Z" fill="#246BFD"/>
</g>
<defs>
<linearGradient id="paint0_linear_1231_19641" x1="109.636" y1="238.413" x2="109.636" y2="49.0843" gradientUnits="userSpaceOnUse">
<stop stop-color="#808080" stop-opacity="0.25"/>
<stop offset="0.54" stop-color="#808080" stop-opacity="0.12"/>
<stop offset="1" stop-color="#808080" stop-opacity="0.1"/>
</linearGradient>
<linearGradient id="paint1_linear_1231_19641" x1="274.891" y1="236.019" x2="274.891" y2="63.1024" gradientUnits="userSpaceOnUse">
<stop stop-color="#808080" stop-opacity="0.25"/>
<stop offset="0.54" stop-color="#808080" stop-opacity="0.12"/>
<stop offset="1" stop-color="#808080" stop-opacity="0.1"/>
</linearGradient>
<clipPath id="clip0_1231_19641">
<rect width="340" height="240.834" fill="white"/>
</clipPath>
</defs>
</svg>
