<svg width="340" height="237" viewBox="0 0 340 237" fill="none" xmlns="http://www.w3.org/2000/svg">
<g clip-path="url(#clip0_1231_20033)">
<path d="M274.609 222.912L271.789 234.192C271.732 234.421 271.726 234.66 271.771 234.891C271.817 235.123 271.913 235.341 272.052 235.532C272.191 235.722 272.371 235.879 272.578 235.992C272.785 236.105 273.015 236.171 273.25 236.185L278.331 236.493C278.779 236.52 279.228 236.451 279.647 236.291C280.066 236.13 280.446 235.882 280.762 235.562C281.077 235.243 281.321 234.86 281.476 234.438C281.631 234.017 281.695 233.568 281.662 233.12L280.938 223.228L274.609 222.912Z" fill="#E6E6E6"/>
<path d="M258.161 223.228L257.437 233.12C257.404 233.568 257.468 234.017 257.623 234.438C257.778 234.86 258.022 235.243 258.337 235.562C258.653 235.882 259.033 236.13 259.452 236.291C259.871 236.451 260.32 236.52 260.768 236.493L265.849 236.185C266.084 236.171 266.314 236.105 266.521 235.992C266.728 235.879 266.907 235.722 267.047 235.531C267.186 235.341 267.282 235.123 267.328 234.891C267.373 234.66 267.367 234.421 267.31 234.192L264.489 222.912L258.161 223.228Z" fill="#E6E6E6"/>
<path d="M73.5345 221.845L70.5229 233.891C70.4618 234.135 70.4553 234.39 70.5038 234.637C70.5523 234.884 70.6547 235.118 70.8036 235.321C70.9525 235.524 71.1443 235.692 71.3654 235.812C71.5865 235.933 71.8314 236.003 72.0828 236.019L77.5083 236.347C77.9868 236.376 78.466 236.303 78.9137 236.131C79.3615 235.96 79.7674 235.695 80.1042 235.354C80.4411 235.013 80.7011 234.603 80.8669 234.154C81.0326 233.704 81.1003 233.224 81.0653 232.746L80.2927 222.183L73.5345 221.845Z" fill="#E6E6E6"/>
<path d="M55.9701 222.183L55.1974 232.746C55.1625 233.224 55.2301 233.704 55.3959 234.154C55.5616 234.603 55.8217 235.013 56.1585 235.354C56.4954 235.695 56.9013 235.96 57.349 236.131C57.7967 236.303 58.2759 236.376 58.7544 236.347L64.18 236.019C64.4314 236.003 64.6763 235.933 64.8974 235.812C65.1185 235.692 65.3103 235.524 65.4592 235.321C65.6081 235.118 65.7105 234.884 65.759 234.637C65.8075 234.39 65.801 234.135 65.7399 233.891L62.7283 221.845L55.9701 222.183Z" fill="#E6E6E6"/>
<path d="M340 235.896H0V236.662H340V235.896Z" fill="#3F3D56"/>
<path d="M129.797 235.514H210.202V137.987C210.202 132.823 205.116 128.622 198.863 128.622H141.136C134.883 128.622 129.797 132.823 129.797 137.987V235.514Z" fill="#E6E6E6"/>
<path d="M135.924 231.481H204.077V148.815C204.077 144.438 199.765 140.877 194.466 140.877H145.535C140.235 140.877 135.924 144.438 135.924 148.815V231.481Z" fill="white"/>
<path d="M145.948 220.881C145.015 220.884 144.121 221.255 143.461 221.915C142.801 222.575 142.429 223.469 142.427 224.402C142.429 225.335 142.801 226.229 143.461 226.889C144.121 227.549 145.015 227.921 145.948 227.923H152.539V220.881H145.948Z" fill="#3F3D56"/>
<path d="M158.588 220.881H152.178V227.923H158.588C159.521 227.921 160.415 227.549 161.075 226.889C161.735 226.229 162.107 225.335 162.109 224.402C162.107 223.469 161.735 222.575 161.075 221.915C160.415 221.255 159.521 220.884 158.588 220.881Z" fill="#246BFD"/>
<path opacity="0.2" d="M160.886 221.743C161.441 222.38 161.748 223.196 161.748 224.041C161.746 224.974 161.374 225.868 160.714 226.528C160.054 227.188 159.16 227.559 158.227 227.562H152.178V227.923H158.588C159.521 227.921 160.415 227.549 161.075 226.889C161.735 226.229 162.107 225.335 162.109 224.402C162.109 223.897 161.999 223.398 161.788 222.939C161.577 222.48 161.269 222.072 160.886 221.743Z" fill="black"/>
<path d="M187.135 211.286C187.805 210.636 188.189 209.747 188.205 208.814C188.222 207.881 187.868 206.98 187.222 206.307C186.572 205.638 185.683 205.253 184.75 205.237C183.817 205.221 182.916 205.574 182.243 206.221L177.502 210.8L182.395 215.865L187.135 211.286Z" fill="#3F3D56"/>
<path d="M189.857 214.553C189.215 213.876 188.331 213.481 187.398 213.453C186.465 213.426 185.56 213.768 184.879 214.406C184.202 215.048 183.806 215.932 183.779 216.865C183.751 217.798 184.094 218.703 184.732 219.384L189.253 224.18L194.378 219.349L189.857 214.553Z" fill="#3F3D56"/>
<path d="M198.528 223.751L194.13 219.086L189.006 223.917L193.403 228.582C194.045 229.259 194.929 229.654 195.862 229.682C196.794 229.709 197.7 229.367 198.381 228.729C199.058 228.087 199.453 227.203 199.481 226.27C199.508 225.338 199.166 224.432 198.528 223.751Z" fill="#246BFD"/>
<path opacity="0.2" d="M199.476 226.015C199.394 226.855 199.01 227.638 198.396 228.218C197.715 228.856 196.809 229.199 195.877 229.171C194.944 229.144 194.06 228.748 193.418 228.071L189.269 223.669L189.006 223.917L193.403 228.582C194.045 229.259 194.929 229.654 195.862 229.682C196.794 229.709 197.7 229.367 198.381 228.729C198.748 228.382 199.035 227.96 199.224 227.491C199.414 227.023 199.499 226.519 199.476 226.015Z" fill="black"/>
<path d="M164.97 214.17C164.328 213.493 163.444 213.098 162.511 213.07C161.579 213.043 160.673 213.385 159.992 214.023C159.315 214.665 158.92 215.549 158.892 216.482C158.865 217.414 159.207 218.32 159.845 219.001L164.366 223.797L169.491 218.966L164.97 214.17Z" fill="#3F3D56"/>
<path d="M178.043 220.068L182.654 215.614L177.762 210.549L173.151 215.002C172.482 215.652 172.097 216.541 172.081 217.474C172.064 218.407 172.418 219.308 173.064 219.981C173.714 220.65 174.603 221.035 175.536 221.051C176.469 221.067 177.37 220.714 178.043 220.068Z" fill="#246BFD"/>
<path opacity="0.2" d="M175.792 221.044C174.95 220.971 174.163 220.597 173.575 219.99C172.929 219.317 172.575 218.416 172.591 217.483C172.607 216.55 172.992 215.661 173.661 215.011L178.013 210.808L177.762 210.549L173.151 215.002C172.482 215.652 172.097 216.541 172.081 217.474C172.064 218.407 172.418 219.308 173.064 219.981C173.416 220.344 173.841 220.627 174.312 220.81C174.783 220.993 175.287 221.073 175.792 221.044Z" fill="black"/>
<path d="M173.64 223.368L169.243 218.704L164.118 223.534L168.515 228.199C169.157 228.876 170.041 229.272 170.974 229.299C171.906 229.327 172.812 228.984 173.493 228.346C174.17 227.704 174.566 226.82 174.593 225.887C174.621 224.955 174.278 224.049 173.64 223.368Z" fill="#246BFD"/>
<path opacity="0.2" d="M174.588 225.632C174.506 226.473 174.122 227.255 173.508 227.835C172.827 228.473 171.922 228.816 170.989 228.789C170.056 228.761 169.172 228.366 168.53 227.688L164.381 223.287L164.118 223.534L168.515 228.199C169.157 228.876 170.041 229.272 170.974 229.299C171.906 229.327 172.812 228.984 173.493 228.346C173.86 227.999 174.148 227.577 174.337 227.108C174.526 226.64 174.612 226.136 174.588 225.632Z" fill="black"/>
<path d="M186.907 224.511C186.908 225.681 186.503 226.816 185.763 227.723C185.023 228.63 183.992 229.253 182.845 229.487C182.175 229.623 181.484 229.623 180.814 229.487C179.667 229.253 178.636 228.63 177.896 227.723C177.155 226.816 176.751 225.681 176.751 224.511C176.751 223.34 177.155 222.205 177.896 221.298C178.636 220.392 179.667 219.768 180.814 219.534C181.484 219.399 182.175 219.399 182.845 219.534C183.992 219.768 185.023 220.391 185.763 221.298C186.503 222.205 186.908 223.34 186.907 224.511Z" fill="#246BFD"/>
<path opacity="0.2" d="M182.845 219.534V229.487C182.174 229.623 181.484 229.623 180.813 229.487V219.534C181.484 219.399 182.174 219.399 182.845 219.534Z" fill="black"/>
<path d="M154.037 212.23C154.88 213.042 155.417 214.12 155.556 215.283C155.695 216.445 155.429 217.62 154.801 218.608C154.434 219.185 153.954 219.682 153.392 220.071C152.427 220.734 151.263 221.044 150.096 220.947C148.929 220.851 147.832 220.355 146.989 219.542C146.146 218.73 145.61 217.651 145.471 216.489C145.331 215.327 145.598 214.152 146.225 213.163C146.593 212.587 147.072 212.09 147.635 211.701C148.599 211.038 149.764 210.728 150.93 210.824C152.097 210.92 153.195 211.417 154.037 212.23Z" fill="#246BFD"/>
<path opacity="0.2" d="M147.635 211.701L154.802 218.608C154.434 219.185 153.955 219.682 153.392 220.071L146.226 213.163C146.593 212.587 147.073 212.09 147.635 211.701Z" fill="black"/>
<path d="M199.601 209.549C200.444 210.362 200.98 211.44 201.12 212.603C201.259 213.765 200.992 214.94 200.365 215.928C199.997 216.505 199.518 217.002 198.955 217.391C197.99 218.054 196.826 218.363 195.66 218.267C194.493 218.171 193.395 217.674 192.553 216.862C191.71 216.05 191.173 214.971 191.034 213.809C190.895 212.646 191.161 211.472 191.789 210.483C192.156 209.907 192.636 209.409 193.198 209.021C194.163 208.357 195.327 208.048 196.494 208.144C197.661 208.24 198.758 208.737 199.601 209.549Z" fill="#246BFD"/>
<path opacity="0.2" d="M193.198 209.021L200.364 215.928C199.997 216.505 199.517 217.002 198.955 217.391L191.788 210.483C192.156 209.907 192.635 209.409 193.198 209.021Z" fill="black"/>
<path d="M175.691 189.283C175.049 188.606 174.165 188.21 173.232 188.183C172.299 188.155 171.394 188.498 170.713 189.136C170.036 189.778 169.64 190.662 169.613 191.594C169.585 192.527 169.928 193.433 170.566 194.113L175.087 198.91L180.212 194.079L175.691 189.283Z" fill="#3F3D56"/>
<path d="M184.361 198.481L179.963 193.816L174.839 198.647L179.236 203.312C179.878 203.989 180.762 204.384 181.695 204.412C182.627 204.439 183.533 204.097 184.214 203.458C184.891 202.816 185.286 201.933 185.314 201C185.341 200.067 184.999 199.162 184.361 198.481Z" fill="#246BFD"/>
<path opacity="0.2" d="M185.309 200.744C185.227 201.585 184.843 202.368 184.229 202.948C183.548 203.586 182.642 203.929 181.71 203.901C180.777 203.874 179.893 203.478 179.251 202.801L175.102 198.399L174.839 198.647L179.236 203.312C179.878 203.989 180.762 204.384 181.695 204.412C182.627 204.439 183.533 204.097 184.214 203.459C184.581 203.111 184.868 202.689 185.057 202.221C185.247 201.753 185.332 201.249 185.309 200.744Z" fill="black"/>
<path d="M161.865 200.183C162.534 199.532 162.919 198.644 162.935 197.711C162.951 196.778 162.598 195.877 161.951 195.203C161.301 194.534 160.413 194.15 159.48 194.133C158.547 194.117 157.645 194.471 156.972 195.117L152.231 199.696L157.124 204.762L161.865 200.183Z" fill="#3F3D56"/>
<path d="M152.774 208.964L157.385 204.511L152.492 199.445L147.881 203.899C147.212 204.549 146.827 205.437 146.811 206.37C146.795 207.303 147.149 208.205 147.795 208.878C148.445 209.547 149.334 209.932 150.266 209.948C151.199 209.964 152.101 209.61 152.774 208.964Z" fill="#246BFD"/>
<path opacity="0.2" d="M150.522 209.94C149.68 209.868 148.893 209.494 148.305 208.886C147.659 208.213 147.306 207.312 147.322 206.379C147.338 205.446 147.723 204.558 148.392 203.907L152.743 199.705L152.492 199.445L147.881 203.899C147.212 204.549 146.827 205.437 146.811 206.37C146.795 207.303 147.149 208.205 147.795 208.878C148.146 209.24 148.572 209.523 149.042 209.706C149.513 209.89 150.018 209.969 150.522 209.94Z" fill="black"/>
<path d="M171.975 201.538C171.975 202.708 171.571 203.843 170.831 204.75C170.09 205.657 169.059 206.28 167.912 206.514C167.242 206.65 166.551 206.65 165.881 206.514C164.734 206.28 163.703 205.657 162.963 204.75C162.223 203.843 161.818 202.708 161.818 201.538C161.818 200.367 162.223 199.232 162.963 198.326C163.703 197.419 164.734 196.795 165.881 196.561C166.551 196.426 167.242 196.426 167.912 196.561C169.059 196.795 170.09 197.418 170.831 198.325C171.571 199.232 171.975 200.367 171.975 201.538Z" fill="#246BFD"/>
<path opacity="0.2" d="M167.912 196.561V206.514C167.242 206.65 166.551 206.65 165.881 206.514V196.561C166.551 196.426 167.242 196.426 167.912 196.561Z" fill="black"/>
<path d="M174.272 210.344C174.272 211.515 173.868 212.65 173.127 213.557C172.387 214.463 171.356 215.087 170.209 215.321C169.539 215.456 168.848 215.456 168.178 215.321C167.031 215.086 166 214.463 165.26 213.556C164.52 212.649 164.115 211.515 164.115 210.344C164.115 209.173 164.52 208.039 165.26 207.132C166 206.225 167.031 205.602 168.178 205.367C168.848 205.232 169.539 205.232 170.209 205.367C171.356 205.602 172.387 206.225 173.127 207.132C173.868 208.039 174.272 209.173 174.272 210.344Z" fill="#246BFD"/>
<path opacity="0.2" d="M170.21 205.367V215.321C169.54 215.456 168.849 215.456 168.179 215.321V205.367C168.849 205.232 169.54 205.232 170.21 205.367Z" fill="black"/>
<path d="M198.069 198.446C198.912 199.258 199.448 200.336 199.587 201.499C199.727 202.661 199.46 203.836 198.833 204.824C198.465 205.401 197.986 205.898 197.423 206.287C196.458 206.95 195.294 207.26 194.127 207.163C192.961 207.067 191.863 206.571 191.02 205.758C190.177 204.946 189.641 203.867 189.502 202.705C189.363 201.543 189.629 200.368 190.256 199.379C190.624 198.803 191.103 198.306 191.666 197.917C192.631 197.254 193.795 196.944 194.962 197.04C196.128 197.137 197.226 197.633 198.069 198.446Z" fill="#246BFD"/>
<path opacity="0.2" d="M191.667 197.917L198.833 204.824C198.465 205.401 197.986 205.898 197.423 206.287L190.257 199.38C190.625 198.803 191.104 198.306 191.667 197.917Z" fill="black"/>
<path d="M156.929 178.945C156.287 178.268 155.403 177.873 154.47 177.845C153.538 177.818 152.632 178.16 151.951 178.798C151.274 179.44 150.879 180.324 150.851 181.257C150.824 182.189 151.166 183.095 151.804 183.776L156.325 188.572L161.45 183.741L156.929 178.945Z" fill="#3F3D56"/>
<path d="M165.599 188.143L161.202 183.479L156.077 188.309L160.474 192.974C161.116 193.651 162 194.046 162.933 194.074C163.865 194.102 164.771 193.759 165.452 193.121C166.129 192.479 166.525 191.595 166.552 190.662C166.58 189.73 166.237 188.824 165.599 188.143Z" fill="#246BFD"/>
<path opacity="0.2" d="M166.547 190.407C166.465 191.247 166.081 192.03 165.467 192.61C164.786 193.248 163.881 193.591 162.948 193.563C162.015 193.536 161.131 193.14 160.489 192.463L156.34 188.061L156.077 188.309L160.474 192.974C161.116 193.651 162 194.046 162.933 194.074C163.865 194.101 164.771 193.759 165.452 193.121C165.819 192.774 166.107 192.351 166.296 191.883C166.485 191.415 166.571 190.911 166.547 190.407Z" fill="black"/>
<path d="M197.856 186.782C198.525 186.131 198.91 185.243 198.926 184.31C198.942 183.377 198.589 182.476 197.942 181.803C197.292 181.133 196.404 180.749 195.471 180.732C194.538 180.716 193.636 181.07 192.963 181.716L188.223 186.295L193.115 191.361L197.856 186.782Z" fill="#3F3D56"/>
<path d="M188.764 195.563L193.375 191.11L188.482 186.044L183.871 190.498C183.202 191.148 182.818 192.036 182.801 192.969C182.785 193.902 183.139 194.804 183.785 195.477C184.435 196.146 185.324 196.531 186.257 196.547C187.19 196.563 188.091 196.209 188.764 195.563Z" fill="#246BFD"/>
<path opacity="0.2" d="M186.512 196.539C185.67 196.467 184.883 196.093 184.296 195.486C183.649 194.813 183.296 193.911 183.312 192.978C183.328 192.045 183.713 191.157 184.382 190.507L188.733 186.304L188.482 186.044L183.871 190.498C183.202 191.148 182.818 192.036 182.801 192.969C182.785 193.902 183.139 194.804 183.785 195.477C184.137 195.839 184.562 196.122 185.033 196.305C185.503 196.489 186.008 196.569 186.512 196.539Z" fill="black"/>
<path d="M175.691 167.841C175.049 167.164 174.165 166.769 173.232 166.741C172.299 166.714 171.394 167.056 170.713 167.694C170.036 168.336 169.64 169.22 169.613 170.153C169.585 171.086 169.928 171.991 170.566 172.672L175.087 177.468L180.212 172.637L175.691 167.841Z" fill="#3F3D56"/>
<path d="M184.361 177.039L179.963 172.375L174.839 177.205L179.236 181.87C179.878 182.547 180.762 182.943 181.695 182.97C182.627 182.998 183.533 182.655 184.214 182.017C184.891 181.375 185.286 180.491 185.314 179.559C185.341 178.626 184.999 177.72 184.361 177.039Z" fill="#246BFD"/>
<path opacity="0.2" d="M185.309 179.303C185.227 180.144 184.843 180.926 184.229 181.507C183.548 182.145 182.642 182.487 181.71 182.46C180.777 182.432 179.893 182.037 179.251 181.36L175.102 176.958L174.839 177.205L179.236 181.87C179.878 182.547 180.762 182.943 181.695 182.97C182.627 182.998 183.533 182.655 184.214 182.017C184.581 181.67 184.868 181.248 185.057 180.78C185.247 180.311 185.332 179.808 185.309 179.303Z" fill="black"/>
<path d="M174.272 181.245C174.272 182.416 173.868 183.55 173.127 184.457C172.387 185.364 171.356 185.988 170.209 186.222C169.539 186.357 168.848 186.357 168.178 186.222C167.031 185.987 166 185.364 165.26 184.457C164.52 183.55 164.115 182.416 164.115 181.245C164.115 180.074 164.52 178.94 165.26 178.033C166 177.126 167.031 176.503 168.178 176.268C168.848 176.133 169.539 176.133 170.209 176.268C171.356 176.502 172.387 177.126 173.127 178.033C173.868 178.939 174.272 180.074 174.272 181.245Z" fill="#246BFD"/>
<path opacity="0.2" d="M170.21 176.268V186.222C169.54 186.357 168.849 186.357 168.179 186.222V176.268C168.849 176.133 169.54 176.133 170.21 176.268Z" fill="black"/>
<path d="M281.267 224.601L274.41 223.913L267.584 150.947L265.004 223.678L258.268 223.437L246.914 122.708H290.291L281.267 224.601Z" fill="#246BFD"/>
<path d="M129.19 121.031C127.203 121.031 125.586 122.367 125.586 124.009V132.602C125.586 134.243 127.203 135.579 129.19 135.579H210.811C212.798 135.579 214.415 134.243 214.415 132.602V124.009C214.415 122.367 212.798 121.031 210.811 121.031H129.19Z" fill="#3F3D56"/>
<path opacity="0.2" d="M204.268 121.031H202.354V135.198H204.268V121.031Z" fill="black"/>
<path opacity="0.2" d="M193.164 121.031H191.25V135.198H193.164V121.031Z" fill="black"/>
<path opacity="0.2" d="M182.061 121.031H180.146V135.198H182.061V121.031Z" fill="black"/>
<path opacity="0.2" d="M170.957 121.031H169.043V135.198H170.957V121.031Z" fill="black"/>
<path opacity="0.2" d="M159.854 121.031H157.939V135.198H159.854V121.031Z" fill="black"/>
<path opacity="0.2" d="M148.75 121.031H146.836V135.198H148.75V121.031Z" fill="black"/>
<path opacity="0.2" d="M137.647 121.031H135.732V135.198H137.647V121.031Z" fill="black"/>
<path d="M80.6428 223.649L73.3213 222.914L66.032 144.998L63.2772 222.663L56.0839 222.406L43.96 114.844H90.28L80.6428 223.649Z" fill="#246BFD"/>
<path d="M284.082 36.3904L257.854 36.6459C256.621 30.5767 252.479 14.652 256.209 10.3084C256.379 8.67362 257.173 7.16736 258.426 6.10323C259.679 5.03909 261.294 4.49908 262.934 4.5956C267 -1.76785 273.771 -0.812416 278.347 3.16184C282.953 4.75109 284.69 7.57449 284.082 11.406C287.493 14.3917 288.123 18.0242 286.591 22.1592L284.082 36.3904Z" fill="#2F2E41"/>
<path d="M281.557 52.5476L262.634 49.9276L258.85 44.3962C264.063 40.9381 265.908 36.108 263.508 29.5489L276.608 29.2578C275.994 35.0987 277.926 39.6212 283.304 42.3584L281.557 52.5476Z" fill="#FFB9B9"/>
<path d="M296.696 125.037L243.712 125.62C251.575 95.6854 256.279 67.8791 248.079 48.7631L261.179 42.3584C267.496 48.947 274.531 48.2677 282.14 41.7761L294.658 44.9785C292.514 70.0462 293.475 96.894 296.696 125.037Z" fill="#246BFD"/>
<path d="M229.155 94.1782L262.052 107.279L269.407 109.442C269.736 109.539 270.081 109.568 270.422 109.528C270.762 109.488 271.091 109.38 271.389 109.209C271.687 109.039 271.947 108.81 272.154 108.537C272.361 108.263 272.51 107.951 272.593 107.618C272.739 107.035 272.674 106.419 272.409 105.879C272.143 105.339 271.696 104.911 271.145 104.67L263.508 102.33L240.509 88.938L245.313 76.2742L235.269 70.8884L229.155 94.1782Z" fill="#FFB9B9"/>
<path d="M261.944 78.9146C260.915 78.9157 259.929 79.3249 259.201 80.0523C258.474 80.7797 258.065 81.7659 258.063 82.7946L259.595 114.854C259.596 115.883 260.005 116.869 260.733 117.597C261.46 118.324 262.446 118.733 263.475 118.734H280.985C282.014 118.733 283 118.324 283.728 117.597C284.455 116.869 284.864 115.883 284.865 114.854L286.397 82.7946C286.396 81.7659 285.987 80.7797 285.259 80.0523C284.532 79.3249 283.545 78.9157 282.517 78.9146H261.944Z" fill="#3F3D56"/>
<path d="M311.625 91.7564L282.951 103.174L280.787 104.035C280.718 104.062 280.65 104.085 280.577 104.108L273.329 106.241C272.402 106.513 271.12 105.264 270.369 104.403C269.998 103.988 269.787 103.453 269.776 102.896C269.765 102.339 269.953 101.797 270.308 101.367C270.408 101.251 270.518 101.145 270.637 101.049C270.917 100.832 271.245 100.687 271.594 100.628L278.835 99.2035C279.094 99.1525 279.344 99.0594 279.574 98.9278L282.951 96.9598L300.483 86.7521C300.971 86.4687 301.342 86.0214 301.53 85.4899C301.719 84.9584 301.713 84.3772 301.513 83.8499L298.166 75.0244C297.961 74.4844 297.96 73.8882 298.162 73.3471C298.364 72.8059 298.756 72.3569 299.265 72.0839L304.809 69.1127C305.126 68.9426 305.478 68.8467 305.837 68.832C306.196 68.8174 306.554 68.8845 306.884 69.0283C307.213 69.1721 307.506 69.3888 307.739 69.662C307.973 69.9353 308.142 70.258 308.232 70.6059L313.045 88.9384C313.193 89.5005 313.131 90.0974 312.869 90.6165C312.607 91.1356 312.165 91.541 311.625 91.7564Z" fill="#FFB9B9"/>
<path d="M283.717 96.4182V103.355L281.302 104.316C281.225 104.346 281.148 104.372 281.067 104.398L272.976 106.778C271.942 107.082 270.51 105.688 269.673 104.727C269.258 104.263 269.023 103.667 269.01 103.045C268.998 102.423 269.208 101.817 269.604 101.337C269.716 101.209 269.839 101.09 269.972 100.983C270.284 100.74 270.651 100.578 271.04 100.513L279.122 98.9227C279.412 98.8658 279.691 98.7618 279.947 98.615L283.717 96.4182Z" fill="white"/>
<path d="M229.446 70.3063C235.705 72.7481 240.683 76.9154 244.585 82.5334L256.812 64.775L248.078 48.7632L229.446 70.3063Z" fill="#246BFD"/>
<path d="M313.29 67.1039C307.031 69.5456 302.053 73.7129 298.152 79.331L285.925 61.5725L294.659 44.9785L313.29 67.1039Z" fill="#246BFD"/>
<path d="M255.392 66.8337H254.009C254.009 48.9113 258.066 37.7776 264.04 37.7776L263.694 39.1612C259.562 39.1612 255.392 47.7178 255.392 66.8337Z" fill="#3F3D56"/>
<path d="M287.216 71.6763H285.832C285.832 52.1069 281.803 38.4693 277.876 38.4693L277.53 37.0857C281.052 37.0857 283.297 42.7615 284.56 47.5232C286.272 53.9783 287.216 62.5561 287.216 71.6763Z" fill="#3F3D56"/>
<path d="M286.524 75.4813C288.434 75.4813 289.983 73.9327 289.983 72.0223C289.983 70.1119 288.434 68.5632 286.524 68.5632C284.613 68.5632 283.064 70.1119 283.064 72.0223C283.064 73.9327 284.613 75.4813 286.524 75.4813Z" fill="#3F3D56"/>
<path d="M249.858 75.1354H248.475C248.475 70.1763 251.268 66.1418 254.701 66.1418V67.5255C252.031 67.5255 249.858 70.9393 249.858 75.1354Z" fill="#3F3D56"/>
<path d="M260.927 75.1354H259.543C259.543 70.9393 257.371 67.5255 254.7 67.5255V66.1418C258.133 66.1418 260.927 70.1763 260.927 75.1354Z" fill="#3F3D56"/>
<path d="M260.235 76.8649C260.999 76.8649 261.619 76.2454 261.619 75.4813C261.619 74.7171 260.999 74.0977 260.235 74.0977C259.471 74.0977 258.852 74.7171 258.852 75.4813C258.852 76.2454 259.471 76.8649 260.235 76.8649Z" fill="#3F3D56"/>
<path d="M249.166 76.8649C249.93 76.8649 250.549 76.2454 250.549 75.4813C250.549 74.7171 249.93 74.0977 249.166 74.0977C248.402 74.0977 247.782 74.7171 247.782 75.4813C247.782 76.2454 248.402 76.8649 249.166 76.8649Z" fill="#3F3D56"/>
<path d="M42.4472 89.1144L31.7354 82.4656L40.8706 55.7102C41.8895 52.9494 43.8411 50.6313 46.3879 49.1569L49.4652 47.3752L49.7328 74.3665L42.4472 89.1144Z" fill="#246BFD"/>
<path d="M78.6456 48.1141L59.8076 47.0059C61.6538 42.7686 62.3912 38.6883 61.6545 34.8167H75.6906C75.6588 37.7893 77.1381 42.9314 78.6456 48.1141Z" fill="#9F616A"/>
<path d="M88.7484 102.109L87.1636 88.5347C87.079 81.3699 88.2979 74.4429 91.2044 68.0602L92.6819 48.114L76.4295 41.4653C76.3796 41.7965 76.3373 42.1275 76.2897 42.4586L68.6726 46.2672L61.2441 44.5789L61.2852 42.2041L46.5103 48.8528C51.3963 71.5685 48.7314 95.1577 40.3291 123.021L59.7937 128.343L59.9555 118.997L77.3027 117.758C77.4814 120.79 77.6249 123.768 77.7083 126.681C87.4968 130.285 87.833 130.225 96.7515 125.065C93.1998 117.598 90.3877 109.827 88.7484 102.109Z" fill="#246BFD"/>
<path d="M82.4805 100.167C82.6437 100.883 83.0841 101.506 83.7053 101.897C84.3266 102.289 85.0778 102.419 85.7943 102.257L94.2602 100.34L93.0366 94.9365L84.5706 96.8534C83.8541 97.0157 83.2313 97.456 82.8393 98.0775C82.4474 98.699 82.3183 99.4506 82.4805 100.167V100.167Z" fill="#E6E6E6"/>
<path d="M113.736 85.7899L103.763 82.4657L87.8105 63.8948L92.6816 48.1143L114.844 79.1416L113.736 85.7899Z" fill="#246BFD"/>
<path d="M90.0957 93.9163L94.8975 102.781C102.974 100.529 109.974 93.427 116.691 85.0513L114.844 79.1414L103.393 82.0963L90.0957 93.9163Z" fill="#246BFD"/>
<path d="M27.4873 66.1089L36.7056 67.7549L57.776 97.7143L46.5824 95.0805L27.4873 66.1089Z" fill="#E6E6E6"/>
<path d="M25.8523 65.7422C25.7119 65.7443 25.5745 65.7841 25.4547 65.8575C25.3349 65.9308 25.237 66.035 25.1713 66.1592C25.1055 66.2833 25.0743 66.4229 25.081 66.5632C25.0876 66.7035 25.1318 66.8395 25.209 66.9569L44.9042 96.8395C45.0142 97.0065 45.1839 97.1251 45.3786 97.1708L54.5422 99.3268C54.6967 99.3632 54.8586 99.3517 55.0065 99.2939C55.1543 99.2361 55.2811 99.1348 55.37 99.0033C55.4589 98.8718 55.5057 98.7164 55.5042 98.5577C55.5028 98.3989 55.4531 98.2444 55.3617 98.1146L33.7376 67.3677C33.6789 67.284 33.6044 67.2126 33.5181 67.1577C33.4319 67.1027 33.3356 67.0653 33.2349 67.0476L26 65.7555C25.9513 65.7468 25.9019 65.7423 25.8523 65.7422Z" fill="#3F3D56"/>
<path d="M38.1377 87.1078L38.6851 92.6213L47.3228 91.7639C48.0539 91.6913 48.7263 91.3313 49.192 90.763C49.6576 90.1947 49.8785 89.4647 49.8059 88.7335C49.7334 88.0024 49.3733 87.33 48.805 86.8643C48.2367 86.3987 47.5067 86.1778 46.7756 86.2504L38.1377 87.1078Z" fill="#E6E6E6"/>
<path d="M30.627 86.4691C30.6395 88.3491 31.3946 90.148 32.7276 91.4737C34.0607 92.7994 35.8636 93.5446 37.7437 93.5467H39.164L40.198 84.9298L31.6366 81.8477L30.627 86.4691Z" fill="#246BFD"/>
<path d="M270.786 34.2069C278.021 34.2069 283.887 28.3416 283.887 21.1064C283.887 13.8712 278.021 8.00586 270.786 8.00586C263.551 8.00586 257.686 13.8712 257.686 21.1064C257.686 28.3416 263.551 34.2069 270.786 34.2069Z" fill="#FFB9B9"/>
<path d="M279.505 32.7666C273.774 35.1505 267.764 35.0537 261.509 32.7666C263.329 29.6599 260.609 27.2267 259.212 24.0906L282.568 23.3965C280.782 26.1209 278.146 29.3398 279.505 32.7666Z" fill="white"/>
<path d="M282.98 26.1659L278.959 32.4829L279.282 32.6886L283.303 26.3716L282.98 26.1659Z" fill="white"/>
<path d="M258.033 26.1655L257.71 26.3711L261.73 32.6887L262.053 32.4831L258.033 26.1655Z" fill="white"/>
<path d="M257.611 22.2921L257.366 22.5864L259.664 24.5008L259.909 24.2066L257.611 22.2921Z" fill="white"/>
<path d="M282.32 23.9148L282.049 23.6441L282.432 23.2613L284.719 20.5918L285.01 20.8407L282.713 23.5209L282.32 23.9148Z" fill="white"/>
<path d="M285.551 18.9833C280.234 17.6133 275.006 17.4252 269.924 19.163C266.687 20.7308 262.8 20.5863 258.477 19.2945V6.22412L281.817 6.84652L285.551 18.9833Z" fill="#2F2E41"/>
<path d="M82.4232 28.9832L58.1231 33.0982C57.5229 33.2006 56.9059 33.0767 56.3917 32.7505C55.8775 32.4242 55.5026 31.9188 55.3396 31.3321C53.5839 24.9956 49.9133 16.7294 53.4771 12.5798C53.6586 10.8341 54.5065 9.22564 55.8441 8.08931C57.1818 6.95299 58.9061 6.37633 60.6582 6.47939C64.9992 -0.315759 72.2298 0.704491 77.1168 4.94836C82.0351 6.64543 83.8894 9.66038 83.2409 13.7518C85.3656 15.6116 86.4796 17.7065 86.7145 20.0058C86.8258 21.2853 86.663 22.5738 86.2369 23.7854C85.8108 24.997 85.1312 26.1038 84.2434 27.032L82.4232 28.9832Z" fill="#2F2E41"/>
<path d="M69.043 39.3006C76.7691 39.3006 83.0323 33.0374 83.0323 25.3113C83.0323 17.5852 76.7691 11.322 69.043 11.322C61.3169 11.322 55.0537 17.5852 55.0537 25.3113C55.0537 33.0374 61.3169 39.3006 69.043 39.3006Z" fill="#9F616A"/>
<path d="M78.3531 36.5358C72.2332 39.0814 65.8161 38.9781 59.1367 36.5358C61.0803 33.2183 58.1751 30.6201 56.6836 27.2712L81.6239 26.53C79.7167 29.4393 76.9024 32.8765 78.3531 36.5358Z" fill="white"/>
<path d="M82.0753 29.4939L77.7812 36.2395L78.1043 36.4452L82.3984 29.6996L82.0753 29.4939Z" fill="white"/>
<path d="M55.4129 29.4936L55.0898 29.6992L59.3829 36.4454L59.7059 36.2398L55.4129 29.4936Z" fill="white"/>
<path d="M54.966 25.3607L54.7207 25.655L57.1737 27.6992L57.419 27.4049L54.966 25.3607Z" fill="white"/>
<path d="M80.9406 27.4833L80.6699 27.2126L81.0788 26.8037L83.522 23.9524L83.8126 24.2013L81.3595 27.0633L80.9406 27.4833Z" fill="white"/>
<path d="M84.8096 18.6284C79.1318 17.6396 73.5495 17.5038 68.123 18.758C64.6663 19.8896 60.515 19.7853 55.8984 18.853V9.41919L80.8219 9.86842L84.8096 18.6284Z" fill="#2F2E41"/>
<path opacity="0.1" d="M11.6115 111.48H41.1618V151.761H13.7722C13.7023 152.178 13.6324 152.591 13.5538 153.008H41.1618V185.487C41.1152 185.487 41.0686 185.452 41.0249 185.435C40.2484 185.126 39.4719 184.799 38.6954 184.453C38.5294 184.378 38.3663 184.299 38.1974 184.226C37.4209 183.859 36.6444 183.471 35.8679 183.062C35.5971 182.919 35.3263 182.77 35.0613 182.619C30.7504 180.213 26.8323 177.163 23.4427 173.574C23.3408 173.478 23.2476 173.374 23.1515 173.283C22.6798 172.771 22.2168 172.252 21.7683 171.723C21.5994 171.527 21.4364 171.329 21.2704 171.14C20.7404 170.494 20.2279 169.824 19.7329 169.151C19.6572 169.049 19.5873 168.95 19.5145 168.86C17.4866 166.054 15.8049 163.013 14.506 159.804C14.4652 159.708 14.4273 159.603 14.3895 159.513C13.9876 158.494 13.6236 157.46 13.3092 156.406C13.1752 155.966 13.0442 155.532 12.9335 155.075C12.8928 154.944 12.8607 154.81 12.8258 154.679C11.1893 148.229 11 141.526 11 134.855C11 134.078 11 133.302 11 132.525C11.0233 129.801 11.0553 127.081 11.0961 124.363C11.1116 123.664 11.1262 122.962 11.1398 122.258C11.1805 120.473 11.2388 118.686 11.3145 116.894C11.332 116.399 11.3553 115.901 11.3815 115.409C11.3931 115.123 11.4077 114.838 11.4251 114.553C11.4776 113.522 11.5397 112.498 11.6115 111.48Z" fill="#246BFD"/>
<path opacity="0.1" d="M41.1619 66.631H24.9512C27.5875 62.5091 30.4667 58.5477 33.5734 54.7678C35.9845 51.8092 38.5237 48.9264 41.1619 46.1484V66.631Z" fill="#246BFD"/>
<path opacity="0.1" d="M41.1612 67.8716V110.234H11.7041C11.7041 110.112 11.7216 109.987 11.7332 109.865C11.7594 109.53 11.7856 109.198 11.8148 108.863C11.8439 108.473 11.8817 108.082 11.9196 107.698C11.9574 107.314 11.9953 106.848 12.0419 106.426C12.0885 106.003 12.1263 105.575 12.1729 105.153C12.2195 104.731 12.2661 104.309 12.3185 103.889C12.3709 103.47 12.4175 103.045 12.4758 102.625C12.5194 102.279 12.5631 101.93 12.6126 101.58C12.6796 101.088 12.7495 100.596 12.8223 100.107C12.8223 100.031 12.8456 99.9582 12.8572 99.8854C13.3894 96.3045 14.1126 92.7547 15.0237 89.251C15.9805 85.5762 17.2018 81.9754 18.6782 78.4768C20.2469 74.8111 22.0845 71.2664 24.1759 67.8716H41.1612Z" fill="#246BFD"/>
<path opacity="0.1" d="M48.2197 111.481V151.761H111.339V111.481H48.2197ZM48.2197 153.008V187.601C48.5808 187.674 48.9361 187.747 49.2942 187.808C49.7747 187.901 50.2581 187.986 50.7502 188.059L51.0414 188.099C51.2336 188.131 51.4287 188.158 51.6238 188.181C52.1101 188.251 52.5964 188.303 53.0797 188.35C53.3069 188.373 53.5427 188.391 53.7728 188.411L54.3348 188.452C54.6405 188.475 54.9434 188.492 55.2462 188.504C55.4326 188.504 55.6189 188.519 55.8082 188.524C55.9975 188.53 56.0994 188.524 56.2508 188.524H56.8012C57.0516 188.524 57.302 188.524 57.5496 188.524H57.8699C58.1203 188.524 58.3707 188.524 58.6182 188.501H58.6328C58.8075 188.501 58.9793 188.501 59.154 188.481C59.2035 188.484 59.2531 188.484 59.3025 188.481C59.4481 188.481 59.5937 188.481 59.7335 188.463C59.7665 188.461 59.7996 188.461 59.8325 188.463C60.1557 188.443 60.4819 188.417 60.8109 188.388C61.14 188.358 61.4515 188.324 61.7806 188.289L62.4416 188.207C65.1427 187.829 67.8137 187.261 70.4349 186.507C76.3257 184.864 82.0826 182.567 87.9705 180.886C95.5765 178.717 103.986 177.648 111.336 180.29V153.008H48.2197ZM111.339 66.631V13.0049C104.429 12.9289 97.538 13.7362 90.8329 15.4073C74.8493 19.4228 60.4964 28.1324 48.2197 39.256V66.6281H51.3966V67.8715H48.2197V110.234H111.339V67.8715H64.3926V66.6252L111.339 66.631ZM192.43 48.5159C188.476 48.3761 184.545 47.1269 180.986 45.1905C174.19 41.4952 168.756 35.782 162.688 30.9657C150.079 20.9283 134.442 14.8685 118.4 13.366V66.631H208.498L208.723 66.3952L192.43 48.5159ZM200.639 47.0599L209.343 56.614V44.5469C206.413 44.9168 203.862 45.7758 200.639 47.0483V47.0599ZM209.343 196.192V153.008H190.782C190.735 152.824 190.683 152.638 190.625 152.451C190.68 152.638 190.73 152.824 190.779 153.008H118.4V184.235C119.087 184.745 119.766 185.283 120.439 185.825C121.165 186.419 121.886 187.02 122.602 187.628L123.324 188.225C123.671 188.516 124.023 188.807 124.373 189.084C125.073 189.648 125.779 190.208 126.49 190.761C126.845 191.04 127.202 191.315 127.561 191.585C133.249 195.932 139.248 199.855 145.51 203.323C146.914 204.106 148.332 204.86 149.759 205.597C150.708 206.086 151.664 206.566 152.627 207.036C154.071 207.74 155.527 208.42 156.995 209.074C170.525 215.148 184.833 219.315 199.509 221.456C202.767 221.935 206.039 222.314 209.325 222.591V196.186H209.616L209.343 196.192ZM118.4 67.8715V110.234H209.343V67.8715H118.4ZM118.4 111.475V151.761H209.343V111.481L118.4 111.475ZM216.401 44.4887V57.971L227.507 45.7787C223.827 45.1711 220.125 44.7411 216.401 44.4887ZM216.401 111.481V151.761H304.851V111.481H216.401ZM304.54 199.386L304.851 153.008H216.401V223.06C222.099 223.297 227.804 223.228 233.494 222.853H233.593C236.311 222.679 239.016 222.43 241.709 222.108H241.77C256.139 220.435 270.189 216.682 283.478 210.967M321.915 118.097C321.579 117.32 321.235 116.543 320.881 115.767C320.223 114.311 319.53 112.896 318.814 111.484H311.913V151.761H329.358C329.343 140.352 326.455 128.705 321.915 118.097ZM294.537 181.032V191.515H300.792C308.957 177.845 314.166 162.615 316.081 146.808C317.997 131 316.577 114.967 311.913 99.7426L294.537 181.032ZM234.551 133.684C234.091 133.506 233.628 133.329 233.165 133.16C228.283 131.356 223.294 129.856 218.227 128.67L201.227 147.324L200.895 147.682L201.114 147.918H261.618C270.771 116.013 267.301 81.8104 251.927 52.3946L234.551 133.684ZM280.769 67.8715H217.642L216.401 69.0043V110.234H227.277H304.851V90.2584C297.837 81.7758 289.741 74.2494 280.769 67.8715Z" fill="#246BFD"/>
<path opacity="0.1" d="M41.1612 89.2422V110.234H11.7041C11.7041 110.112 11.7216 109.987 11.7332 109.864C11.7594 109.53 11.7856 109.198 11.8148 108.863C11.8439 108.473 11.8817 108.082 11.9196 107.698C11.9574 107.314 11.9953 106.848 12.0419 106.425C12.0885 106.003 12.1263 105.575 12.1729 105.153C12.2195 104.731 12.2661 104.309 12.3185 103.889C12.3709 103.47 12.4175 103.045 12.4758 102.625C12.5194 102.279 12.5631 101.929 12.6126 101.58C12.6796 101.088 12.7495 100.596 12.8223 100.107C12.8223 100.031 12.8456 99.9581 12.8572 99.8853C13.3894 96.3044 14.1126 92.7546 15.0237 89.2509L41.1612 89.2422Z" fill="#246BFD"/>
<path opacity="0.1" d="M11.6115 111.48H41.1618V151.761H13.7722C13.7023 152.178 13.6324 152.591 13.5538 153.008H41.1618V185.487C41.1152 185.487 41.0686 185.452 41.0249 185.435C40.2484 185.126 39.4719 184.799 38.6954 184.453C38.5294 184.378 38.3663 184.299 38.1974 184.226C37.4209 183.859 36.6444 183.471 35.8679 183.062C35.5971 182.919 35.3263 182.77 35.0613 182.619C30.7504 180.213 26.8323 177.163 23.4427 173.574C23.3408 173.478 23.2476 173.374 23.1515 173.283C22.6798 172.771 22.2168 172.252 21.7683 171.723C21.5994 171.527 21.4364 171.329 21.2704 171.14C20.7404 170.494 20.2279 169.824 19.7329 169.151C19.6572 169.049 19.5873 168.95 19.5145 168.86C17.4866 166.054 15.8049 163.013 14.506 159.804C14.4652 159.708 14.4273 159.603 14.3895 159.513C13.9876 158.494 13.6236 157.46 13.3092 156.406C13.1752 155.966 13.0442 155.532 12.9335 155.075C12.8928 154.944 12.8607 154.81 12.8258 154.679C11.1893 148.229 11 141.526 11 134.855C11 134.078 11 133.302 11 132.525C11.0233 129.801 11.0553 127.081 11.0961 124.363C11.1116 123.664 11.1262 122.962 11.1398 122.258C11.1805 120.473 11.2388 118.686 11.3145 116.894C11.332 116.399 11.3553 115.901 11.3815 115.409C11.3931 115.123 11.4077 114.838 11.4251 114.553C11.4776 113.522 11.5397 112.498 11.6115 111.48Z" fill="#246BFD"/>
<path opacity="0.1" d="M70.4377 73.94V110.234H48.2168V73.94H51.385V61.6516H64.3897V73.94H70.4377Z" fill="#246BFD"/>
<path opacity="0.1" d="M70.4348 111.478H48.2168V151.758H70.4348V111.478Z" fill="#246BFD"/>
<path opacity="0.1" d="M48.2197 153.008H70.4378V186.495C67.8169 187.249 65.1458 187.817 62.4445 188.192C62.2232 188.224 62.0048 188.251 61.7835 188.274C61.4574 188.312 61.1341 188.347 60.8109 188.376L59.8354 188.455H59.7364L59.3055 188.478H59.1569C58.9822 188.478 58.8104 188.498 58.6357 188.501H58.6211C58.3707 188.501 58.1232 188.519 57.8728 188.524H57.5525C57.305 188.524 57.0574 188.524 56.8041 188.524H56.2567H55.8111C55.6219 188.524 55.4355 188.524 55.2462 188.501C54.9473 188.489 54.6444 188.472 54.3377 188.449L53.7757 188.408C53.5427 188.39 53.3098 188.367 53.0797 188.344C52.5905 188.301 52.1052 188.246 51.6238 188.178L51.0414 188.096L50.7502 188.056C50.2639 187.983 49.7805 187.901 49.2942 187.808C48.9332 187.744 48.5779 187.671 48.2197 187.595V153.008Z" fill="#246BFD"/>
<path opacity="0.1" d="M209.34 69.6536H191.019V110.231H209.34V69.6536Z" fill="#246BFD"/>
<path opacity="0.1" d="M209.343 111.478V151.761H118.4V134.386H166.84V144.636H191.018V111.478H209.343Z" fill="#246BFD"/>
<path opacity="0.1" d="M209.631 196.2C209.535 196.2 209.439 196.2 209.34 196.183V222.609C206.057 222.339 202.786 221.961 199.527 221.476C184.846 219.336 170.532 215.171 156.995 209.1C153.087 207.337 149.259 205.417 145.51 203.337C139.25 199.868 133.252 195.945 127.564 191.599C126.132 190.505 124.72 189.385 123.33 188.242C122.366 187.444 121.411 186.629 120.439 185.84C119.769 185.295 119.091 184.756 118.4 184.244V153.008H190.779C190.727 152.821 190.68 152.638 190.628 152.451C190.683 152.638 190.736 152.821 190.782 153.008H209.343V196.18C209.439 196.183 209.535 196.192 209.631 196.2Z" fill="#246BFD"/>
<path opacity="0.1" d="M257.128 66.6309H245.189V62.9211H250.539V51.8704C251.003 52.0412 251.465 52.2159 251.925 52.3945V62.9211H257.125L257.128 66.6309Z" fill="#246BFD"/>
<path opacity="0.1" d="M285.895 110.234H227.277C227.283 110.236 227.289 110.236 227.295 110.234H227.269H216.401V69.6566H219.482V99.6495H233.558V81.8867H245.192V67.8716H257.131V81.8954H268.758V99.6582H285.898L285.895 110.234Z" fill="#246BFD"/>
<path opacity="0.1" d="M216.401 111.48V151.761H285.898V111.48H216.401ZM304.752 199.173L304.851 167.288H285.898V153.019H216.401V223.06C222.099 223.297 227.805 223.228 233.494 222.853H233.593C236.311 222.678 239.016 222.43 241.709 222.108H241.77C256.139 220.435 270.189 216.682 283.478 210.967" fill="#246BFD"/>
<path opacity="0.1" d="M313.136 153.008H329.347C329.207 161.187 327.565 169.221 323.968 176.641C320.981 182.805 316.826 188.195 311.913 192.904V167.279H313.136V153.008Z" fill="#246BFD"/>
<path opacity="0.1" d="M329.358 151.761H313.136V118.096H321.915C326.455 128.705 329.344 140.352 329.358 151.761Z" fill="#246BFD"/>
<path opacity="0.1" d="M209.343 80.9343H199.527V93.6565H209.343V80.9343Z" fill="#246BFD"/>
<path opacity="0.1" d="M209.343 107.305H199.527V110.234H209.343V107.305Z" fill="#246BFD"/>
<path opacity="0.1" d="M209.343 111.478H199.527V120.024H209.343V111.478Z" fill="#246BFD"/>
<path opacity="0.1" d="M209.343 133.675H199.527V146.398H209.343V133.675Z" fill="#246BFD"/>
<path opacity="0.1" d="M209.343 160.046H199.527V172.768H209.343V160.046Z" fill="#246BFD"/>
<path opacity="0.1" d="M209.343 196.18C209.44 196.18 209.536 196.18 209.635 196.2C209.539 196.2 209.442 196.2 209.343 196.183V199.138H199.527V186.416H209.343V196.18Z" fill="#246BFD"/>
<path opacity="0.1" d="M209.343 212.784V222.609C206.059 222.339 202.787 221.961 199.527 221.476V212.784H209.343Z" fill="#246BFD"/>
<path opacity="0.1" d="M160.469 150.827H118.4V151.761H160.469V150.827Z" fill="#246BFD"/>
<path opacity="0.1" d="M160.469 153.005H118.4V156.586H160.469V153.005Z" fill="#246BFD"/>
<path opacity="0.1" d="M160.469 168.327H118.4V174.087H160.469V168.327Z" fill="#246BFD"/>
<path opacity="0.1" d="M160.47 185.828V191.588H127.565C126.132 190.497 124.721 189.377 123.331 188.227C122.364 187.432 121.409 186.617 120.439 185.828H160.47Z" fill="#246BFD"/>
<path opacity="0.1" d="M160.469 203.326V209.1H156.995C153.088 207.337 149.259 205.416 145.511 203.337L160.469 203.326Z" fill="#246BFD"/>
<path opacity="0.1" d="M241.777 115.383H233.495V123.664H241.777V115.383Z" fill="#246BFD"/>
<path opacity="0.1" d="M62.4651 76.7966H54.1836V85.0782H62.4651V76.7966Z" fill="#246BFD"/>
<path opacity="0.1" d="M62.4651 96.0327H54.1836V104.314H62.4651V96.0327Z" fill="#246BFD"/>
<path opacity="0.1" d="M62.4651 115.269H54.1836V123.551H62.4651V115.269Z" fill="#246BFD"/>
<path opacity="0.1" d="M62.4651 134.502H54.1836V142.784H62.4651V134.502Z" fill="#246BFD"/>
<path opacity="0.1" d="M62.4651 153.739H54.1836V162.02H62.4651V153.739Z" fill="#246BFD"/>
<path opacity="0.1" d="M62.4651 172.975H54.1836V181.256H62.4651V172.975Z" fill="#246BFD"/>
<path opacity="0.1" d="M273.391 115.383H265.109V123.664H273.391V115.383Z" fill="#246BFD"/>
<path opacity="0.1" d="M241.777 135.81H233.495V144.091H241.777V135.81Z" fill="#246BFD"/>
<path opacity="0.1" d="M273.391 135.81H265.109V144.091H273.391V135.81Z" fill="#246BFD"/>
<path opacity="0.1" d="M241.777 156.234H233.495V164.516H241.777V156.234Z" fill="#246BFD"/>
<path opacity="0.1" d="M273.391 156.234H265.109V164.516H273.391V156.234Z" fill="#246BFD"/>
<path opacity="0.1" d="M241.777 176.661H233.495V184.943H241.777V176.661Z" fill="#246BFD"/>
<path opacity="0.1" d="M273.391 176.661H265.109V184.943H273.391V176.661Z" fill="#246BFD"/>
<path opacity="0.1" d="M241.777 197.088H233.495V205.37H241.777V197.088Z" fill="#246BFD"/>
<path opacity="0.1" d="M273.391 197.088H265.109V205.37H273.391V197.088Z" fill="#246BFD"/>
<path opacity="0.1" d="M233.495 222.853V217.513H241.774V222.093L233.495 222.853Z" fill="#246BFD"/>
<path opacity="0.1" d="M12.8223 99.8765V104.614H41.1612V99.8765H12.8223ZM15.6439 104.317H13.3144V100.176H15.6439V104.317ZM18.4656 104.317H16.136V100.176H18.4656V104.317ZM21.2814 104.317H18.9519V100.176H21.2814V104.317ZM24.1031 104.317H21.7735V100.176H24.1031V104.317ZM26.9218 104.317H24.5923V100.176H26.9218V104.317ZM29.7435 104.317H27.414V100.176H29.7435V104.317ZM32.5652 104.317H30.2356V100.176H32.5652V104.317ZM35.3839 104.317H33.0544V100.176H35.3839V104.317ZM38.2027 104.317H35.8731V100.176H38.2027V104.317ZM41.0243 104.317H38.6948V100.176H41.0243V104.317Z" fill="#246BFD"/>
<path opacity="0.1" d="M12.8223 113.667V118.405H41.1612V113.667H12.8223ZM15.6439 118.108H13.3144V113.967H15.6439V118.108ZM18.4656 118.108H16.136V113.967H18.4656V118.108ZM21.2814 118.108H18.9519V113.967H21.2814V118.108ZM24.1031 118.108H21.7735V113.967H24.1031V118.108ZM26.9218 118.108H24.5923V113.967H26.9218V118.108ZM29.7435 118.108H27.414V113.967H29.7435V118.108ZM32.5652 118.108H30.2356V113.967H32.5652V118.108ZM35.3839 118.108H33.0544V113.967H35.3839V118.108ZM38.2027 118.108H35.8731V113.967H38.2027V118.108ZM41.0243 118.108H38.6948V113.967H41.0243V118.108Z" fill="#246BFD"/>
<path opacity="0.1" d="M12.8223 127.461V132.196H41.1612V127.461H12.8223ZM15.6439 131.896H13.3144V127.755H15.6439V131.896ZM18.4656 131.896H16.136V127.755H18.4656V131.896ZM21.2814 131.896H18.9519V127.755H21.2814V131.896ZM24.1031 131.896H21.7735V127.755H24.1031V131.896ZM26.9218 131.896H24.5923V127.755H26.9218V131.896ZM29.7435 131.896H27.414V127.755H29.7435V131.896ZM32.5652 131.896H30.2356V127.755H32.5652V131.896ZM35.3839 131.896H33.0544V127.755H35.3839V131.896ZM38.2027 131.896H35.8731V127.755H38.2027V131.896ZM41.0243 131.896H38.6948V127.755H41.0243V131.896Z" fill="#246BFD"/>
<path opacity="0.1" d="M12.8223 141.252V145.987H41.1612V141.252H12.8223ZM15.6439 145.69H13.3144V141.543H15.6439V145.69ZM18.4656 145.69H16.136V141.543H18.4656V145.69ZM21.2814 145.69H18.9519V141.543H21.2814V145.69ZM24.1031 145.69H21.7735V141.543H24.1031V145.69ZM26.9218 145.69H24.5923V141.543H26.9218V145.69ZM29.7435 145.69H27.414V141.543H29.7435V145.69ZM32.5652 145.69H30.2356V141.543H32.5652V145.69ZM35.3839 145.69H33.0544V141.543H35.3839V145.69ZM38.2027 145.69H35.8731V141.543H38.2027V145.69ZM41.0243 145.69H38.6948V141.543H41.0243V145.69Z" fill="#246BFD"/>
<path opacity="0.1" d="M12.96 155.037C13.0706 155.486 13.2017 155.928 13.3356 156.368V155.337H15.6651V159.475H14.4159C14.4509 159.574 14.4887 159.676 14.5295 159.766H41.1737V155.037H12.96ZM18.4926 159.475H16.1631V155.337H18.4926V159.475ZM21.3085 159.475H18.9789V155.337H21.3085V159.475ZM24.1301 159.475H21.8006V155.337H24.1301V159.475ZM26.9489 159.475H24.6193V155.337H26.9489V159.475ZM29.7705 159.475H27.441V155.337H29.7705V159.475ZM32.5922 159.475H30.2627V155.337H32.5922V159.475ZM35.411 159.475H33.0814V155.337H35.411V159.475ZM38.2297 159.475H35.9002V155.337H38.2297V159.475ZM41.0514 159.475H38.7218V155.337H41.0514V159.475Z" fill="#246BFD"/>
<path opacity="0.1" d="M19.5234 168.828C19.5991 168.921 19.669 169.026 19.7418 169.119H21.2822V171.108L21.7802 171.691V169.108H24.1097V173.283H23.1517C23.2449 173.379 23.3352 173.481 23.4429 173.575H41.1562V168.828H19.5234ZM26.9372 173.283H24.6077V169.125H26.9372V173.283ZM29.7589 173.283H27.4293V169.125H29.7589V173.283ZM32.5805 173.283H30.251V169.125H32.5805V173.283ZM35.3993 173.283H33.0697V169.125H35.3993V173.283ZM38.218 173.283H35.8885V169.125H38.218V173.283ZM41.0397 173.283H38.7101V169.125H41.0397V173.283Z" fill="#246BFD"/>
<path opacity="0.1" d="M35.0703 182.619C35.3382 182.771 35.609 182.91 35.8798 183.059V182.913H38.2094V184.227C38.3783 184.299 38.5384 184.378 38.7044 184.454V182.913H41.034V185.435C41.0782 185.455 41.124 185.472 41.1708 185.484V182.619H35.0703Z" fill="#246BFD"/>
<path opacity="0.1" d="M209.341 196.18H209.632H209.341ZM190.626 152.451C190.681 152.638 190.73 152.824 190.78 153.008C190.736 152.824 190.684 152.638 190.626 152.451ZM51.3975 66.6311V67.8716H64.4051V66.6252L51.3975 66.6311ZM209.344 196.18H209.635H209.344ZM190.626 152.451C190.681 152.638 190.73 152.824 190.78 153.008C190.736 152.824 190.684 152.638 190.626 152.451ZM209.341 196.18H209.632H209.341ZM190.626 152.451C190.681 152.638 190.73 152.824 190.78 153.008C190.736 152.824 190.684 152.638 190.626 152.451Z" fill="#246BFD"/>
</g>
<defs>
<clipPath id="clip0_1231_20033">
<rect width="340" height="236.662" fill="white"/>
</clipPath>
</defs>
</svg>
