<svg width="16" height="16" viewBox="0 0 16 16" fill="none" xmlns="http://www.w3.org/2000/svg">
<path opacity="0.4" d="M8.65054 2.07582L10.1349 5.05867C10.2442 5.27478 10.4529 5.42486 10.6936 5.45821L14.0277 5.94379C14.2224 5.97114 14.3991 6.07386 14.5185 6.2306C14.6365 6.38535 14.6872 6.58145 14.6585 6.77421C14.6352 6.93429 14.5598 7.08237 14.4445 7.19576L12.0286 9.53762C11.8519 9.70103 11.7719 9.94316 11.8146 10.1799L12.4093 13.4723C12.4727 13.8698 12.2093 14.2447 11.8146 14.3201C11.6519 14.3461 11.4852 14.3187 11.3385 14.244L8.36448 12.6946C8.14377 12.5832 7.88304 12.5832 7.66233 12.6946L4.68836 14.244C4.32295 14.4381 3.87018 14.306 3.66681 13.9459C3.59146 13.8025 3.56478 13.639 3.58946 13.4796L4.18425 10.1866C4.22693 9.95049 4.14624 9.70704 3.9702 9.54362L1.55435 7.2031C1.26696 6.92562 1.25829 6.46872 1.53501 6.18124C1.54102 6.17524 1.54768 6.16857 1.55435 6.1619C1.66904 6.04518 1.81974 5.97114 1.98244 5.95179L5.31649 5.46555C5.55654 5.43153 5.76526 5.28279 5.87528 5.06534L7.30625 2.07582C7.43361 1.81969 7.69767 1.66028 7.9844 1.66695H8.07375C8.32247 1.69696 8.53919 1.85104 8.65054 2.07582Z" fill="#246BFD"/>
<path d="M7.99435 12.6115C7.86521 12.6155 7.73941 12.6502 7.62625 12.7122L4.66682 14.2582C4.30471 14.431 3.87138 14.2969 3.66836 13.9506C3.59315 13.8091 3.56586 13.647 3.59115 13.4882L4.18224 10.2022C4.22217 9.96332 4.1423 9.72045 3.96857 9.55232L1.55163 7.2124C1.26474 6.9315 1.25942 6.47046 1.54032 6.18289C1.54431 6.17888 1.54764 6.17555 1.55163 6.17221C1.66612 6.05879 1.81389 5.98406 1.97298 5.96071L5.30983 5.46964C5.55146 5.43894 5.76113 5.28815 5.86763 5.06931L7.31806 2.04216C7.45585 1.79796 7.72011 1.65251 7.99967 1.66785C7.99435 1.86602 7.99435 12.4767 7.99435 12.6115Z" fill="#246BFD"/>
</svg>
